<?xml version="1.0" standalone="no"?>
<!DOCTYPE svg PUBLIC "-//W3C//DTD SVG 1.1//EN" "http://www.w3.org/Graphics/SVG/1.1/DTD/svg11.dtd" >
<svg xmlns="http://www.w3.org/2000/svg">
<metadata></metadata>
<defs>
<font id="district_medium_italicMdIt" horiz-adv-x="1148" >
<font-face units-per-em="2048" ascent="1638" descent="-410" />
<missing-glyph horiz-adv-x="600" />
<glyph unicode="&#xfb01;" horiz-adv-x="1214" d="M236 0l186 877h-164l33 159h164l30 148q28 136 122.5 209t219.5 73q50 0 104.5 -12t78.5 -35l-33 -153q-34 53 -123 53q-57 0 -103 -36.5t-59 -102.5l-26 -144h577l-219 -1036h-211l186 877h-368l-187 -877h-208z" />
<glyph unicode="&#xfb02;" horiz-adv-x="1316" d="M236 0l186 877h-164l33 159h164l30 148q27 138 112.5 210t207.5 72q112 0 162 -47l-33 -153q-32 53 -103 53q-55 0 -91 -35.5t-48 -103.5l-28 -144h229l-33 -159h-229l-187 -877h-208zM868 0l308 1440h213l-308 -1440h-213z" />
<glyph unicode="&#xd;" horiz-adv-x="2048" />
<glyph unicode=" "  horiz-adv-x="600" />
<glyph unicode="&#x09;" horiz-adv-x="600" />
<glyph unicode="&#xa0;" horiz-adv-x="600" />
<glyph unicode="!" horiz-adv-x="540" d="M143 106q0 52 37 88.5t90 36.5t90 -36.5t37 -88.5t-37 -89t-90 -37t-90 37t-37 89zM262 408l37 358l143 676h209l-143 -678l-117 -356h-129z" />
<glyph unicode="&#x22;" horiz-adv-x="770" d="M334 827l65 596q3 27 38.5 40.5t86.5 13.5q105 0 105 -45v-9l-193 -596h-102zM741 827l66 596q3 27 38.5 40.5t86.5 13.5q106 0 106 -45q0 -2 -1 -5t-1 -4l-192 -596h-103z" />
<glyph unicode="#" horiz-adv-x="1509" d="M238 414l34 166h260l62 290h-260l35 166h262l88 404h186l-88 -404h279l88 404h186l-86 -404h266l-34 -166h-269l-63 -290h270l-35 -166h-270l-90 -414h-187l91 414h-281l-90 -414h-184l88 414h-258zM717 575h278l66 297h-281z" />
<glyph unicode="$" horiz-adv-x="1304" d="M166 279l164 114q76 -217 358 -217q68 0 133.5 17.5t120.5 49.5t89 84t34 115q0 77 -75 125t-255 105q-178 55 -265 146.5t-87 207.5q0 94 40 169.5t107.5 123.5t148 76.5t171.5 38.5l24 108h183l-25 -106q254 -31 387 -217l-159 -125q-55 81 -146.5 124.5t-206.5 43.5 q-56 0 -106.5 -10.5t-97 -33.5t-74 -66.5t-27.5 -102.5q0 -68 54.5 -113t179.5 -84q81 -25 143 -50.5t122.5 -60.5t99.5 -74.5t63 -92t24 -113.5q0 -81 -30 -151t-79.5 -120t-116.5 -88t-139 -60t-149 -32l-26 -123h-183l25 115q-323 22 -424 277z" />
<glyph unicode="%" horiz-adv-x="2066" d="M297 846q0 105 33.5 211t93.5 194t154.5 143.5t205.5 55.5q148 0 217.5 -86.5t69.5 -226.5q0 -83 -20.5 -167.5t-62.5 -162.5t-99 -139t-136 -97t-169 -36q-139 0 -213 84t-74 227zM473 852q0 -170 143 -170q69 0 125 46t88 116t49 143.5t17 138.5q0 177 -137 177 q-69 0 -126 -47t-90 -118.5t-51 -146t-18 -139.5zM557 -16l1106 1489l164 -17l-1108 -1487zM1309 293q0 105 33.5 211t93.5 194t154.5 143.5t205.5 55.5q148 0 217.5 -86.5t69.5 -226.5q0 -104 -34 -209.5t-94 -193.5t-155 -143.5t-205 -55.5q-139 0 -212.5 84t-73.5 227z M1485 299q0 -170 141 -170q69 0 125.5 46t89 116t49.5 144.5t17 139.5q0 175 -140 175q-69 0 -125.5 -47t-89 -118t-50 -146t-17.5 -140z" />
<glyph unicode="&#x26;" horiz-adv-x="1366" d="M178 342q0 129 87.5 246.5t256.5 183.5l-41 57q-55 80 -55 191q0 84 37 163t104 142.5t170.5 102t225.5 38.5q169 0 280.5 -58t208.5 -167l-160 -133q-63 92 -141 134t-186 42q-141 0 -228.5 -79t-87.5 -177q0 -50 27 -94l387 -598q47 56 53 119l199 -2q-9 -66 -49 -144 t-97 -135l113 -174h-250l-39 57q-169 -88 -372 -88q-104 0 -189.5 30.5t-140 83t-84 119t-29.5 140.5zM399 365q0 -89 72 -152t193 -63q128 0 233 55q-116 173 -281 422q-107 -42 -162 -113.5t-55 -148.5z" />
<glyph unicode="'" horiz-adv-x="423" d="M334 827l63 596q3 27 38.5 40.5t86.5 13.5q107 0 107 -45q0 -7 -2 -9l-191 -596h-102z" />
<glyph unicode="(" horiz-adv-x="706" d="M217 393q0 366 191 693.5t507 551.5l66 -106q-555 -524 -555 -1237q0 -333 160 -584l-97 -73q-131 133 -201.5 332.5t-70.5 422.5z" />
<glyph unicode=")" horiz-adv-x="638" d="M-70 -256q555 521 555 1235q0 338 -159 584l96 75q131 -133 201.5 -333t70.5 -424q0 -366 -191 -693.5t-507 -549.5z" />
<glyph unicode="*" horiz-adv-x="866" d="M319 997l275 95l-232 88l74 129l203 -142l37 273h139l-76 -264l246 135l37 -125l-266 -99l223 -98l-78 -129l-196 148l-39 -273h-142l78 266l-248 -131z" />
<glyph unicode="+" horiz-adv-x="1286" d="M227 559l37 176h465l98 469h181l-99 -469h465l-37 -176h-467l-98 -467h-180l98 467h-463z" />
<glyph unicode="," horiz-adv-x="505" d="M4 -233l223 444h224l-299 -473z" />
<glyph unicode="-" horiz-adv-x="753" d="M238 604l43 199h536l-41 -199h-538z" />
<glyph unicode="." horiz-adv-x="417" d="M96 104q0 52 37 89.5t90 37.5t90 -37.5t37 -89.5t-37 -89.5t-90 -37.5t-90 37.5t-37 89.5z" />
<glyph unicode="/" horiz-adv-x="989" d="M20 -92l1041 1624h223l-1038 -1624h-226z" />
<glyph unicode="0" horiz-adv-x="1306" d="M225 494q0 130 29 264t90 260.5t146 225t207.5 158.5t263.5 60q108 0 191.5 -39t134.5 -108.5t76.5 -160t25.5 -198.5t-21 -220.5t-60.5 -222.5t-102.5 -206.5t-142 -170t-184.5 -116.5t-223.5 -43q-205 0 -317.5 143t-112.5 374zM440 471q0 -66 12 -120t38.5 -100 t75.5 -71.5t118 -25.5q98 0 182 57t138.5 145.5t93.5 198.5t56 214t17 194q0 153 -59 240t-182 87q-82 0 -154 -40.5t-124.5 -108.5t-94 -153.5t-66.5 -178t-38 -178.5t-13 -160z" />
<glyph unicode="1" horiz-adv-x="831" d="M383 1083l31 152q129 4 216 65t113 140h193l-307 -1440h-221l237 1110q-45 -12 -125 -19.5t-137 -7.5z" />
<glyph unicode="2" horiz-adv-x="1247" d="M102 0q11 48 30.5 93.5t41 84t55.5 79t61.5 70.5t71.5 67.5t74 61t81.5 59t80 54t83.5 54t79 51.5q140 91 192 135q155 134 156 285q0 91 -64 142.5t-178 51.5q-109 0 -203 -65t-151 -154l-152 102q88 132 223 212.5t306 80.5q200 0 310 -95.5t110 -250.5 q0 -81 -25.5 -156t-64 -132t-99.5 -114t-116 -97t-130 -87q-223 -142 -315.5 -211t-144.5 -141h714l-36 -180h-990z" />
<glyph unicode="3" horiz-adv-x="1234" d="M145 301l168 86q43 -237 310 -237q160 0 268 88t108 239q0 185 -278 185h-170l35 167h157q69 0 130.5 16.5t113.5 49t82.5 88t30.5 127.5q0 84 -59 136t-179 52q-106 0 -202 -67t-144 -156l-156 94q186 299 525 299q114 0 209.5 -38.5t155 -116t59.5 -180.5 q0 -326 -301 -390q101 -13 153.5 -85.5t52.5 -190.5q0 -99 -35 -181.5t-94.5 -139t-139.5 -96t-168.5 -57.5t-182.5 -18q-175 0 -296 81t-153 245z" />
<glyph unicode="4" horiz-adv-x="1329" d="M176 332l37 172l883 936h247l-200 -940h186l-37 -168h-184l-70 -332h-213l70 332h-719zM436 500h496l143 676z" />
<glyph unicode="5" horiz-adv-x="1243" d="M154 260l161 98q70 -211 318 -211q181 0 298.5 122t117.5 302q0 104 -62 162t-182 58q-89 0 -174.5 -41.5t-153.5 -118.5l-176 47l221 762h856l-41 -180h-678l-131 -414q147 115 336 115q188 0 295 -100.5t107 -268.5q0 -185 -90 -327t-240.5 -216t-335.5 -74 q-165 0 -285.5 71.5t-160.5 213.5z" />
<glyph unicode="6" horiz-adv-x="1273" d="M209 434q0 135 36 278t107 276t167.5 239t228 169.5t276.5 63.5q94 0 177.5 -27.5t127.5 -70.5l-115 -133q-86 59 -202 59q-178 0 -323.5 -144.5t-215.5 -361.5q154 148 401 148q188 0 304 -102.5t116 -272.5q0 -131 -52 -241t-140 -183t-204.5 -113.5t-244.5 -40.5 q-117 0 -204.5 36t-139 100t-76 144.5t-24.5 176.5zM410 406q0 -49 14.5 -93t44.5 -83t84.5 -62t126.5 -23q169 0 285 113.5t116 280.5q0 107 -70 166t-194 59q-103 0 -196.5 -46t-152 -129.5t-58.5 -182.5z" />
<glyph unicode="7" horiz-adv-x="1204" d="M358 0q91 334 287.5 660.5t462.5 594.5h-746l39 185h985l-34 -170q-305 -294 -485 -594.5t-283 -675.5h-226z" />
<glyph unicode="8" horiz-adv-x="1294" d="M178 334q0 160 94.5 274t253.5 170q-68 34 -106.5 97.5t-38.5 142.5q0 110 46 198t124 142t175 82t206 28q195 0 322.5 -89t127.5 -234q0 -133 -75.5 -233.5t-202.5 -147.5q87 -36 138.5 -110.5t51.5 -174.5q0 -125 -51 -224t-138.5 -158.5t-197.5 -90.5t-235 -31 q-218 0 -356 99.5t-138 259.5zM391 358q0 -96 73.5 -155.5t215.5 -59.5q74 0 144.5 21t128.5 60t93 102t35 141q0 98 -78 155.5t-210 57.5q-73 0 -143.5 -21t-128.5 -59.5t-94 -101.5t-36 -140zM586 1026q0 -80 64.5 -131t183.5 -51q84 0 160 30t128 94t52 150 q0 88 -68.5 136.5t-177.5 48.5q-84 0 -160.5 -30.5t-129 -95.5t-52.5 -151z" />
<glyph unicode="9" horiz-adv-x="1273" d="M264 78l117 133q28 -21 83 -40t120 -19q177 0 322 144.5t214 360.5q-153 -147 -401 -147q-188 0 -304 102.5t-116 272.5q0 131 52.5 241t140.5 182.5t204 113t244 40.5q117 0 204.5 -36t139 -99.5t76 -144t24.5 -176.5q0 -112 -25.5 -231t-73 -233t-120 -216t-160 -179 t-200 -122t-234.5 -45q-94 0 -178.5 28t-128.5 70zM514 901q0 -107 69.5 -166t192.5 -59q104 0 197.5 46t152 129.5t58.5 182.5q0 49 -14.5 93t-44.5 82.5t-84.5 61.5t-127.5 23q-169 0 -284 -113t-115 -280z" />
<glyph unicode=":" horiz-adv-x="452" d="M117 104q0 52 37.5 89.5t89.5 37.5q54 0 91.5 -37t37.5 -90t-37.5 -90t-91.5 -37q-52 0 -89.5 37.5t-37.5 89.5zM291 913q0 53 36.5 90t90.5 37q52 0 89.5 -37t37.5 -90t-37.5 -90t-89.5 -37q-54 0 -90.5 37t-36.5 90z" />
<glyph unicode=";" horiz-adv-x="526" d="M4 -233l221 444h226l-301 -473zM324 913q0 53 37 90t90 37t90 -37t37 -90t-37 -90t-90 -37t-90 37t-37 90z" />
<glyph unicode="&#x3c;" horiz-adv-x="1157" d="M219 631l37 172l1108 586l-51 -238l-885 -451l692 -458l-43 -201z" />
<glyph unicode="=" horiz-adv-x="1347" d="M184 348l37 176h1129l-39 -176h-1127zM274 774l37 178h1129l-39 -178h-1127z" />
<glyph unicode="&#x3e;" horiz-adv-x="1157" d="M94 41l51 238l883 450l-690 459l43 201l858 -588l-37 -172z" />
<glyph unicode="?" horiz-adv-x="1118" d="M334 1169q44 68 95 120t115 93t145 62.5t175 21.5q184 0 298 -86.5t114 -238.5q0 -65 -18.5 -122t-45 -98.5t-73.5 -84t-87.5 -71t-101.5 -67.5q-46 -29 -67.5 -43t-50 -36.5t-41.5 -39t-29 -44t-25.5 -58t-19.5 -74.5h-199q33 144 98.5 239.5t194.5 176.5q7 5 33 21.5 t36.5 23t35 23.5t35.5 26.5t31.5 27t30.5 30.5t23.5 32t20 36t11.5 38t5 43q0 76 -58.5 126t-166.5 50q-217 0 -359 -223zM440 102q0 52 37 89.5t90 37.5t90 -37.5t37 -89.5t-37 -89.5t-90 -37.5t-90 37.5t-37 89.5z" />
<glyph unicode="@" horiz-adv-x="1783" d="M276 598q0 232 108.5 428.5t302.5 313t429 116.5q149 0 276 -50t214.5 -137t136.5 -207.5t49 -258.5q0 -249 -113 -412.5t-274 -163.5q-155 0 -197 140q-61 -66 -127.5 -94.5t-154.5 -28.5q-108 0 -183 91.5t-75 233.5q0 120 57.5 237.5t158 195t212.5 77.5q86 0 144 -30 t101 -105l35 100h144q0 -4 -21 -86t-62.5 -227.5t-82.5 -277.5q-6 -18 -6 -39q0 -35 21.5 -55.5t57.5 -20.5q60 0 110.5 52.5t79.5 128.5t44.5 151t15.5 131q0 248 -157.5 397.5t-407.5 149.5q-150 0 -284 -58t-230 -158t-152.5 -238.5t-56.5 -293.5q0 -150 52.5 -271.5 t143 -199t206 -119t245.5 -41.5q252 0 482 181l55 -91q-255 -196 -533 -196q-117 0 -228 29.5t-208 91t-170 147.5t-115.5 206.5t-42.5 260.5zM829 586q0 -97 43 -152t113 -55q75 0 156.5 78t109.5 172q25 86 25 145q0 78 -39 122t-121 44q-69 0 -136.5 -56t-109 -138.5 t-41.5 -159.5z" />
<glyph unicode="A" horiz-adv-x="1419" d="M61 0l852 1440h220l229 -1440h-221l-49 356h-580l-199 -356h-252zM606 528h465l-90 668z" />
<glyph unicode="B" horiz-adv-x="1370" d="M143 0l306 1440h620q175 0 275 -85t100 -222q0 -130 -78.5 -229t-218.5 -140q97 -25 155 -103.5t58 -189.5q0 -230 -177 -350.5t-485 -120.5h-555zM403 180h347q81 0 146.5 15t121 48.5t86.5 94.5t31 145q0 102 -77 148.5t-194 46.5h-354zM547 852h342q52 0 99 9t89 29 t73 49.5t49 74.5t18 100q0 148 -220 148h-362z" />
<glyph unicode="C" horiz-adv-x="1386" d="M231 539q0 138 33.5 272.5t101.5 253.5t162 209.5t223.5 143t276.5 52.5q205 0 335 -101.5t167 -270.5l-205 -70q-25 116 -101.5 186t-209.5 70q-102 0 -193 -48.5t-155.5 -127.5t-112.5 -178t-71 -202t-23 -198q0 -110 31.5 -191.5t102.5 -131t175 -49.5q107 0 203 54.5 t166 147.5l170 -120q-218 -271 -568 -271q-105 0 -191 31t-144.5 84.5t-98 126.5t-57 155t-17.5 173z" />
<glyph unicode="D" horiz-adv-x="1394" d="M143 0l306 1440h450q290 0 433 -136.5t143 -379.5q0 -203 -58.5 -372.5t-168.5 -292.5t-278 -191t-378 -68h-449zM408 186h210q128 0 233.5 38t179 104.5t124 158t74.5 198t24 224.5q0 344 -387 344h-231z" />
<glyph unicode="E" horiz-adv-x="1204" d="M143 0l306 1440h960l-39 -185h-737l-88 -411h557l-39 -182h-557l-100 -480h776l-39 -182h-1000z" />
<glyph unicode="F" horiz-adv-x="1140" d="M143 0l306 1440h956l-39 -183h-735l-88 -419h553l-39 -179h-553l-139 -659h-222z" />
<glyph unicode="G" horiz-adv-x="1470" d="M229 520q0 139 33.5 275t101.5 257.5t161.5 215t222 148t274.5 54.5q107 0 196.5 -30.5t151 -82.5t102 -117t58.5 -140l-207 -72q-67 256 -303 256q-87 0 -166.5 -33t-140 -90t-110 -131.5t-81 -157.5t-48.5 -168.5t-17 -164.5q0 -168 76.5 -274.5t230.5 -106.5 q168 0 305.5 115.5t190.5 299.5h-367l39 177h584l-27 -134q-27 -127 -91.5 -242.5t-158 -206t-222 -144.5t-272.5 -54q-132 0 -233 43.5t-161.5 120t-91 174t-30.5 213.5z" />
<glyph unicode="H" horiz-adv-x="1431" d="M143 0l306 1440h221l-127 -604h700l129 604h221l-305 -1440h-223l139 647h-702l-137 -647h-222z" />
<glyph unicode="I" horiz-adv-x="503" d="M143 0l306 1440h223l-307 -1440h-222z" />
<glyph unicode="J" horiz-adv-x="1122" d="M106 336l187 74v-43q0 -211 213 -211q130 0 220.5 100t123.5 252l199 932h219l-189 -885q-30 -141 -76.5 -245t-116 -181t-169 -115.5t-228.5 -38.5q-179 0 -281 89t-102 272z" />
<glyph unicode="K" horiz-adv-x="1390" d="M143 0l306 1440h223l-150 -707l766 707h297l-637 -566l348 -874h-233l-283 725l-321 -285l-94 -440h-222z" />
<glyph unicode="L" horiz-adv-x="1130" d="M143 0l308 1440h223l-266 -1250h710l-41 -190h-934z" />
<glyph unicode="M" horiz-adv-x="1650" d="M143 0l306 1440h274l180 -1034l615 1034h299l-308 -1440h-221l228 1065l-644 -1065h-81l-197 1073l-229 -1073h-222z" />
<glyph unicode="N" horiz-adv-x="1445" d="M143 0l306 1440h223l477 -1106l237 1106h222l-305 -1440h-224l-475 1116l-239 -1116h-222z" />
<glyph unicode="O" horiz-adv-x="1482" d="M229 512q0 146 35 285.5t105.5 261t167.5 213.5t230 145t284 53q103 0 187 -27t142.5 -75t98 -115.5t57.5 -146.5t18 -170q0 -143 -34 -282t-103 -263t-165.5 -218t-230.5 -149t-288 -55q-129 0 -227.5 42.5t-158 118t-89 172t-29.5 210.5zM459 530q0 -169 76.5 -270.5 t232.5 -101.5q102 0 193 48.5t155.5 127t112.5 177.5t71 201.5t23 196.5q0 79 -17.5 145.5t-53 118.5t-96.5 81.5t-142 29.5q-88 0 -166.5 -34t-138.5 -91.5t-108 -133t-78.5 -160t-47 -170t-16.5 -165.5z" />
<glyph unicode="P" horiz-adv-x="1282" d="M143 0l306 1440h575q222 0 337.5 -95.5t115.5 -250.5q0 -231 -170 -376t-449 -145h-373l-120 -573h-222zM522 750h342q174 0 283.5 86t109.5 239q0 95 -75.5 142t-202.5 47h-346z" />
<glyph unicode="Q" horiz-adv-x="1478" d="M229 512q0 145 34.5 283.5t104 260.5t166.5 214.5t230.5 146t286.5 53.5q128 0 226.5 -42t158 -116t89 -170t29.5 -210q0 -243 -115.5 -479t-308.5 -363l70 -141l-196 -94l-70 143q-102 -29 -203 -29q-129 0 -227 42.5t-157 118t-88.5 172t-29.5 210.5zM459 532 q0 -169 77 -271.5t234 -102.5q30 0 80 8l-76 153l195 97l73 -150q128 99 204.5 282t76.5 359q0 80 -17.5 146.5t-53.5 119t-97 82t-141 29.5q-88 0 -167 -34t-138.5 -91.5t-107.5 -133t-78.5 -159.5t-47 -169.5t-16.5 -164.5z" />
<glyph unicode="R" horiz-adv-x="1306" d="M143 0l306 1440h563q226 0 344.5 -95.5t118.5 -246.5q0 -193 -126 -330t-341 -160l239 -608h-233l-226 592h-299l-124 -592h-222zM526 768h344q171 0 276 85t105 228q0 93 -71 138t-201 45h-346z" />
<glyph unicode="S" horiz-adv-x="1230" d="M164 258l158 113q39 -118 124.5 -172t225.5 -54q158 0 252 79.5t94 205.5q0 82 -77 135t-253 111q-348 119 -348 358q0 89 31.5 163t84.5 123.5t124.5 84t151 50t165.5 15.5q166 0 284 -65t189 -170l-158 -127q-57 91 -138.5 135.5t-203.5 44.5q-57 0 -109.5 -11.5 t-100 -36.5t-76.5 -70t-29 -105q0 -72 55 -119.5t181 -89.5q446 -152 446 -422q0 -207 -166 -336t-442 -129q-356 0 -465 289z" />
<glyph unicode="T" horiz-adv-x="1161" d="M317 1257l39 183h1074l-39 -183h-426l-267 -1257h-223l268 1257h-426z" />
<glyph unicode="U" horiz-adv-x="1343" d="M217 377q0 111 35 282l166 781h223l-182 -856q-29 -141 -29 -201q0 -105 54.5 -164t189.5 -59q191 0 303.5 111.5t150.5 295.5l187 873h221l-162 -764q-28 -129 -62.5 -228.5t-91.5 -192.5t-131 -153.5t-180.5 -96.5t-240.5 -36q-127 0 -217.5 30.5t-140 87.5t-71.5 128 t-22 162z" />
<glyph unicode="V" horiz-adv-x="1368" d="M367 1440h223l160 -1196l667 1196h250l-852 -1440h-219z" />
<glyph unicode="W" horiz-adv-x="1832" d="M367 1440h215l12 -1129l518 1129h223l39 -1131l486 1131h235l-663 -1440h-218l-49 1135l-528 -1135h-217z" />
<glyph unicode="X" horiz-adv-x="1386" d="M61 0l674 770l-295 670h238l213 -529l436 529h277l-609 -701l328 -739h-236l-245 600l-502 -600h-279z" />
<glyph unicode="Y" horiz-adv-x="1339" d="M336 1440h233l244 -682l539 682h272l-737 -879l-119 -561h-221l123 582z" />
<glyph unicode="Z" horiz-adv-x="1243" d="M72 0l32 158l1045 1097h-764l39 185h1055l-35 -164l-1036 -1094h798l-39 -182h-1095z" />
<glyph unicode="[" horiz-adv-x="675" d="M88 -299l410 1925h434l-33 -153h-244l-342 -1618h242l-33 -154h-434z" />
<glyph unicode="\" horiz-adv-x="966" d="M356 1532h197l346 -1624h-197z" />
<glyph unicode="]" horiz-adv-x="675" d="M27 -299l32 154h242l344 1618h-242l33 153h434l-409 -1925h-434z" />
<glyph unicode="^" horiz-adv-x="1236" d="M303 735l549 705h154l241 -705h-192l-160 490l-371 -490h-221z" />
<glyph unicode="_" horiz-adv-x="1024" d="M-72 -297l29 135h1044l-28 -135h-1045z" />
<glyph unicode="`" horiz-adv-x="755" d="M459 1487h254l139 -305h-131z" />
<glyph unicode="a" d="M154 231q0 80 38 156t107 136t175.5 97t232.5 37q80 0 190 -20q8 19 14 59q15 58 15 84q0 115 -166 115q-170 0 -293 -145l-129 102q165 211 455 211q160 0 251 -69.5t91 -186.5q0 -28 -7 -68l-127 -596q-2 -6 -2 -18q0 -31 39 -31h29l-18 -94h-177q-40 0 -64 21t-24 61 q0 3 1 11.5t1 12.5l5 13q-67 -67 -158 -105.5t-191 -38.5q-130 0 -209 70t-79 186zM346 262q0 -57 41 -90t109 -33q86 0 184 52t151 135l35 157q-10 5 -30 13q-62 12 -134 12q-153 0 -254.5 -74.5t-101.5 -171.5z" />
<glyph unicode="b" horiz-adv-x="1155" d="M143 0l306 1440h210l-110 -518q57 68 142 103.5t181 35.5q146 0 229 -101t83 -278q0 -96 -20.5 -193.5t-65 -190t-107 -163.5t-153 -114.5t-195.5 -43.5q-175 0 -264 144l-25 -121h-211zM422 322q22 -87 80.5 -128.5t130.5 -41.5q67 0 123.5 34.5t94 89t64 123.5 t38.5 137t12 130q0 105 -45 164t-134 59q-97 0 -175.5 -70.5t-121.5 -175.5z" />
<glyph unicode="c" horiz-adv-x="1056" d="M193 375q0 131 40 253.5t112.5 220t185.5 156t249 58.5q141 0 233.5 -62t137.5 -151l-166 -96q-64 137 -203 137q-81 0 -152.5 -50t-118.5 -126.5t-74 -165.5t-27 -170q0 -104 45.5 -169t148.5 -65q145 0 273 150l145 -105q-70 -91 -179.5 -153t-254.5 -62 q-188 0 -291.5 111.5t-103.5 288.5z" />
<glyph unicode="d" horiz-adv-x="1144" d="M190 354q0 93 21 190.5t65.5 190t106 165.5t150.5 117t192 44q182 0 266 -141l111 520h213l-307 -1440h-211l24 117q-143 -140 -315 -140q-150 0 -233 101.5t-83 275.5zM408 367q0 -102 44 -158.5t134 -56.5q81 0 161.5 62.5t126.5 158.5l68 315q-14 94 -66.5 147.5 t-134.5 53.5q-83 0 -149.5 -52.5t-105 -134t-58.5 -168.5t-20 -167z" />
<glyph unicode="e" horiz-adv-x="1124" d="M195 381q0 102 25 201t75 185.5t119 152t164 103.5t204 38q183 0 281 -105t98 -276q0 -119 -33 -209h-714q-11 -61 -11 -100q0 -104 49 -166t158 -62q83 0 159.5 34.5t160.5 111.5l123 -115q-191 -201 -473 -201q-127 0 -215.5 55t-129 145t-40.5 208zM440 618h508 q4 23 4 62q0 217 -194 217q-100 0 -188 -75.5t-130 -203.5z" />
<glyph unicode="f" horiz-adv-x="743" d="M236 0l186 877h-164l33 159h164l30 148q27 138 112.5 210t207.5 72q112 0 162 -47l-33 -153q-32 53 -103 53q-55 0 -91 -35.5t-48 -103.5l-28 -144h229l-33 -159h-229l-187 -877h-208z" />
<glyph unicode="g" horiz-adv-x="1167" d="M96 -213l164 98q74 -145 223 -145q124 0 220 87.5t122 221.5l15 68q-127 -142 -326 -142q-149 0 -232 101.5t-83 275.5q0 97 21.5 195.5t67 190.5t109 163.5t154.5 114.5t197 43q180 0 260 -141l24 116h211l-211 -981q-53 -244 -201 -366.5t-368 -122.5q-125 0 -222.5 63 t-144.5 160zM414 369q0 -104 45.5 -163t140.5 -59q88 0 165.5 65t127.5 161q0 1 10.5 49t27 124.5t30.5 143.5q-13 93 -72 146t-137 53q-68 0 -125.5 -35t-96 -90t-65.5 -125t-39 -138.5t-12 -131.5z" />
<glyph unicode="h" horiz-adv-x="1142" d="M143 0l306 1440h210l-110 -520q127 143 319 143q152 0 222.5 -76.5t70.5 -212.5q0 -65 -16 -153l-133 -621h-213l129 606q14 79 14 123q0 75 -36 114.5t-120 39.5q-115 0 -199.5 -93.5t-117.5 -246.5l-115 -543h-211z" />
<glyph unicode="i" horiz-adv-x="518" d="M168 0l217 1036h211l-219 -1036h-209zM430 1339q0 51 35 87t86 36q50 0 85.5 -36t35.5 -87t-35.5 -86.5t-85.5 -35.5q-51 0 -86 35.5t-35 86.5z" />
<glyph unicode="j" horiz-adv-x="536" d="M-166 -399l53 149q30 -24 72 -24q58 0 104 40.5t62 120.5l240 1149h208l-245 -1167q-29 -138 -126.5 -221.5t-221.5 -83.5q-71 0 -146 37zM408 1339q0 51 34.5 87t85.5 36t87 -36t36 -87t-36 -86.5t-87 -35.5t-85.5 35.5t-34.5 86.5z" />
<glyph unicode="k" horiz-adv-x="1114" d="M143 0l306 1440h213l-185 -858l492 454h270l-436 -391l237 -645h-219l-182 502l-219 -197l-66 -305h-211z" />
<glyph unicode="l" horiz-adv-x="499" d="M143 0l306 1440h215l-308 -1440h-213z" />
<glyph unicode="m" horiz-adv-x="1730" d="M143 0l222 1036h210l-26 -127q61 77 142.5 113.5t164.5 36.5q104 0 175 -48.5t85 -144.5q73 96 152.5 144.5t197.5 48.5q277 0 277 -275q0 -73 -25 -194l-127 -590h-213l123 580q25 106 25 161q0 66 -32 102t-110 36q-58 0 -108.5 -29.5t-86.5 -80t-61.5 -109.5 t-40.5 -125l-114 -535h-213l125 586q22 90 22 149q0 144 -139 144q-102 0 -184.5 -100t-114.5 -249l-113 -530h-213z" />
<glyph unicode="n" horiz-adv-x="1153" d="M143 0l222 1036h210l-26 -116q128 141 319 141q152 0 222.5 -76t70.5 -211q0 -68 -16 -153l-133 -621h-213l129 606q14 75 14 123q0 73 -36 112.5t-120 39.5q-115 0 -199.5 -93t-117.5 -247l-115 -541h-211z" />
<glyph unicode="o" horiz-adv-x="1171" d="M193 375q0 133 41 255.5t116 218.5t191 154t256 58q187 0 293 -111.5t106 -294.5q0 -104 -24.5 -202.5t-74.5 -185.5t-120.5 -152.5t-169.5 -103.5t-215 -38q-185 0 -292 109.5t-107 292.5zM408 379q0 -115 52.5 -174.5t149.5 -59.5q90 0 163 48.5t116.5 125t66.5 163.5 t23 173q0 49 -10 89.5t-32 75t-63 54t-98 19.5q-86 0 -158 -49.5t-116.5 -126.5t-69 -165.5t-24.5 -172.5z" />
<glyph unicode="p" d="M55 -410l310 1446h210l-24 -116q142 139 315 139q150 0 233 -101.5t83 -275.5q0 -93 -21 -190.5t-65.5 -190t-106 -165.5t-150.5 -117t-192 -44q-181 0 -266 142l-113 -527h-213zM430 348q14 -92 66.5 -146.5t134.5 -54.5q67 0 124 35t94.5 91t64.5 126t39 139t12 132 q0 101 -44.5 158t-134.5 57q-81 0 -157 -54.5t-129 -148.5z" />
<glyph unicode="q" horiz-adv-x="1150" d="M190 354q0 96 21 193.5t65 190t106 163.5t152 114.5t195 43.5q177 0 266 -144l25 121h211l-307 -1446h-209l110 529q-141 -144 -323 -144q-146 0 -229 101t-83 278zM410 371q0 -106 44.5 -165t133.5 -59q96 0 175 71t122 175l67 322q-22 87 -80.5 128.5t-130.5 41.5 q-67 0 -123.5 -34.5t-94 -89t-64 -123.5t-38 -137t-11.5 -130z" />
<glyph unicode="r" horiz-adv-x="829" d="M143 0l222 1036h210l-26 -118q130 147 319 147q66 0 127 -18l-123 -191q-37 27 -90 27q-111 0 -195.5 -93.5t-115.5 -246.5l-115 -543h-213z" />
<glyph unicode="s" horiz-adv-x="978" d="M141 164l140 115q96 -140 260 -140q99 0 154 41t55 119q0 47 -46 83t-155 73q-138 45 -207.5 117.5t-69.5 166.5q0 83 35 147t94 101t129.5 55.5t149.5 18.5q239 0 383 -156l-141 -121q-101 109 -246 109q-193 0 -193 -127q0 -45 43.5 -77.5t143.5 -67.5 q297 -108 297 -308q0 -166 -121 -254t-322 -88q-125 0 -223.5 50.5t-159.5 142.5z" />
<glyph unicode="t" horiz-adv-x="790" d="M285 879l32 157h164l84 404h211l-86 -404h230l-33 -157h-230l-129 -609q-6 -34 -6 -55q0 -31 15 -45t51 -14q63 0 155 45l-41 -174q-100 -47 -215 -47q-93 0 -137.5 43t-44.5 131q0 39 14 118l130 607h-164z" />
<glyph unicode="u" horiz-adv-x="1132" d="M195 264q0 71 18 154l131 618h213l-127 -606q-16 -69 -16 -121q0 -75 36 -114t121 -39q115 0 199 93.5t117 246.5l114 540h211l-221 -1036h-211l27 119q-124 -144 -318 -144q-152 0 -223 76.5t-71 212.5z" />
<glyph unicode="v" horiz-adv-x="1050" d="M279 1036h210l76 -780l418 780h231l-598 -1036h-196z" />
<glyph unicode="w" horiz-adv-x="1505" d="M279 1036h200l35 -768l365 768h178l39 -768l352 768h221l-522 -1036h-191l-34 780l-369 -780h-188z" />
<glyph unicode="x" horiz-adv-x="1060" d="M61 0l471 549l-206 487h206l138 -354l288 354h242l-440 -514l223 -522h-209l-151 383l-318 -383h-244z" />
<glyph unicode="y" horiz-adv-x="1062" d="M80 -399l61 153q39 -16 78 -16q75 0 121 78l100 178l-143 1042h205l84 -823l446 823h236l-783 -1321q-42 -71 -117.5 -108t-154.5 -37q-73 0 -133 31z" />
<glyph unicode="z" horiz-adv-x="907" d="M51 0l29 135l672 731h-471l34 170h754l-29 -135l-667 -729h518l-37 -172h-803z" />
<glyph unicode="{" horiz-adv-x="819" d="M279 627l28 137q169 45 215 248l39 184q33 157 94.5 245.5t160 127t259.5 43.5l-26 -123q-143 -25 -205.5 -99t-93.5 -225l-27 -127q-27 -129 -55 -195t-69 -101.5t-118 -61.5q117 -44 117 -186q0 -48 -20 -146l-50 -229q-16 -78 -16 -123q0 -72 40.5 -108t143.5 -58 l-26 -123q-185 8 -270 68t-85 202q0 65 19 158l55 258q8 36 8 70q0 115 -118 164z" />
<glyph unicode="|" horiz-adv-x="409" d="M0 -444l432 2031h184l-434 -2031h-182z" />
<glyph unicode="}" horiz-adv-x="825" d="M25 -297l26 123q75 13 127 38t85.5 67.5t53 93t35.5 125.5l41 200q38 189 83.5 256.5t158.5 102.5q-117 43 -117 186q0 59 21 145l32 154q19 81 19 125q0 72 -42 108t-145 58l27 123q185 -8 270.5 -69t85.5 -202q0 -73 -20 -157l-39 -185q-8 -33 -8 -69q0 -113 119 -164 l-29 -135q-173 -49 -215 -250l-53 -258q-25 -118 -64 -195.5t-102 -126t-146 -69.5t-204 -25z" />
<glyph unicode="~" horiz-adv-x="1253" d="M274 621q151 225 338 225q44 0 97.5 -23t94.5 -50t89.5 -50t83.5 -23q54 0 99 33t108 111q33 -36 96 -109q-159 -217 -340 -217q-43 0 -94 22.5t-90.5 49.5t-88.5 49.5t-89 22.5q-53 0 -91 -29.5t-112 -118.5z" />
<glyph unicode="&#xa1;" horiz-adv-x="540" d="M-39 -410l143 676l117 359h129l-35 -359l-145 -676h-209zM219 934q0 52 37.5 89.5t89.5 37.5t89.5 -37.5t37.5 -89.5t-37.5 -89.5t-89.5 -37.5t-89.5 37.5t-37.5 89.5z" />
<glyph unicode="&#xa2;" horiz-adv-x="1163" d="M276 528q0 119 35 232t99.5 206t165.5 156t223 78l51 240h170l-51 -238q98 -14 159.5 -62.5t108.5 -135.5l-162 -95q-30 62 -85 97.5t-128 35.5q-89 0 -162.5 -49.5t-118.5 -126.5t-69.5 -164t-24.5 -170q0 -109 49.5 -176t157.5 -67q61 0 144.5 40.5t126.5 102.5 l139 -98q-45 -72 -142 -133.5t-221 -71.5l-51 -240h-170l51 240q-148 22 -221.5 132.5t-73.5 266.5z" />
<glyph unicode="&#xa3;" horiz-adv-x="1333" d="M205 0l231 1087q39 183 173 281t331 98q285 0 393 -176l-170 -92q-38 52 -90 74t-133 22q-123 0 -202 -60t-101 -167l-35 -162h418l-37 -178h-420l-112 -528h417q82 0 142.5 44.5t60.5 123.5q0 84 -72 135l158 127q61 -51 94 -119t33 -141q0 -159 -123 -264t-307 -105 h-649z" />
<glyph unicode="&#xa4;" horiz-adv-x="1460" d="M35 508l35 131h172q8 55 14 86q10 45 12 53h-176l35 133h184q98 254 291 406.5t445 152.5q201 0 323.5 -100.5t159.5 -271.5l-203 -70q-27 117 -102.5 186.5t-208.5 69.5q-150 0 -274 -102.5t-197 -270.5h485l-37 -133h-495q-15 -51 -17 -61q-9 -42 -12 -78h504l-37 -131 h-475q6 -159 83 -254.5t224 -95.5q108 0 203.5 54.5t167.5 147.5l168 -120q-215 -271 -566 -271q-131 0 -230.5 41t-159 115.5t-89 170t-29.5 212.5h-198z" />
<glyph unicode="&#xa5;" horiz-adv-x="1382" d="M336 326l24 118h320l31 138l-19 47h-293l27 119h219l-268 692h233l242 -682l539 682h272l-580 -692h217l-24 -119h-291l-59 -68l-25 -117h336l-27 -118h-333l-70 -326h-221l69 326h-319z" />
<glyph unicode="&#xa6;" horiz-adv-x="602" d="M0 0l119 561h186l-119 -561h-186zM186 877l119 563h189l-121 -563h-187z" />
<glyph unicode="&#xa7;" horiz-adv-x="1421" d="M276 -80l138 141q144 -137 325 -137q55 0 106 17t88.5 57t37.5 96q0 51 -47.5 90.5t-147.5 79.5q-50 19 -76 29.5t-69 29t-66 30.5t-56 31t-51 35t-39.5 38t-31.5 44t-17.5 48.5t-7.5 56.5q0 149 86 253.5t230 152.5q-74 78 -74 159q0 111 59.5 194.5t155.5 125t213 41.5 t227.5 -42t190.5 -116l-137 -139q-64 57 -134.5 92t-166.5 35q-75 0 -136 -38.5t-61 -109.5q0 -54 45.5 -90.5t151.5 -79.5q181 -74 242 -111q124 -74 144 -176q5 -24 5 -50q0 -283 -307 -412q75 -71 75 -166q0 -174 -126 -275.5t-316 -101.5q-143 0 -259.5 47t-193.5 121z M565 651q0 -16 5 -31t17 -28.5t24 -25t32.5 -24t35.5 -21t41 -20t41 -18t43 -18t40 -16.5q24 -10 77 -35.5t56 -26.5q92 45 158.5 113t66.5 151q0 35 -22 66t-63.5 56.5t-74 41t-80.5 35.5q-7 3 -10 4q-24 11 -51.5 22.5t-57.5 23.5t-44 18q-58 -25 -107.5 -60.5t-88 -91 t-38.5 -115.5z" />
<glyph unicode="&#xa8;" horiz-adv-x="684" d="M317 1370q0 44 31.5 75.5t75.5 31.5t76 -31.5t32 -75.5t-32 -75t-76 -31t-75.5 31t-31.5 75zM705 1370q0 44 32 75.5t76 31.5t75.5 -31.5t31.5 -75.5t-31.5 -75t-75.5 -31t-76 31t-32 75z" />
<glyph unicode="&#xa9;" horiz-adv-x="1734" d="M276 719q0 156 57 293t155.5 234t234.5 152.5t289 55.5q154 0 290 -56t233 -153t153.5 -234.5t56.5 -293.5q0 -204 -95 -371.5t-263.5 -263.5t-376.5 -96q-200 0 -367 92t-267 261t-100 380zM367 717q0 -135 49.5 -254.5t134.5 -205t205 -135.5t256 -50q178 0 325 82.5 t232.5 231t85.5 331.5q1 182 -82 331t-230.5 234.5t-330.5 85.5q-179 0 -326.5 -83.5t-233 -233t-85.5 -334.5zM604 721q0 195 116.5 325t299.5 130q215 0 338 -177l-113 -86q-44 59 -95 92t-130 33q-118 0 -194 -88.5t-76 -224.5q0 -140 77.5 -229.5t194.5 -89.5 q79 0 132.5 34.5t96.5 89.5l109 -88q-51 -69 -123 -112q-97 -62 -219 -62q-181 0 -297.5 128t-116.5 325z" />
<glyph unicode="&#xaa;" horiz-adv-x="970" d="M317 928q0 123 117.5 206t288.5 83q56 0 123 -13q14 57 14 82q0 80 -115 80q-69 0 -115 -23t-91 -71l-97 65q71 79 147 113.5t183 34.5q115 0 186.5 -46t71.5 -126q0 -11 -4 -39l-86 -404v-6q0 -20 35 -20l-14 -74h-127q-27 0 -46.5 16t-19.5 43q0 9 2 15 q-103 -90 -242 -90q-96 0 -153.5 47.5t-57.5 126.5zM479 948q0 -36 27 -55t74 -19q65 0 131 34.5t90 78.5l20 94q-20 25 -94 25q-97 0 -172.5 -45.5t-75.5 -112.5z" />
<glyph unicode="&#xab;" horiz-adv-x="1067" d="M78 596l432 467l162 -55l-406 -430l230 -431h-181zM475 596l432 467l160 -55l-403 -430l229 -431h-182z" />
<glyph unicode="&#xac;" horiz-adv-x="1454" d="M229 575l41 193h1137l-111 -522h-196l69 329h-940z" />
<glyph unicode="&#xad;" horiz-adv-x="753" d="M238 604l43 199h536l-41 -199h-538z" />
<glyph unicode="&#xae;" horiz-adv-x="1738" d="M276 719q0 157 58 294.5t156.5 234t233.5 151.5t286 55q156 0 293 -56.5t234 -154.5t153 -234t55 -290q0 -207 -96.5 -375t-265 -263t-373.5 -95q-148 0 -282.5 54.5t-234 149.5t-158.5 233t-59 296zM367 719q0 -137 50.5 -258t136.5 -206t204.5 -134t251.5 -49 q181 0 329 84t232.5 232t85.5 331q0 182 -83.5 330.5t-231.5 233.5t-330 85q-135 0 -254.5 -49.5t-205 -135.5t-135.5 -206.5t-50 -257.5zM719 297v864h317q66 0 118 -10t100 -34.5t74 -73t26 -119.5q0 -89 -52 -146.5t-135 -79.5q40 -16 76.5 -93t69 -178t47.5 -130h-168 q-13 25 -34.5 95t-40 125.5t-57 102t-87.5 46.5h-107v-369h-147zM866 788h164q176 0 176 130q0 40 -15 66.5t-44.5 38t-57.5 15.5t-69 4h-154v-254z" />
<glyph unicode="&#xaf;" horiz-adv-x="862" d="M403 1233l33 156h568l-33 -156h-568z" />
<glyph unicode="&#xb0;" horiz-adv-x="1005" d="M276 1047q0 114 59 214.5t159 161t213 60.5q130 0 214.5 -80.5t84.5 -202.5q0 -113 -59.5 -214.5t-160 -162.5t-213.5 -61q-130 0 -213.5 80.5t-83.5 204.5zM438 1073q0 -70 43.5 -112.5t116.5 -42.5q100 0 173 76.5t73 176.5q0 70 -43.5 114t-116.5 44 q-100 0 -173 -77.5t-73 -178.5z" />
<glyph unicode="&#xb2;" horiz-adv-x="999" d="M39 401q1 6 7 30l7 24q18 59 51.5 112t68.5 90.5t90 80t94 67t105 65t99 62.5q34 23 54 37t50 40t46.5 48t29.5 53.5t13 63.5q0 54 -40 79t-104 25q-71 0 -134 -40.5t-101 -104.5l-154 102q72 107 175 165t229 58q89 0 161.5 -26.5t121 -88.5t48.5 -151q0 -63 -22 -120 t-53 -99t-85 -87t-96 -73t-108 -68q-169 -102 -232 -159h482l-39 -185h-764z" />
<glyph unicode="&#xb3;" horiz-adv-x="1015" d="M37 633l172 84q18 -84 64 -118t133 -34q101 0 171 46t70 139q0 31 -17 52.5t-45.5 31.5t-55 14t-56.5 4h-125l37 174h102q55 0 104 14.5t86.5 52.5t37.5 95q0 36 -24 59t-54 30t-68 7q-68 0 -130.5 -41t-96.5 -102l-158 94q141 225 406 225q61 0 117 -14t103.5 -42.5 t76 -78t28.5 -113.5q0 -89 -45 -160.5t-127 -111.5q111 -56 111 -182q0 -92 -41 -165.5t-108.5 -117.5t-149 -67t-168.5 -23q-140 0 -231.5 62.5t-118.5 185.5z" />
<glyph unicode="&#xb4;" horiz-adv-x="569" d="M276 1180l269 307h291l-394 -307h-166z" />
<glyph unicode="&#xb6;" horiz-adv-x="1316" d="M270 928q0 31 11 88q37 174 187.5 299t324.5 125h598l-29 -137h-35l-364 -1715h-154l365 1715h-238l-365 -1715h-153l213 1004q-1 0 -10 -1t-15 -1q-4 0 -8 1l-4 1q-143 4 -233.5 99.5t-90.5 236.5z" />
<glyph unicode="&#xb7;" horiz-adv-x="530" d="M276 717q0 52 37 88.5t90 36.5t90 -36.5t37 -88.5q0 -53 -37 -90t-90 -37t-90 37t-37 90z" />
<glyph unicode="&#xb8;" horiz-adv-x="694" d="M233 -377l35 72q60 -31 121 -31q51 0 93 22t42 68q0 23 -15.5 37t-45.5 14q-38 0 -74 -22l-63 18l141 217h86l-86 -139q46 17 86 17q53 0 87 -28t34 -79q0 -68 -43 -116.5t-103.5 -69.5t-126.5 -21q-81 0 -168 41z" />
<glyph unicode="&#xb9;" horiz-adv-x="681" d="M174 1139l35 161q52 2 82.5 6.5t64 18t55 42t35.5 73.5h193l-221 -1039h-213l160 752q-35 -14 -191 -14z" />
<glyph unicode="&#xba;" horiz-adv-x="966" d="M317 1038q0 187 122 316t313 129q136 0 214 -75t78 -202q0 -189 -119.5 -319.5t-314.5 -130.5q-137 0 -215 77t-78 205zM485 1040q0 -74 36.5 -115.5t107.5 -41.5q70 0 128.5 49t89 120t30.5 144q0 72 -34.5 117t-109.5 45t-133.5 -51.5t-86.5 -123t-28 -143.5z" />
<glyph unicode="&#xbb;" horiz-adv-x="1077" d="M0 147l432 459l-217 414l158 45l250 -477l-412 -441h-211zM397 147l434 459l-219 414l158 45l250 -477l-412 -441h-211z" />
<glyph unicode="&#xbc;" horiz-adv-x="2066" d="M184 1139l35 161q51 2 81.5 6.5t64.5 18t56 42t36 73.5h192l-221 -1039h-213l160 752q-35 -14 -191 -14zM322 -16l1105 1489l164 -17l-1110 -1487zM989 225l35 162l637 649h223l-137 -635h133l-37 -176h-133l-47 -225h-211l49 225h-512zM1272 401h266l74 344z" />
<glyph unicode="&#xbd;" horiz-adv-x="2189" d="M174 1139l35 161q52 2 82.5 6.5t64 18t55 42t35.5 73.5h193l-221 -1039h-213l160 752q-35 -14 -191 -14zM287 -16l1108 1489l161 -17l-1107 -1487zM1075 0q5 9 15 51q18 59 51.5 112t69 91t89.5 80t94 67.5t104 65.5t99 63q36 24 54.5 36.5t49.5 39t47 48t29 53t13 63.5 q0 54 -39.5 80.5t-101.5 26.5q-72 0 -135 -40.5t-103 -105.5l-154 100q73 107 176 166.5t230 59.5q137 0 233.5 -69t96.5 -200q0 -45 -11.5 -87.5t-28.5 -76t-47.5 -68.5t-57 -59.5t-69.5 -55t-72 -49.5t-77 -48q-154 -91 -233 -162h481l-37 -182h-766z" />
<glyph unicode="&#xbe;" horiz-adv-x="2306" d="M37 633l172 84q18 -84 64 -118t133 -34q101 0 171 46t70 139q0 31 -17 52.5t-45.5 31.5t-55 14t-56.5 4h-125l37 174h102q55 0 104 14.5t86.5 52.5t37.5 95q0 36 -24 59t-54 30t-68 7q-68 0 -130.5 -41t-96.5 -102l-158 94q141 225 406 225q61 0 117 -14t103.5 -42.5 t76 -78t28.5 -113.5q0 -89 -45 -160.5t-127 -111.5q111 -56 111 -182q0 -92 -41 -165.5t-108.5 -117.5t-149 -67t-168.5 -23q-140 0 -231.5 62.5t-118.5 185.5zM559 -16l1106 1489l164 -17l-1110 -1487zM1229 225l33 162l636 649h224l-137 -635h133l-37 -176h-133l-47 -225 h-209l47 225h-510zM1509 401h267l73 344z" />
<glyph unicode="&#xbf;" horiz-adv-x="1118" d="M23 -109q0 80 24.5 146.5t74.5 121t98.5 91.5t125.5 86q55 34 79.5 50.5t55 42t45 50.5t29.5 61.5t27 88.5h196q-27 -120 -55 -183t-80 -114t-158 -119q-117 -73 -159 -110q-101 -88 -101 -189q0 -76 59 -127t165 -51q223 0 364 221l150 -92q-194 -299 -531 -299 q-183 0 -296 87t-113 238zM606 938q0 53 37.5 90t91.5 37q53 0 90 -37.5t37 -89.5t-37 -89.5t-90 -37.5q-54 0 -91.5 37t-37.5 90z" />
<glyph unicode="&#xc0;" horiz-adv-x="1423" d="M61 0l852 1440h220l229 -1440h-221l-49 356h-580l-199 -356h-252zM606 528h465l-90 668zM682 1868h256l137 -307h-129z" />
<glyph unicode="&#xc1;" horiz-adv-x="1423" d="M61 0l852 1440h220l229 -1440h-221l-49 356h-580l-199 -356h-252zM606 528h465l-90 668zM918 1565l268 305h289l-392 -305h-165z" />
<glyph unicode="&#xc2;" horiz-adv-x="1423" d="M61 0l852 1440h220l229 -1440h-221l-49 356h-580l-199 -356h-252zM606 528h465l-90 668zM684 1565l320 305h159l195 -305h-144l-149 161l-211 -161h-170z" />
<glyph unicode="&#xc3;" horiz-adv-x="1423" d="M61 0l852 1440h220l229 -1440h-221l-49 356h-580l-199 -356h-252zM606 528h465l-90 668zM668 1608q28 100 98.5 170.5t161.5 70.5q46 0 89 -17t69.5 -37t57.5 -37t56 -17q64 0 105 104l127 -8q-36 -108 -105 -177t-158 -69q-43 0 -85.5 17.5t-70.5 39t-60 39t-56 17.5 q-33 0 -57 -25t-45 -77z" />
<glyph unicode="&#xc4;" horiz-adv-x="1423" d="M61 0l852 1440h220l229 -1440h-221l-49 356h-580l-199 -356h-252zM606 528h465l-90 668zM700 1677q0 44 31.5 76.5t75.5 32.5t75 -32t31 -77q0 -43 -31 -74.5t-75 -31.5t-75.5 31.5t-31.5 74.5zM1087 1677q0 44 32.5 76.5t76.5 32.5q43 0 75 -32.5t32 -76.5 q0 -43 -32 -74.5t-75 -31.5q-44 0 -76.5 31.5t-32.5 74.5z" />
<glyph unicode="&#xc5;" horiz-adv-x="1423" d="M61 0l852 1440h220l229 -1440h-221l-49 356h-580l-199 -356h-252zM606 528h465l-90 668zM846 1718q0 89 62 151t153 62q92 0 153.5 -61.5t61.5 -151.5t-61.5 -152.5t-153.5 -62.5q-90 0 -152.5 62.5t-62.5 152.5zM950 1718q0 -48 31 -80t80 -32q47 0 77.5 32t30.5 80 t-30.5 79.5t-77.5 31.5q-49 0 -80 -31.5t-31 -79.5z" />
<glyph unicode="&#xc6;" horiz-adv-x="2029" d="M-61 0l1261 1440h1034l-39 -185h-737l-88 -411h557l-39 -182h-557l-100 -480h776l-39 -182h-999l71 340h-540l-287 -340h-274zM649 518h430l144 682z" />
<glyph unicode="&#xc7;" horiz-adv-x="1386" d="M231 506q0 139 34.5 277t104 261.5t165.5 218.5t228 151t281 56q203 0 326 -100.5t160 -271.5l-205 -70q-25 116 -101.5 186t-209.5 70q-102 0 -193 -48.5t-155.5 -127.5t-112.5 -178t-71 -202t-23 -198q0 -110 31.5 -191.5t102.5 -131t175 -49.5q107 0 203 54.5 t166 147.5l170 -120q-217 -268 -541 -271q-3 0 -7.5 1t-6.5 1t-5 -1t-4 -1l-6 -4l-47 -78q42 17 84 17q53 0 87 -28t34 -79q0 -68 -43 -116.5t-103 -69.5t-126 -21q-81 0 -168 41l34 70q63 -29 121 -29q51 0 93 22t42 68q0 23 -15.5 36.5t-45.5 13.5q-40 0 -74 -21l-63 19 l108 163q-88 11 -159.5 44t-120 82t-81.5 113.5t-48 137.5t-15 156z" />
<glyph unicode="&#xc8;" horiz-adv-x="1204" d="M143 0l306 1440h960l-39 -185h-737l-88 -411h557l-39 -182h-557l-100 -480h776l-39 -182h-1000zM721 1868h254l139 -307h-131z" />
<glyph unicode="&#xc9;" horiz-adv-x="1204" d="M143 0l306 1440h960l-39 -185h-737l-88 -411h557l-39 -182h-557l-100 -480h776l-39 -182h-1000zM862 1565l268 305h291l-393 -305h-166z" />
<glyph unicode="&#xca;" horiz-adv-x="1204" d="M143 0l306 1440h960l-39 -185h-737l-88 -411h557l-39 -182h-557l-100 -480h776l-39 -182h-1000zM641 1565l317 305h162l193 -305h-142l-149 161l-213 -161h-168z" />
<glyph unicode="&#xcb;" horiz-adv-x="1204" d="M143 0l306 1440h960l-39 -185h-737l-88 -411h557l-39 -182h-557l-100 -480h776l-39 -182h-1000zM707 1677q0 44 32 76.5t76 32.5q43 0 75 -32.5t32 -76.5q0 -43 -32 -74.5t-75 -31.5q-44 0 -76 31.5t-32 74.5zM1096 1677q0 45 31 77t75 32t75.5 -32.5t31.5 -76.5 q0 -43 -31.5 -74.5t-75.5 -31.5t-75 31.5t-31 74.5z" />
<glyph unicode="&#xcc;" horiz-adv-x="503" d="M143 0l306 1440h223l-307 -1440h-222zM291 1868h254l139 -307h-131z" />
<glyph unicode="&#xcd;" horiz-adv-x="503" d="M143 0l306 1440h223l-307 -1440h-222zM444 1565l269 305h291l-394 -305h-166z" />
<glyph unicode="&#xce;" horiz-adv-x="503" d="M143 0l306 1440h223l-307 -1440h-222zM233 1565l320 305h160l194 -305h-143l-150 161l-211 -161h-170z" />
<glyph unicode="&#xcf;" horiz-adv-x="503" d="M143 0l306 1440h223l-307 -1440h-222zM299 1677q0 44 31.5 76.5t75.5 32.5t75 -32t31 -77q0 -43 -31 -74.5t-75 -31.5t-75.5 31.5t-31.5 74.5zM686 1677q0 44 32 76.5t75 32.5q44 0 76 -32.5t32 -76.5q0 -43 -32 -74.5t-76 -31.5q-43 0 -75 31.5t-32 74.5z" />
<glyph unicode="&#xd0;" horiz-adv-x="1435" d="M41 674l35 168h145l127 598h453q290 0 431.5 -134.5t141.5 -377.5q0 -202 -57 -371t-165 -293.5t-275 -194t-377 -69.5h-457l143 674h-145zM307 186h215q127 0 231 39.5t176 108t121.5 162.5t72 201.5t22.5 226.5q0 167 -92 248t-287 81h-231l-89 -411h334l-35 -168h-333 z" />
<glyph unicode="&#xd1;" horiz-adv-x="1441" d="M143 0l306 1440h223l473 -1135l241 1135h222l-305 -1440h-224l-473 1130l-241 -1130h-222zM694 1608q30 101 100 171t162 70q45 0 87.5 -17t69.5 -37t58 -37t56 -17q35 0 60 27t46 77l127 -8q-36 -108 -105 -177t-157 -69q-43 0 -85.5 17.5t-70.5 39t-60 39t-56 17.5 q-61 0 -103 -102z" />
<glyph unicode="&#xd2;" horiz-adv-x="1478" d="M229 512q0 146 35 285.5t105.5 261t167.5 213.5t230 145t284 53q103 0 187 -27t142.5 -75t98 -115.5t57.5 -146.5t18 -170q0 -143 -34 -282t-103 -263t-165.5 -218t-230.5 -149t-288 -55q-129 0 -227.5 42.5t-158 118t-89 172t-29.5 210.5zM459 530q0 -169 76.5 -270.5 t232.5 -101.5q102 0 193 48.5t155.5 127t112.5 177.5t71 201.5t23 196.5q0 79 -17.5 145.5t-53 118.5t-96.5 81.5t-142 29.5q-88 0 -166.5 -34t-138.5 -91.5t-108 -133t-78.5 -160t-47 -170t-16.5 -165.5zM756 1868h256l137 -307h-129z" />
<glyph unicode="&#xd3;" horiz-adv-x="1478" d="M229 512q0 146 35 285.5t105.5 261t167.5 213.5t230 145t284 53q103 0 187 -27t142.5 -75t98 -115.5t57.5 -146.5t18 -170q0 -143 -34 -282t-103 -263t-165.5 -218t-230.5 -149t-288 -55q-129 0 -227.5 42.5t-158 118t-89 172t-29.5 210.5zM459 530q0 -169 76.5 -270.5 t232.5 -101.5q102 0 193 48.5t155.5 127t112.5 177.5t71 201.5t23 196.5q0 79 -17.5 145.5t-53 118.5t-96.5 81.5t-142 29.5q-88 0 -166.5 -34t-138.5 -91.5t-108 -133t-78.5 -160t-47 -170t-16.5 -165.5zM950 1565l269 305h290l-393 -305h-166z" />
<glyph unicode="&#xd4;" horiz-adv-x="1478" d="M229 512q0 146 35 285.5t105.5 261t167.5 213.5t230 145t284 53q103 0 187 -27t142.5 -75t98 -115.5t57.5 -146.5t18 -170q0 -143 -34 -282t-103 -263t-165.5 -218t-230.5 -149t-288 -55q-129 0 -227.5 42.5t-158 118t-89 172t-29.5 210.5zM459 530q0 -169 76.5 -270.5 t232.5 -101.5q102 0 193 48.5t155.5 127t112.5 177.5t71 201.5t23 196.5q0 79 -17.5 145.5t-53 118.5t-96.5 81.5t-142 29.5q-88 0 -166.5 -34t-138.5 -91.5t-108 -133t-78.5 -160t-47 -170t-16.5 -165.5zM717 1565l319 305h160l195 -305h-144l-149 161l-211 -161h-170z" />
<glyph unicode="&#xd5;" horiz-adv-x="1478" d="M229 512q0 146 35 285.5t105.5 261t167.5 213.5t230 145t284 53q103 0 187 -27t142.5 -75t98 -115.5t57.5 -146.5t18 -170q0 -143 -34 -282t-103 -263t-165.5 -218t-230.5 -149t-288 -55q-129 0 -227.5 42.5t-158 118t-89 172t-29.5 210.5zM459 530q0 -169 76.5 -270.5 t232.5 -101.5q102 0 193 48.5t155.5 127t112.5 177.5t71 201.5t23 196.5q0 79 -17.5 145.5t-53 118.5t-96.5 81.5t-142 29.5q-88 0 -166.5 -34t-138.5 -91.5t-108 -133t-78.5 -160t-47 -170t-16.5 -165.5zM721 1608q30 101 100 171t160 70q46 0 89 -17t69.5 -37t57.5 -37 t56 -17q64 0 105 104l127 -8q-36 -109 -104 -177.5t-158 -68.5q-43 0 -85.5 17.5t-71 39t-60.5 39t-56 17.5q-33 0 -57 -25t-45 -77z" />
<glyph unicode="&#xd6;" horiz-adv-x="1482" d="M229 512q0 146 35 285.5t105.5 261t167.5 213.5t230 145t284 53q103 0 187 -27t142.5 -75t98 -115.5t57.5 -146.5t18 -170q0 -143 -34 -282t-103 -263t-165.5 -218t-230.5 -149t-288 -55q-129 0 -227.5 42.5t-158 118t-89 172t-29.5 210.5zM459 530q0 -169 76.5 -270.5 t232.5 -101.5q102 0 193 48.5t155.5 127t112.5 177.5t71 201.5t23 196.5q0 79 -17.5 145.5t-53 118.5t-96.5 81.5t-142 29.5q-88 0 -166.5 -34t-138.5 -91.5t-108 -133t-78.5 -160t-47 -170t-16.5 -165.5zM795 1677q0 45 31 77t75 32t75.5 -32.5t31.5 -76.5 q0 -43 -31.5 -74.5t-75.5 -31.5t-75 31.5t-31 74.5zM1182 1677q0 44 31.5 76.5t74.5 32.5q44 0 76.5 -32.5t32.5 -76.5q0 -43 -32.5 -74.5t-76.5 -31.5q-43 0 -74.5 31.5t-31.5 74.5z" />
<glyph unicode="&#xd7;" horiz-adv-x="1232" d="M37 184l450 371l-288 367l139 108l285 -362l460 379l111 -136l-463 -383l291 -370l-137 -109l-291 369l-447 -369z" />
<glyph unicode="&#xd8;" horiz-adv-x="1583" d="M229 -39l158 189q-102 140 -102 360q0 139 34 276.5t103.5 260.5t165 217.5t227.5 150t283 55.5q196 0 315 -86l107 127l135 -36l-148 -181q103 -138 103 -356q0 -140 -33.5 -278t-102 -262.5t-163 -220t-227.5 -152t-285 -56.5q-199 0 -322 90l-112 -135zM514 535 q0 -112 33 -191l723 866q-77 74 -205 74q-102 0 -192 -48t-154.5 -126t-111.5 -176.5t-70 -201t-23 -197.5zM623 231q79 -73 204 -73q84 0 161 34t136 91.5t108 133t80.5 158.5t48.5 168t17 162q0 115 -35 195z" />
<glyph unicode="&#xd9;" horiz-adv-x="1439" d="M217 377q0 130 35 282l166 781h223l-182 -856q-23 -108 -23 -183q0 -116 61 -178.5t205 -62.5q98 0 173 31t124 88.5t79.5 127t49.5 160.5l187 873h221l-162 -764q-28 -129 -62.5 -228.5t-91.5 -192.5t-131 -153.5t-180.5 -96.5t-240.5 -36q-124 0 -213 29t-140.5 84.5 t-74.5 128t-23 166.5zM692 1868h256l137 -307h-129z" />
<glyph unicode="&#xda;" horiz-adv-x="1439" d="M217 377q0 130 35 282l166 781h223l-182 -856q-23 -108 -23 -183q0 -116 61 -178.5t205 -62.5q98 0 173 31t124 88.5t79.5 127t49.5 160.5l187 873h221l-162 -764q-28 -129 -62.5 -228.5t-91.5 -192.5t-131 -153.5t-180.5 -96.5t-240.5 -36q-124 0 -213 29t-140.5 84.5 t-74.5 128t-23 166.5zM866 1565l269 305h288l-391 -305h-166z" />
<glyph unicode="&#xdb;" horiz-adv-x="1439" d="M217 377q0 130 35 282l166 781h223l-182 -856q-23 -108 -23 -183q0 -116 61 -178.5t205 -62.5q98 0 173 31t124 88.5t79.5 127t49.5 160.5l187 873h221l-162 -764q-28 -129 -62.5 -228.5t-91.5 -192.5t-131 -153.5t-180.5 -96.5t-240.5 -36q-124 0 -213 29t-140.5 84.5 t-74.5 128t-23 166.5zM664 1565l319 305h160l194 -305h-143l-150 161l-210 -161h-170z" />
<glyph unicode="&#xdc;" horiz-adv-x="1439" d="M217 377q0 130 35 282l166 781h223l-182 -856q-23 -108 -23 -183q0 -116 61 -178.5t205 -62.5q98 0 173 31t124 88.5t79.5 127t49.5 160.5l187 873h221l-162 -764q-28 -129 -62.5 -228.5t-91.5 -192.5t-131 -153.5t-180.5 -96.5t-240.5 -36q-124 0 -213 29t-140.5 84.5 t-74.5 128t-23 166.5zM700 1677q0 44 31.5 76.5t75.5 32.5t75 -32t31 -77q0 -43 -31 -74.5t-75 -31.5t-75.5 31.5t-31.5 74.5zM1087 1677q0 44 31.5 76.5t75.5 32.5t76.5 -32.5t32.5 -76.5q0 -43 -32.5 -74.5t-76.5 -31.5t-75.5 31.5t-31.5 74.5z" />
<glyph unicode="&#xdd;" horiz-adv-x="1339" d="M336 1440h233l244 -682l539 682h272l-737 -879l-119 -561h-221l123 582zM852 1565l268 305h291l-393 -305h-166z" />
<glyph unicode="&#xde;" horiz-adv-x="1312" d="M0 0l305 1440h223l-49 -234h350q213 0 333 -83.5t120 -248.5q0 -234 -170.5 -384t-447.5 -150h-369l-74 -340h-221zM332 518h340q174 0 278.5 88.5t104.5 243.5q0 180 -271 180h-344z" />
<glyph unicode="&#xdf;" horiz-adv-x="1177" d="M143 -207l252 1188q27 122 66 210.5t99.5 155.5t148 100.5t202.5 33.5q165 0 252.5 -85t87.5 -210q0 -118 -69 -221.5t-187 -147.5q99 -32 154 -116.5t55 -198.5q0 -105 -38.5 -200t-107.5 -168t-174.5 -116t-230.5 -43q-35 0 -73 10t-56 23l35 174q45 -28 113 -28 q141 0 228 96.5t87 238.5q0 102 -80 166t-235 70l35 166q73 0 143 24q87 27 137.5 91.5t50.5 156.5q0 68 -41 108t-118 40q-200 0 -269 -328l-241 -1139z" />
<glyph unicode="&#xe0;" d="M154 231q0 80 38 156t107 136t175.5 97t232.5 37q80 0 190 -20q8 19 14 59q15 58 15 84q0 115 -166 115q-170 0 -293 -145l-129 102q165 211 455 211q160 0 251 -69.5t91 -186.5q0 -28 -7 -68l-127 -596q-2 -6 -2 -18q0 -31 39 -31h29l-18 -94h-177q-40 0 -64 21t-24 61 q0 3 1 11.5t1 12.5l5 13q-67 -67 -158 -105.5t-191 -38.5q-130 0 -209 70t-79 186zM346 262q0 -57 41 -90t109 -33q86 0 184 52t151 135l35 157q-10 5 -30 13q-62 12 -134 12q-153 0 -254.5 -74.5t-101.5 -171.5zM500 1487h254l139 -305h-131z" />
<glyph unicode="&#xe1;" d="M154 231q0 80 38 156t107 136t175.5 97t232.5 37q80 0 190 -20q8 19 14 59q15 58 15 84q0 115 -166 115q-170 0 -293 -145l-129 102q165 211 455 211q160 0 251 -69.5t91 -186.5q0 -28 -7 -68l-127 -596q-2 -6 -2 -18q0 -31 39 -31h29l-18 -94h-177q-40 0 -64 21t-24 61 q0 3 1 11.5t1 12.5l5 13q-67 -67 -158 -105.5t-191 -38.5q-130 0 -209 70t-79 186zM346 262q0 -57 41 -90t109 -33q86 0 184 52t151 135l35 157q-10 5 -30 13q-62 12 -134 12q-153 0 -254.5 -74.5t-101.5 -171.5zM668 1180l268 307h289l-394 -307h-163z" />
<glyph unicode="&#xe2;" d="M154 231q0 80 38 156t107 136t175.5 97t232.5 37q80 0 190 -20q8 19 14 59q15 58 15 84q0 115 -166 115q-170 0 -293 -145l-129 102q165 211 455 211q160 0 251 -69.5t91 -186.5q0 -28 -7 -68l-127 -596q-2 -6 -2 -18q0 -31 39 -31h29l-18 -94h-177q-40 0 -64 21t-24 61 q0 3 1 11.5t1 12.5l5 13q-67 -67 -158 -105.5t-191 -38.5q-130 0 -209 70t-79 186zM346 262q0 -57 41 -90t109 -33q86 0 184 52t151 135l35 157q-10 5 -30 13q-62 12 -134 12q-153 0 -254.5 -74.5t-101.5 -171.5zM473 1188l320 305h159l195 -305h-143l-150 162l-211 -162 h-170z" />
<glyph unicode="&#xe3;" d="M154 231q0 80 38 156t107 136t175.5 97t232.5 37q80 0 190 -20q8 19 14 59q15 58 15 84q0 115 -166 115q-170 0 -293 -145l-129 102q165 211 455 211q160 0 251 -69.5t91 -186.5q0 -28 -7 -68l-127 -596q-2 -6 -2 -18q0 -31 39 -31h29l-18 -94h-177q-40 0 -64 21t-24 61 q0 3 1 11.5t1 12.5l5 13q-67 -67 -158 -105.5t-191 -38.5q-130 0 -209 70t-79 186zM346 262q0 -57 41 -90t109 -33q86 0 184 52t151 135l35 157q-10 5 -30 13q-62 12 -134 12q-153 0 -254.5 -74.5t-101.5 -171.5zM457 1217q28 101 98 172t162 71q45 0 87.5 -17t69 -38 t57.5 -38t56 -17q66 0 107 104l127 -8q-35 -108 -104.5 -176t-158.5 -68q-43 0 -85.5 17.5t-70 39t-59.5 39t-57 17.5q-32 0 -56.5 -26.5t-45.5 -78.5z" />
<glyph unicode="&#xe4;" d="M154 231q0 80 38 156t107 136t175.5 97t232.5 37q80 0 190 -20q8 19 14 59q15 58 15 84q0 115 -166 115q-170 0 -293 -145l-129 102q165 211 455 211q160 0 251 -69.5t91 -186.5q0 -28 -7 -68l-127 -596q-2 -6 -2 -18q0 -31 39 -31h29l-18 -94h-177q-40 0 -64 21t-24 61 q0 3 1 11.5t1 12.5l5 13q-67 -67 -158 -105.5t-191 -38.5q-130 0 -209 70t-79 186zM346 262q0 -57 41 -90t109 -33q86 0 184 52t151 135l35 157q-10 5 -30 13q-62 12 -134 12q-153 0 -254.5 -74.5t-101.5 -171.5zM551 1370q0 44 32 75.5t76 31.5q43 0 75 -31.5t32 -75.5 t-32 -75t-75 -31q-44 0 -76 31t-32 75zM940 1370q0 44 31.5 75.5t75.5 31.5t75 -31.5t31 -75.5t-31 -75t-75 -31t-75.5 31t-31.5 75z" />
<glyph unicode="&#xe5;" d="M154 231q0 80 38 156t107 136t175.5 97t232.5 37q80 0 190 -20q8 19 14 59q15 58 15 84q0 115 -166 115q-170 0 -293 -145l-129 102q165 211 455 211q160 0 251 -69.5t91 -186.5q0 -28 -7 -68l-127 -596q-2 -6 -2 -18q0 -31 39 -31h29l-18 -94h-177q-40 0 -64 21t-24 61 q0 3 1 11.5t1 12.5l5 13q-67 -67 -158 -105.5t-191 -38.5q-130 0 -209 70t-79 186zM346 262q0 -57 41 -90t109 -33q86 0 184 52t151 135l35 157q-10 5 -30 13q-62 12 -134 12q-153 0 -254.5 -74.5t-101.5 -171.5zM614 1399q0 89 62 151t153 62q92 0 155 -62t63 -151 q0 -90 -63 -152.5t-155 -62.5q-90 0 -152.5 62.5t-62.5 152.5zM721 1399q0 -48 30.5 -80.5t77.5 -32.5q49 0 79 32.5t30 80.5t-30 79t-79 31q-47 0 -77.5 -31.5t-30.5 -78.5z" />
<glyph unicode="&#xe6;" horiz-adv-x="1789" d="M154 231q0 80 38.5 156t107 136t175.5 97t234 37q79 0 192 -20q0 6 6 33q1 3 13 49q8 46 8 63q0 57 -43 89t-123 32q-176 0 -295 -143l-125 90q172 213 453 213q109 0 189.5 -35.5t117.5 -99.5q154 133 354 133q179 0 274 -102t95 -279q0 -120 -33 -207h-717 q-10 -58 -10 -102q0 -102 49.5 -164t157.5 -62q81 0 156.5 35.5t160.5 112.5l127 -119q-189 -199 -481 -199q-241 0 -334 193q-177 -191 -452 -191q-134 0 -214.5 69.5t-80.5 184.5zM362 262q0 -56 38.5 -89.5t105.5 -33.5q95 0 188.5 54t161.5 159q0 4 -1 11.5t-1 11.5 q0 46 10 108q-46 25 -147 25q-154 0 -254.5 -74t-100.5 -172zM1108 621h514q2 20 2 61q0 215 -194 215q-109 0 -194 -73.5t-128 -202.5z" />
<glyph unicode="&#xe7;" horiz-adv-x="1056" d="M193 375q0 131 40 253.5t112.5 220t185.5 156t249 58.5q141 0 233.5 -62t137.5 -151l-166 -96q-64 137 -203 137q-81 0 -152.5 -50t-118.5 -126.5t-74 -165.5t-27 -170q0 -104 45.5 -169t148.5 -65q145 0 273 150l145 -105q-68 -88 -171.5 -149t-238.5 -66l-59 -96 q46 17 86 17q53 0 87 -28t34 -79q0 -68 -43 -116.5t-103.5 -69.5t-126.5 -21q-81 0 -168 41l35 72q60 -31 121 -31q51 0 93 22t42 68q0 23 -16 37t-47 14q-36 0 -72 -22l-63 18l114 176q-159 20 -246 128.5t-87 269.5z" />
<glyph unicode="&#xe8;" horiz-adv-x="1124" d="M195 381q0 102 25 201t75 185.5t119 152t164 103.5t204 38q183 0 281 -105t98 -276q0 -119 -33 -209h-714q-11 -61 -11 -100q0 -104 49 -166t158 -62q83 0 159.5 34.5t160.5 111.5l123 -115q-191 -201 -473 -201q-127 0 -215.5 55t-129 145t-40.5 208zM440 618h508 q4 23 4 62q0 217 -194 217q-100 0 -188 -75.5t-130 -203.5zM522 1487h256l137 -305h-131z" />
<glyph unicode="&#xe9;" horiz-adv-x="1124" d="M195 381q0 102 25 201t75 185.5t119 152t164 103.5t204 38q183 0 281 -105t98 -276q0 -119 -33 -209h-714q-11 -61 -11 -100q0 -104 49 -166t158 -62q83 0 159.5 34.5t160.5 111.5l123 -115q-191 -201 -473 -201q-127 0 -215.5 55t-129 145t-40.5 208zM440 618h508 q4 23 4 62q0 217 -194 217q-100 0 -188 -75.5t-130 -203.5zM670 1180l268 307h291l-393 -307h-166z" />
<glyph unicode="&#xea;" horiz-adv-x="1124" d="M195 381q0 102 25 201t75 185.5t119 152t164 103.5t204 38q183 0 281 -105t98 -276q0 -119 -33 -209h-714q-11 -61 -11 -100q0 -104 49 -166t158 -62q83 0 159.5 34.5t160.5 111.5l123 -115q-191 -201 -473 -201q-127 0 -215.5 55t-129 145t-40.5 208zM440 618h508 q4 23 4 62q0 217 -194 217q-100 0 -188 -75.5t-130 -203.5zM477 1188l318 305h161l193 -305h-141l-152 162l-211 -162h-168z" />
<glyph unicode="&#xeb;" horiz-adv-x="1124" d="M195 381q0 102 25 201t75 185.5t119 152t164 103.5t204 38q183 0 281 -105t98 -276q0 -119 -33 -209h-714q-11 -61 -11 -100q0 -104 49 -166t158 -62q83 0 159.5 34.5t160.5 111.5l123 -115q-191 -201 -473 -201q-127 0 -215.5 55t-129 145t-40.5 208zM440 618h508 q4 23 4 62q0 217 -194 217q-100 0 -188 -75.5t-130 -203.5zM555 1370q0 44 31.5 75.5t75.5 31.5t75 -31.5t31 -75.5t-31 -75t-75 -31t-75.5 31t-31.5 75zM942 1370q0 44 31.5 75.5t75.5 31.5t76 -31.5t32 -75.5t-32 -75t-76 -31t-75.5 31t-31.5 75z" />
<glyph unicode="&#xec;" horiz-adv-x="518" d="M168 0l217 1036h209l-217 -1036h-209zM213 1487h256l137 -305h-129z" />
<glyph unicode="&#xed;" horiz-adv-x="518" d="M168 0l217 1036h209l-217 -1036h-209zM391 1180l268 307h291l-393 -307h-166z" />
<glyph unicode="&#xee;" horiz-adv-x="518" d="M168 1188l317 305h160l195 -305h-142l-151 162l-211 -162h-168zM176 0l217 1036h209l-217 -1036h-209z" />
<glyph unicode="&#xef;" horiz-adv-x="518" d="M168 0l217 1036h209l-217 -1036h-209zM231 1370q0 44 31.5 75.5t75.5 31.5t75 -31.5t31 -75.5t-31 -75t-75 -31t-75.5 31t-31.5 75zM598 1370q0 44 32.5 75.5t76.5 31.5q43 0 74.5 -31.5t31.5 -75.5t-31.5 -75t-74.5 -31q-45 0 -77 31t-32 75z" />
<glyph unicode="&#xf0;" horiz-adv-x="1193" d="M63 367q0 119 43 233.5t117 204.5t182.5 145.5t231.5 55.5q192 0 274 -127q-18 163 -106 284l-215 -102l-70 96l193 88q-63 54 -150 82l84 137q88 -39 138 -67t92 -66l155 74l70 -94l-144 -68q129 -182 129 -459q0 -118 -23 -231.5t-74 -218.5t-124 -184t-180.5 -126 t-236.5 -47q-181 0 -283.5 108t-102.5 282zM276 371q0 -105 54.5 -164.5t150.5 -59.5q84 0 154.5 41t115 106.5t69 145t24.5 160.5q0 48 -10.5 88t-33.5 75t-66 55t-103 20q-82 0 -151.5 -43.5t-112.5 -112.5t-67 -150.5t-24 -160.5z" />
<glyph unicode="&#xf1;" horiz-adv-x="1292" d="M143 0l222 1036h210l-26 -116q128 141 319 141q152 0 222.5 -76t70.5 -211q0 -68 -16 -153l-133 -621h-213l129 606q14 75 14 123q0 73 -36 112.5t-120 39.5q-115 0 -199.5 -93t-117.5 -247l-115 -541h-211zM449 1217q30 101 100.5 172t161.5 71q44 0 86.5 -17t69.5 -38 t58 -38t56 -17q63 0 104 104l127 -8q-36 -109 -104 -176.5t-158 -67.5q-43 0 -85.5 17.5t-70 39t-59.5 39t-57 17.5q-60 0 -103 -105z" />
<glyph unicode="&#xf2;" horiz-adv-x="1306" d="M193 375q0 133 41 255.5t116 218.5t191 154t256 58q187 0 293 -111.5t106 -294.5q0 -104 -24.5 -202.5t-74.5 -185.5t-120.5 -152.5t-169.5 -103.5t-215 -38q-185 0 -292 109.5t-107 292.5zM408 379q0 -115 52.5 -174.5t149.5 -59.5q90 0 163 48.5t116.5 125t66.5 163.5 t23 173q0 49 -10 89.5t-32 75t-63 54t-98 19.5q-86 0 -158 -49.5t-116.5 -126.5t-69 -165.5t-24.5 -172.5zM524 1487h254l137 -305h-129z" />
<glyph unicode="&#xf3;" horiz-adv-x="1306" d="M193 375q0 133 41 255.5t116 218.5t191 154t256 58q187 0 293 -111.5t106 -294.5q0 -104 -24.5 -202.5t-74.5 -185.5t-120.5 -152.5t-169.5 -103.5t-215 -38q-185 0 -292 109.5t-107 292.5zM408 379q0 -115 52.5 -174.5t149.5 -59.5q90 0 163 48.5t116.5 125t66.5 163.5 t23 173q0 49 -10 89.5t-32 75t-63 54t-98 19.5q-86 0 -158 -49.5t-116.5 -126.5t-69 -165.5t-24.5 -172.5zM733 1180l268 307h289l-393 -307h-164z" />
<glyph unicode="&#xf4;" horiz-adv-x="1306" d="M193 375q0 133 41 255.5t116 218.5t191 154t256 58q187 0 293 -111.5t106 -294.5q0 -104 -24.5 -202.5t-74.5 -185.5t-120.5 -152.5t-169.5 -103.5t-215 -38q-185 0 -292 109.5t-107 292.5zM408 379q0 -115 52.5 -174.5t149.5 -59.5q90 0 163 48.5t116.5 125t66.5 163.5 t23 173q0 49 -10 89.5t-32 75t-63 54t-98 19.5q-86 0 -158 -49.5t-116.5 -126.5t-69 -165.5t-24.5 -172.5zM498 1188l319 305h160l194 -305h-143l-149 162l-211 -162h-170z" />
<glyph unicode="&#xf5;" horiz-adv-x="1306" d="M193 375q0 133 41 255.5t116 218.5t191 154t256 58q187 0 293 -111.5t106 -294.5q0 -104 -24.5 -202.5t-74.5 -185.5t-120.5 -152.5t-169.5 -103.5t-215 -38q-185 0 -292 109.5t-107 292.5zM408 379q0 -115 52.5 -174.5t149.5 -59.5q90 0 163 48.5t116.5 125t66.5 163.5 t23 173q0 49 -10 89.5t-32 75t-63 54t-98 19.5q-86 0 -158 -49.5t-116.5 -126.5t-69 -165.5t-24.5 -172.5zM502 1217q28 101 98 172t162 71q45 0 87.5 -17t69 -38t57.5 -38t56 -17q66 0 107 104l127 -8q-35 -108 -104 -176t-158 -68q-43 0 -85.5 17.5t-71 39t-60.5 39 t-56 17.5q-32 0 -56.5 -26.5t-45.5 -78.5z" />
<glyph unicode="&#xf6;" horiz-adv-x="1306" d="M193 375q0 133 41 255.5t116 218.5t191 154t256 58q187 0 293 -111.5t106 -294.5q0 -104 -24.5 -202.5t-74.5 -185.5t-120.5 -152.5t-169.5 -103.5t-215 -38q-185 0 -292 109.5t-107 292.5zM408 379q0 -115 52.5 -174.5t149.5 -59.5q90 0 163 48.5t116.5 125t66.5 163.5 t23 173q0 49 -10 89.5t-32 75t-63 54t-98 19.5q-86 0 -158 -49.5t-116.5 -126.5t-69 -165.5t-24.5 -172.5zM555 1370q0 44 32 75.5t75 31.5q44 0 76 -31.5t32 -75.5t-32 -75t-76 -31q-43 0 -75 31t-32 75zM944 1370q0 44 31.5 75.5t75.5 31.5t75 -31.5t31 -75.5t-31 -75 t-75 -31t-75.5 31t-31.5 75z" />
<glyph unicode="&#xf7;" horiz-adv-x="1306" d="M53 559l37 176h1137l-37 -176h-1137zM424 201q0 56 39 94.5t96 38.5q55 0 94 -39t39 -94t-39 -94t-94 -39q-57 0 -96 38.5t-39 94.5zM584 1094q0 55 39.5 94t95.5 39q55 0 94 -38.5t39 -94.5t-39 -94.5t-94 -38.5q-56 0 -95.5 39t-39.5 94z" />
<glyph unicode="&#xf8;" horiz-adv-x="1157" d="M193 377q0 132 41 254.5t116 219t191 154.5t256 58q103 0 186 -39l68 94l141 -28l-102 -142q106 -109 106 -291q0 -104 -24.5 -203t-74.5 -186.5t-120.5 -153t-169.5 -103.5t-215 -38q-108 0 -186 37l-70 -94l-141 29l102 141q-104 107 -104 291zM408 379q0 -67 18 -117 l446 612q-51 19 -94 19h-2q-85 0 -157 -49.5t-117 -126.5t-69.5 -165.5t-24.5 -172.5zM516 164q46 -19 94 -19q90 0 163 48.5t116.5 125t66.5 163.5t23 173q0 65 -18 117z" />
<glyph unicode="&#xf9;" horiz-adv-x="1251" d="M195 264q0 71 18 154l131 618h213l-127 -606q-16 -69 -16 -121q0 -75 36 -114t121 -39q115 0 199 93.5t117 246.5l114 540h211l-221 -1036h-211l27 119q-124 -144 -318 -144q-152 0 -223 76.5t-71 212.5zM489 1487h256l138 -305h-129z" />
<glyph unicode="&#xfa;" horiz-adv-x="1251" d="M195 264q0 71 18 154l131 618h213l-127 -606q-16 -69 -16 -121q0 -75 36 -114t121 -39q115 0 199 93.5t117 246.5l114 540h211l-221 -1036h-211l27 119q-124 -144 -318 -144q-152 0 -223 76.5t-71 212.5zM678 1180l268 307h291l-393 -307h-166z" />
<glyph unicode="&#xfb;" horiz-adv-x="1251" d="M195 264q0 71 18 154l131 618h213l-127 -606q-16 -69 -16 -121q0 -75 36 -114t121 -39q115 0 199 93.5t117 246.5l114 540h211l-221 -1036h-211l27 119q-124 -144 -318 -144q-152 0 -223 76.5t-71 212.5zM475 1188l318 305h161l193 -305h-141l-150 162l-213 -162h-168z " />
<glyph unicode="&#xfc;" horiz-adv-x="1251" d="M195 264q0 71 18 154l131 618h213l-127 -606q-16 -69 -16 -121q0 -75 36 -114t121 -39q115 0 199 93.5t117 246.5l114 540h211l-221 -1036h-211l27 119q-124 -144 -318 -144q-152 0 -223 76.5t-71 212.5zM532 1370q0 44 31.5 75.5t75.5 31.5t75 -31.5t31 -75.5t-31 -75 t-75 -31t-75.5 31t-31.5 75zM920 1370q0 44 32 75.5t76 31.5q43 0 75 -31.5t32 -75.5t-32 -75t-75 -31q-44 0 -76 31t-32 75z" />
<glyph unicode="&#xfd;" horiz-adv-x="1069" d="M-59 -399l59 153q41 -16 78 -16q77 0 123 78l98 178l-143 1042h204l86 -823l445 823h237l-782 -1321q-43 -71 -118.5 -108t-155.5 -37q-74 0 -131 31zM545 1180l268 307h291l-393 -307h-166z" />
<glyph unicode="&#xfe;" horiz-adv-x="1179" d="M-61 -414l397 1858h213l-113 -520q124 139 318 139q151 0 234 -102t83 -277q0 -94 -21 -192t-65 -191t-106 -166t-151.5 -117.5t-192.5 -44.5q-185 0 -271 144l-112 -531h-213zM313 348q15 -94 68 -147.5t135 -53.5q84 0 152 53t107 135t59 169t20 166q0 105 -44.5 162 t-135.5 57q-82 0 -159 -55t-130 -150z" />
<glyph unicode="&#xff;" horiz-adv-x="1062" d="M80 -399l61 153q39 -16 78 -16q75 0 121 78l100 178l-143 1042h205l84 -823l446 823h236l-783 -1321q-42 -71 -117.5 -108t-154.5 -37q-73 0 -133 31zM508 1370q0 44 32 75.5t76 31.5t75.5 -31.5t31.5 -75.5t-31.5 -75t-75.5 -31t-76 31t-32 75zM897 1370q0 44 31.5 75.5 t75.5 31.5t75 -31.5t31 -75.5t-31 -75t-75 -31t-75.5 31t-31.5 75z" />
<glyph unicode="&#x152;" horiz-adv-x="2123" d="M229 530q0 138 38.5 275.5t113.5 257t175.5 211.5t233 145.5t277.5 53.5q133 0 272 -33h988l-39 -185h-738l-86 -411h555l-39 -182h-555l-102 -480h776l-39 -182h-983q-155 -29 -321 -29q-132 0 -234.5 44t-165.5 121.5t-95 177t-32 216.5zM459 557q0 -175 87.5 -286 t250.5 -111q180 0 313 65l213 1008q-113 55 -272 55q-105 0 -200 -44.5t-165 -119t-122 -169t-78.5 -197.5t-26.5 -201z" />
<glyph unicode="&#x153;" horiz-adv-x="1880" d="M193 373q0 105 25.5 205t77 187.5t123 154t171.5 105t215 38.5q120 0 207 -47t133 -133q82 88 185 134t216 46q183 0 276 -105t93 -278q0 -120 -33 -207h-717q-10 -58 -10 -100q0 -103 48.5 -165.5t158.5 -62.5q171 0 326 140l118 -111q-189 -199 -475 -199 q-115 0 -200.5 46.5t-131.5 134.5q-166 -181 -413 -181q-185 0 -289 108t-104 290zM410 379q0 -114 53 -174t151 -60q65 0 124 32t102.5 84.5t76 118.5t48.5 136.5t16 136.5q0 50 -10 91t-32 75.5t-63.5 54t-99.5 19.5q-80 0 -150.5 -49.5t-116.5 -126t-72.5 -166 t-26.5 -172.5zM1198 621h514q2 20 2 61q0 215 -194 215q-109 0 -194 -73.5t-128 -202.5z" />
<glyph unicode="&#x178;" horiz-adv-x="1339" d="M336 1440h233l244 -682l539 682h272l-737 -879l-119 -561h-221l123 582zM676 1677q0 44 31.5 76.5t74.5 32.5q44 0 76.5 -32.5t32.5 -76.5q0 -43 -32.5 -74.5t-76.5 -31.5q-43 0 -74.5 31.5t-31.5 74.5zM1065 1677q0 45 31 77t75 32t75.5 -32.5t31.5 -76.5 q0 -43 -31.5 -74.5t-75.5 -31.5t-75 31.5t-31 74.5z" />
<glyph unicode="&#x2c6;" horiz-adv-x="958" d="M342 1188l317 305h162l193 -305h-142l-149 162l-213 -162h-168z" />
<glyph unicode="&#x2dc;" horiz-adv-x="1003" d="M305 1217q28 101 98 172t162 71q44 0 86.5 -17t69.5 -38t58.5 -38t56.5 -17q35 0 60 27t46 77l127 -8q-35 -108 -104 -176t-158 -68q-44 0 -86.5 17.5t-70.5 39t-59.5 39t-55.5 17.5q-60 0 -103 -105z" />
<glyph unicode="&#x2000;" horiz-adv-x="965" />
<glyph unicode="&#x2001;" horiz-adv-x="1931" />
<glyph unicode="&#x2002;" horiz-adv-x="965" />
<glyph unicode="&#x2003;" horiz-adv-x="1931" />
<glyph unicode="&#x2004;" horiz-adv-x="643" />
<glyph unicode="&#x2005;" horiz-adv-x="482" />
<glyph unicode="&#x2006;" horiz-adv-x="321" />
<glyph unicode="&#x2007;" horiz-adv-x="321" />
<glyph unicode="&#x2008;" horiz-adv-x="241" />
<glyph unicode="&#x2009;" horiz-adv-x="386" />
<glyph unicode="&#x200a;" horiz-adv-x="107" />
<glyph unicode="&#x2010;" horiz-adv-x="753" d="M238 604l43 199h536l-41 -199h-538z" />
<glyph unicode="&#x2011;" horiz-adv-x="753" d="M238 604l43 199h536l-41 -199h-538z" />
<glyph unicode="&#x2012;" horiz-adv-x="753" d="M238 604l43 199h536l-41 -199h-538z" />
<glyph unicode="&#x2013;" horiz-adv-x="1064" d="M238 604l43 199h847l-43 -199h-847z" />
<glyph unicode="&#x2014;" horiz-adv-x="1333" d="M238 604l43 199h1116l-43 -199h-1116z" />
<glyph unicode="&#x2018;" horiz-adv-x="516" d="M227 956l336 517l146 -31l-256 -486h-226z" />
<glyph unicode="&#x2019;" horiz-adv-x="602" d="M276 952l256 488h226l-336 -516z" />
<glyph unicode="&#x201a;" horiz-adv-x="538" d="M4 -274l256 485h225l-335 -516z" />
<glyph unicode="&#x201c;" horiz-adv-x="899" d="M227 956l336 517l146 -31l-256 -486h-226zM610 956l336 517l146 -31l-256 -486h-226z" />
<glyph unicode="&#x201d;" horiz-adv-x="983" d="M276 952l256 488h226l-336 -516zM659 952l256 488h226l-336 -516z" />
<glyph unicode="&#x201e;" horiz-adv-x="921" d="M4 -274l256 485h225l-335 -516zM387 -274l256 485h225l-336 -516z" />
<glyph unicode="&#x2022;" horiz-adv-x="821" d="M276 725q0 113 79.5 192.5t193.5 79.5t193 -79.5t79 -192.5q0 -114 -79 -193t-193 -79t-193.5 79t-79.5 193z" />
<glyph unicode="&#x2026;" horiz-adv-x="1234" d="M96 104q0 52 37 89.5t90 37.5t90 -37.5t37 -89.5t-37 -89.5t-90 -37.5t-90 37.5t-37 89.5zM506 104q0 53 36.5 90t90.5 37q53 0 90 -37.5t37 -89.5t-37 -89.5t-90 -37.5q-54 0 -90.5 37t-36.5 90zM913 104q0 52 37.5 89.5t89.5 37.5t89.5 -37.5t37.5 -89.5t-37.5 -89.5 t-89.5 -37.5t-89.5 37.5t-37.5 89.5z" />
<glyph unicode="&#x202f;" horiz-adv-x="386" />
<glyph unicode="&#x2039;" horiz-adv-x="653" d="M78 596l432 467l162 -55l-406 -430l230 -431h-181z" />
<glyph unicode="&#x203a;" horiz-adv-x="663" d="M0 147l432 459l-217 414l158 45l250 -477l-412 -441h-211z" />
<glyph unicode="&#x205f;" horiz-adv-x="482" />
<glyph unicode="&#x20ac;" horiz-adv-x="1460" d="M35 508l35 131h172q8 55 14 86q10 45 12 53h-176l35 133h184q98 254 291 406.5t445 152.5q201 0 323.5 -100.5t159.5 -271.5l-203 -70q-27 117 -102.5 186.5t-208.5 69.5q-150 0 -274 -102.5t-197 -270.5h485l-37 -133h-495q-15 -51 -17 -61q-9 -42 -12 -78h504l-37 -131 h-475q6 -159 83 -254.5t224 -95.5q108 0 203.5 54.5t167.5 147.5l168 -120q-215 -271 -566 -271q-131 0 -230.5 41t-159 115.5t-89 170t-29.5 212.5h-198z" />
<glyph unicode="&#x2122;" horiz-adv-x="1556" d="M272 1335l23 105h573l-22 -105h-223l-138 -641h-123l138 641h-228zM807 694l160 746h137l82 -570l323 570h150l-158 -746h-119l97 441q1 3 8 34t14 60.5t8 32.5l-88 -154l-239 -414h-64q-1 2 -32.5 229t-32.5 230q-1 6 -8 55t-7 54q0 -5 -10 -62.5t-12 -64.5l-92 -441 h-117z" />
<glyph unicode="&#xe000;" horiz-adv-x="1034" d="M0 0v1034h1034v-1034h-1034z" />
</font>
</defs>
</svg>
