<?xml version="1.0" standalone="no"?>
<!DOCTYPE svg PUBLIC "-//W3C//DTD SVG 1.1//EN" "http://www.w3.org/Graphics/SVG/1.1/DTD/svg11.dtd" >
<svg xmlns="http://www.w3.org/2000/svg">
<metadata></metadata>
<defs>
<font id="district_thin_italicThIt" horiz-adv-x="1222" >
<font-face units-per-em="2048" ascent="1638" descent="-410" />
<missing-glyph horiz-adv-x="659" />
<glyph unicode="&#xfb01;" horiz-adv-x="983" d="M238 0l202 950h-166l15 76h168l39 180q25 120 110.5 189t186.5 69q65 0 120 -30l-20 -93q-35 41 -98 41q-68 0 -130.5 -47t-78.5 -123l-39 -186h510l-217 -1026h-90l202 950h-422l-200 -950h-92z" />
<glyph unicode="&#xfb02;" horiz-adv-x="1058" d="M240 0l202 950h-168l17 76h166l39 180q27 122 101 190t165 68q60 0 115 -30l-19 -93q-35 41 -90 41q-59 0 -111 -46.5t-69 -123.5l-39 -186h237l-16 -76h-238l-202 -950h-90zM825 0l305 1440h91l-306 -1440h-90z" />
<glyph unicode="&#xd;" horiz-adv-x="2048" />
<glyph unicode=" "  horiz-adv-x="659" />
<glyph unicode="&#x09;" horiz-adv-x="659" />
<glyph unicode="&#xa0;" horiz-adv-x="659" />
<glyph unicode="!" horiz-adv-x="450" d="M154 61q0 34 24.5 58t59.5 24q34 0 57.5 -24t23.5 -58q0 -35 -23.5 -59.5t-57.5 -24.5q-35 0 -59.5 24.5t-24.5 59.5zM276 373l62 403l141 664h96l-141 -664l-112 -403h-46z" />
<glyph unicode="&#x22;" horiz-adv-x="641" d="M326 848l82 586v4q3 13 24 20.5t47 7.5q25 0 43.5 -8t18.5 -22v-4l-168 -584h-47zM627 848l82 586v4q3 13 24 20.5t47 7.5q25 0 43.5 -8t18.5 -22v-4l-168 -584h-47z" />
<glyph unicode="#" horiz-adv-x="1398" d="M244 471l16 78h303l84 397h-303l16 80h304l88 414h88l-88 -414h331l88 414h89l-89 -414h302l-17 -80h-301l-84 -397h301l-16 -78h-301l-101 -471h-90l101 471h-330l-100 -471h-89l99 471h-301zM651 549h332l84 397h-332z" />
<glyph unicode="$" horiz-adv-x="1118" d="M166 299l80 51q25 -143 108 -212.5t232 -69.5q189 0 304.5 96.5t115.5 228.5q0 94 -66.5 177t-198.5 135q-119 46 -193.5 88t-117 89t-57.5 96t-15 118q0 65 31.5 125.5t89.5 109t147.5 79t198.5 34.5l21 98h90l-21 -100q252 -22 351 -238l-76 -37q-70 201 -344 201 q-177 0 -288.5 -84t-111.5 -192q0 -111 68 -174.5t250 -131.5q165 -63 250.5 -170t85.5 -227q0 -156 -133.5 -271.5t-362.5 -127.5l-22 -99h-88l20 101q-141 12 -233.5 96.5t-114.5 210.5z" />
<glyph unicode="%" horiz-adv-x="1871" d="M297 860q0 77 17 158.5t52.5 160.5t85.5 141.5t122.5 101t156.5 38.5q125 0 186.5 -86.5t61.5 -226.5q0 -77 -16.5 -158.5t-52 -161.5t-85 -142.5t-122.5 -101t-158 -38.5q-121 0 -184.5 87t-63.5 228zM393 854q0 -45 8 -82t26 -69.5t52 -51t82 -18.5q64 0 119 36 t91.5 92.5t63 126.5t38.5 137.5t12 125.5q0 104 -41.5 163.5t-124.5 59.5q-63 0 -118 -36.5t-92.5 -93t-64 -127t-39 -138t-12.5 -125.5zM461 -51l1169 1560l78 -28l-1167 -1561zM1196 291q0 98 27.5 200t79 193t137 149t190.5 58q125 0 186.5 -86.5t61.5 -226.5 q0 -77 -16.5 -158.5t-52 -161t-85 -142t-122.5 -101t-158 -38.5q-121 0 -184.5 86.5t-63.5 227.5zM1292 285q0 -219 168 -219q64 0 119 36t91.5 92t63 126t38.5 137t12 125q0 104 -41.5 163.5t-126.5 59.5q-63 0 -117.5 -36t-91.5 -93t-63.5 -127.5t-39 -138t-12.5 -125.5z " />
<glyph unicode="&#x26;" horiz-adv-x="1288" d="M174 311q0 138 100.5 265.5t280.5 189.5l-76 111q-57 80 -57 188q0 76 33.5 146.5t98 128.5t172 93t243.5 35q127 0 230 -52.5t165 -158.5l-76 -53q-46 89 -130.5 139t-201.5 50q-109 0 -196.5 -28t-140 -75t-80 -104t-27.5 -119q0 -84 47 -152l479 -696q60 63 90 146h89 q-26 -113 -134 -213l105 -152h-105l-67 96q-183 -125 -408 -125q-209 0 -321.5 98t-112.5 242zM270 319q0 -116 84 -194t238 -78q224 0 379 115l-373 543q-155 -53 -241.5 -161.5t-86.5 -224.5z" />
<glyph unicode="'" horiz-adv-x="339" d="M326 848l82 586v4q3 13 24 20.5t47 7.5q25 0 43.5 -8t18.5 -22v-4l-168 -584h-47z" />
<glyph unicode="(" horiz-adv-x="657" d="M219 438q0 232 92.5 458.5t248 407t355.5 306.5l11 -64q-279 -230 -440.5 -524t-161.5 -629q0 -342 225 -620l-35 -54q-148 127 -221.5 317t-73.5 402z" />
<glyph unicode=")" horiz-adv-x="657" d="M14 -215q282 231 440 518.5t158 626.5q0 352 -221 629l35 51q148 -128 221.5 -318.5t73.5 -400.5q0 -232 -93 -458.5t-249 -406.5t-356 -307z" />
<glyph unicode="*" horiz-adv-x="817" d="M317 1008l299 106l-245 100l43 82l221 -147l35 291h92l-90 -295l264 153l39 -81l-297 -107l242 -106l-46 -80l-215 157l-36 -297h-93l91 295l-265 -155z" />
<glyph unicode="+" horiz-adv-x="1226" d="M231 610l19 80h469l100 473h84l-100 -473h469l-17 -80h-469l-102 -475h-84l102 475h-471z" />
<glyph unicode="," horiz-adv-x="360" d="M4 -225l176 352h125l-242 -375z" />
<glyph unicode="-" horiz-adv-x="653" d="M246 680l16 78h451l-17 -78h-450z" />
<glyph unicode="." horiz-adv-x="325" d="M92 61q0 34 24.5 58t59.5 24q34 0 58 -24t24 -58q0 -35 -24 -59.5t-58 -24.5q-35 0 -59.5 24.5t-24.5 59.5z" />
<glyph unicode="/" horiz-adv-x="1015" d="M31 -47l1171 1556l88 -26l-1171 -1559z" />
<glyph unicode="0" horiz-adv-x="1253" d="M225 467q0 107 19 219.5t56 225.5t97.5 212.5t136.5 176.5t180.5 122t223.5 45q191 0 294 -130t103 -361q0 -91 -13.5 -186.5t-42.5 -194t-70.5 -188.5t-101.5 -169.5t-130.5 -138t-162 -92t-193.5 -33.5q-190 0 -293 130.5t-103 361.5zM315 457q0 -190 79.5 -299 t240.5 -109q98 0 186 45t152.5 120.5t117 171.5t85.5 201t50 205.5t17 188.5q0 192 -80 302t-243 110q-98 0 -186 -45t-152.5 -121t-116.5 -172t-84 -201.5t-49 -206.5t-17 -190z" />
<glyph unicode="1" horiz-adv-x="706" d="M391 1163l15 66q79 6 136.5 24t94.5 49.5t58.5 62t41.5 75.5h72l-307 -1440h-88l262 1235q-117 -72 -285 -72z" />
<glyph unicode="2" horiz-adv-x="1138" d="M102 0q24 78 77 155t113.5 137.5t147 126t153.5 109t157 97.5q64 39 113.5 73.5t106 85.5t93.5 101t61.5 116t24.5 136q0 117 -84 185.5t-246 68.5q-79 0 -154.5 -36.5t-125 -83.5t-88.5 -104l-72 50q79 112 195.5 181.5t261.5 69.5q195 0 300 -95.5t105 -250.5 q0 -313 -442 -567q-75 -44 -134.5 -81t-131 -88t-124.5 -97.5t-100.5 -102t-72.5 -108.5h794l-16 -78h-912z" />
<glyph unicode="3" horiz-adv-x="1118" d="M137 264l78 43q13 -130 108.5 -195t229.5 -65q188 0 311 121t123 309q0 67 -26 114.5t-73.5 74t-103.5 38t-125 11.5h-147l16 76h136q87 0 164 21.5t140 63.5t99.5 113t36.5 162q0 104 -73 171t-216 67q-223 0 -360 -222l-70 47q82 124 186 187t242 63q185 0 285 -84 t100 -225q0 -156 -90 -259.5t-246 -141.5q104 -21 160.5 -96.5t56.5 -184.5q0 -118 -42.5 -213.5t-117.5 -157t-174 -94.5t-213 -33q-156 0 -265.5 75.5t-129.5 213.5z" />
<glyph unicode="4" horiz-adv-x="1265" d="M180 367l17 79l927 994h119l-213 -994h230l-19 -79h-227l-78 -367h-88l78 367h-746zM315 446h627l184 871z" />
<glyph unicode="5" horiz-adv-x="1175" d="M147 215l74 49q18 -44 41 -77.5t61.5 -66.5t97.5 -51t136 -18q222 0 372 151t150 371q0 135 -85 212t-242 77q-105 0 -214 -50.5t-186 -141.5l-69 24l211 746h782l-16 -78h-709l-176 -580q103 87 197 120.5t212 33.5q186 0 286.5 -96.5t100.5 -261.5q0 -179 -82.5 -317 t-226 -212t-323.5 -74q-144 0 -249.5 61.5t-142.5 178.5z" />
<glyph unicode="6" horiz-adv-x="1224" d="M209 418q0 134 36.5 278.5t108.5 280.5t169 244t229 173.5t276 65.5q70 0 142.5 -22t111.5 -54l-49 -63q-77 63 -234 63q-115 0 -224 -61t-195 -165t-152.5 -232t-110.5 -271q92 138 227.5 206.5t282.5 68.5q189 0 297.5 -103t108.5 -270q0 -174 -84 -308.5t-226 -206 t-317 -71.5q-108 0 -187.5 36t-124 100t-65 141t-20.5 170zM291 395q0 -45 9.5 -89.5t34 -92t61 -83t97 -58.5t136.5 -23q138 0 255.5 69t186 186.5t68.5 254.5t-89.5 215t-244.5 78q-124 0 -241.5 -59t-195 -166t-77.5 -232z" />
<glyph unicode="7" horiz-adv-x="1134" d="M373 0q222 731 837 1364h-837l16 76h930l-23 -99q-315 -318 -508 -639t-301 -702h-114z" />
<glyph unicode="8" horiz-adv-x="1189" d="M174 303q0 178 106.5 294.5t288.5 170.5q-96 37 -141 104.5t-45 155.5q0 104 44.5 189t119 139t167 83t193.5 29q177 0 272 -84t95 -217q0 -147 -89 -249t-237 -150q115 -38 173.5 -114t58.5 -183q0 -120 -49.5 -217t-132.5 -157.5t-188.5 -93t-221.5 -32.5 q-205 0 -309.5 92t-104.5 240zM268 309q0 -123 88 -192.5t248 -69.5q91 0 177.5 30t154.5 83.5t109.5 133.5t41.5 173q0 126 -93 195t-244 69q-121 0 -230 -51t-180.5 -149.5t-71.5 -221.5zM475 1034q0 -105 77.5 -169t213.5 -64q101 0 196 45.5t157.5 131t62.5 187.5 q0 101 -70.5 164.5t-220.5 63.5q-102 0 -196.5 -43.5t-157 -127.5t-62.5 -188z" />
<glyph unicode="9" horiz-adv-x="1224" d="M248 49l51 64q38 -32 101.5 -48t131.5 -16q115 0 223.5 61t194.5 164.5t153 231.5t111 270q-94 -136 -230 -204t-282 -68q-189 0 -296 102.5t-107 270.5q0 174 84 308t226 204.5t317 70.5q108 0 187.5 -36t124 -99.5t65 -140t20.5 -168.5q0 -134 -36.5 -279t-108.5 -281 t-169 -244.5t-229 -174.5t-276 -66q-70 0 -143 23t-113 55zM391 874q0 -137 90 -214.5t246 -77.5q73 0 147.5 22t139.5 64t115.5 97t80 126t29.5 147q0 45 -9.5 89.5t-34 92t-61 83t-96.5 58.5t-135 23q-139 0 -257 -69t-186.5 -186.5t-68.5 -254.5z" />
<glyph unicode=":" horiz-adv-x="362" d="M113 61q0 34 24.5 58t59.5 24q34 0 58 -24t24 -58q0 -35 -24 -59.5t-58 -24.5q-35 0 -59.5 24.5t-24.5 59.5zM297 944q0 34 24.5 58t59.5 24q34 0 58 -24t24 -58q0 -35 -24 -59.5t-58 -24.5q-35 0 -59.5 24.5t-24.5 59.5z" />
<glyph unicode=";" horiz-adv-x="370" d="M4 -225l176 352h125l-242 -375zM305 944q0 34 24 58t58 24q35 0 59.5 -24t24.5 -58q0 -35 -24.5 -59.5t-59.5 -24.5q-34 0 -58 24.5t-24 59.5z" />
<glyph unicode="&#x3c;" horiz-adv-x="1083" d="M221 657l25 113l1036 557l-25 -108l-960 -514l743 -512l-18 -91z" />
<glyph unicode="=" horiz-adv-x="1263" d="M188 403l17 80h1059l-17 -80h-1059zM276 821l19 80h1057l-17 -80h-1059z" />
<glyph unicode="&#x3e;" horiz-adv-x="1083" d="M104 102l23 111l963 512l-744 512l19 90l800 -553l-26 -115z" />
<glyph unicode="?" horiz-adv-x="1036" d="M340 1212q116 141 226 195.5t265 54.5q169 0 267 -85t98 -220q0 -34 -4 -65t-15 -59.5t-20.5 -51.5t-29.5 -48t-33.5 -42t-41.5 -40t-43 -35.5t-49.5 -35.5t-50 -33t-53.5 -34q-57 -37 -93 -65.5t-62 -55t-42 -59.5t-26.5 -66t-22.5 -88h-90q30 141 84.5 224t194.5 173 q13 8 50 31t51 32t45.5 30.5t45 35.5t36.5 37t33.5 43.5t23.5 47.5t17.5 57.5t4.5 64.5q0 100 -69.5 164.5t-205.5 64.5q-133 0 -230 -49t-191 -170zM422 61q0 34 24 58t58 24q35 0 59.5 -24t24.5 -58q0 -35 -24.5 -59.5t-59.5 -24.5q-34 0 -58 24.5t-24 59.5z" />
<glyph unicode="@" horiz-adv-x="1695" d="M231 479q0 118 30.5 237t86.5 228.5t141 204.5t189.5 165t236.5 110t277 40q264 0 417.5 -141t153.5 -401q0 -115 -34.5 -236.5t-92 -220.5t-139 -162t-168.5 -63q-162 0 -162 159q0 19 2 29q-114 -168 -292 -168q-111 0 -174.5 92t-63.5 242q0 87 33.5 178.5t89 165 t135 121t162.5 47.5q172 0 248 -160l45 119h92q-31 -105 -191 -606q-8 -24 -8 -51q0 -103 84 -103q88 0 175 91t141.5 235.5t54.5 290.5q0 233 -135.5 356t-372.5 123q-135 0 -258.5 -37.5t-220.5 -103t-176.5 -154.5t-132 -191.5t-81 -214t-28.5 -221.5q0 -84 16.5 -161 t55.5 -150t96 -126.5t145 -85.5t197 -32q158 0 301.5 48t253.5 137l41 -50q-120 -96 -273.5 -147t-322.5 -51q-261 0 -417.5 168t-156.5 450zM739 592q0 -248 174 -248q75 0 154.5 77t128.5 183t49 193q0 105 -42 163t-144 58q-82 0 -158 -70.5t-119 -169t-43 -186.5z" />
<glyph unicode="A" horiz-adv-x="1249" d="M61 0l826 1440h92l209 -1440h-88l-58 414h-647l-233 -414h-101zM438 489h594l-117 850z" />
<glyph unicode="B" horiz-adv-x="1251" d="M143 0l306 1440h563q147 0 225 -81t78 -200q0 -83 -37 -162t-114.5 -140.5t-180.5 -82.5q119 -27 181.5 -111t62.5 -196q0 -84 -34.5 -166t-97.5 -149.5t-164 -109.5t-222 -42h-566zM250 78h438q105 0 192 34.5t141 91t83 124t29 137.5q0 115 -76.5 193.5t-216.5 78.5 h-451zM406 811h419q92 0 169 31.5t125.5 82.5t75 111t26.5 121q0 87 -55.5 146t-159.5 59h-484z" />
<glyph unicode="C" horiz-adv-x="1282" d="M231 494q0 108 23.5 221.5t67 222t111 204.5t150.5 169t190.5 115t225.5 42q183 0 291 -97.5t142 -264.5l-91 -29q-25 145 -112.5 229.5t-247.5 84.5q-99 0 -191 -42t-162.5 -112.5t-128.5 -162.5t-95 -193t-57.5 -202t-20.5 -192q0 -94 20 -171t61.5 -138t114.5 -95 t172 -34q116 0 228.5 65.5t205.5 180.5l74 -55q-102 -128 -236.5 -198.5t-287.5 -70.5q-114 0 -201.5 40.5t-140 112.5t-79 165t-26.5 205z" />
<glyph unicode="D" horiz-adv-x="1273" d="M143 0l306 1440h452q112 0 199.5 -41t140.5 -113t80 -164t27 -200q0 -125 -33.5 -254.5t-100.5 -249t-157 -213t-212.5 -149.5t-258.5 -56h-443zM250 78h342q114 0 219 52.5t184 139.5t138 197t89.5 229t30.5 230q0 92 -21.5 169.5t-65 137.5t-115 93.5t-164.5 33.5h-365 z" />
<glyph unicode="E" horiz-adv-x="1107" d="M143 0l306 1440h862l-17 -78h-772l-121 -569h586l-16 -78h-586l-135 -637h815l-16 -78h-906z" />
<glyph unicode="F" horiz-adv-x="1046" d="M143 0l306 1440h862l-17 -78h-772l-121 -569h635l-16 -78h-635l-152 -715h-90z" />
<glyph unicode="G" horiz-adv-x="1355" d="M231 494q0 108 23.5 221.5t67 222t111 204.5t150.5 169t190.5 115t225.5 42q181 0 290 -97.5t143 -262.5l-91 -37q-23 148 -110.5 234t-249.5 86q-99 0 -191 -42t-162.5 -112.5t-128.5 -162.5t-95 -193t-57.5 -202t-20.5 -192q0 -94 20 -171t61.5 -138t114.5 -95t172 -34 q188 0 359 164t247 410h-421l16 79h522q-47 -210 -150.5 -374.5t-257 -260.5t-331.5 -96q-114 0 -201.5 40.5t-140 112.5t-79 165t-26.5 205z" />
<glyph unicode="H" horiz-adv-x="1318" d="M143 0l306 1440h90l-140 -658h854l140 658h90l-307 -1440h-89l150 707h-854l-150 -707h-90z" />
<glyph unicode="I" horiz-adv-x="376" d="M143 0l306 1440h90l-306 -1440h-90z" />
<glyph unicode="J" horiz-adv-x="999" d="M102 315q0 27 2 41l86 23q-4 -23 -4 -64q0 -129 67 -199.5t185 -70.5q88 0 169.5 36t149.5 119.5t93 202.5l223 1037h88l-211 -994q-102 -477 -536 -477q-144 0 -228 97.5t-84 248.5z" />
<glyph unicode="K" d="M143 0l308 1440h88l-191 -903l975 903h129l-631 -578l334 -862h-94l-307 801l-437 -402l-84 -399h-90z" />
<glyph unicode="L" horiz-adv-x="1026" d="M143 0l308 1440h88l-289 -1362h754l-17 -78h-844z" />
<glyph unicode="M" horiz-adv-x="1513" d="M143 0l308 1440h100l242 -1250l772 1250h110l-307 -1440h-88l268 1257l-782 -1257h-16l-248 1262l-269 -1262h-90z" />
<glyph unicode="N" horiz-adv-x="1308" d="M143 0l308 1440h92l563 -1297l276 1297h91l-308 -1440h-92l-563 1298l-277 -1298h-90z" />
<glyph unicode="O" horiz-adv-x="1370" d="M231 496q0 111 25 227q45 213 148.5 380.5t258 266t334.5 98.5q115 0 202.5 -40.5t140.5 -112.5t79.5 -165t26.5 -204q0 -131 -32.5 -267t-98.5 -263t-156 -226t-215 -159t-266 -60q-121 0 -210.5 43.5t-139.5 119.5t-73.5 166t-23.5 196zM326 487q0 -90 18 -164.5 t58 -138t114.5 -99.5t177.5 -36q119 0 226 59t183.5 155t133.5 215t85 241.5t28 232.5q0 74 -12 138t-39.5 120t-69.5 95.5t-105 62.5t-143 23q-135 0 -266 -88t-228 -240.5t-135 -335.5q-26 -123 -26 -240z" />
<glyph unicode="P" horiz-adv-x="1171" d="M143 0l308 1440h591q79 0 141 -26t100 -71.5t57.5 -103.5t19.5 -125q0 -60 -23 -125t-70.5 -128t-111.5 -113.5t-155 -81.5t-193 -31h-438l-136 -635h-90zM385 713h412q108 0 200 38.5t150 99.5t90.5 133.5t32.5 143.5q0 100 -65 166t-189 66h-494z" />
<glyph unicode="Q" horiz-adv-x="1372" d="M231 494q0 108 23.5 221.5t67 222t111 204.5t150.5 169t190.5 115t225.5 42q114 0 201.5 -40.5t140 -112.5t79 -165t26.5 -204q0 -173 -54 -347t-164.5 -326t-258.5 -230l80 -162l-78 -39l-82 166q-98 -37 -211 -37q-114 0 -201.5 40.5t-140 112.5t-79 165t-26.5 205z M326 487q0 -94 20 -171t61.5 -138t114.5 -95t172 -34q79 0 158 31l-74 151l78 39l76 -151q132 79 229.5 218.5t144 297.5t46.5 317q0 74 -12 138t-40 120t-70 95.5t-105.5 62.5t-143.5 23q-99 0 -191 -42t-162.5 -112.5t-128.5 -162.5t-95 -193t-57.5 -202t-20.5 -192z" />
<glyph unicode="R" horiz-adv-x="1185" d="M143 0l308 1440h591q79 0 141 -26t100 -71.5t57.5 -103.5t19.5 -125q0 -57 -21 -118t-64.5 -120.5t-103 -107.5t-144 -80t-179.5 -37l276 -651h-92l-268 649h-393l-138 -649h-90zM387 725h412q108 0 200 37.5t150 97t90.5 130t32.5 140.5q0 100 -65.5 165t-190.5 65h-494 z" />
<glyph unicode="S" horiz-adv-x="1095" d="M162 281l80 51q46 -283 338 -283q189 0 306.5 100.5t117.5 235.5q0 96 -67.5 180.5t-199.5 136.5q-116 45 -191.5 89.5t-116.5 95t-56 101.5t-15 120q0 68 33.5 131.5t95 115t157 82.5t210.5 31q301 0 412 -239l-76 -49q-73 213 -342 213q-90 0 -167 -26t-127.5 -67.5 t-79 -92.5t-28.5 -103q0 -114 69.5 -185t246.5 -137q165 -62 250.5 -170t85.5 -231q0 -79 -36.5 -152.5t-103.5 -131t-172 -92t-231 -34.5q-160 0 -264.5 86t-128.5 224z" />
<glyph unicode="T" horiz-adv-x="1044" d="M330 1362l16 78h965l-17 -78h-438l-291 -1362h-90l291 1362h-436z" />
<glyph unicode="U" d="M207 356q0 95 29 234l180 850h88l-182 -860q-29 -129 -29 -228q0 -146 73.5 -226.5t249.5 -80.5q101 0 182 29t136.5 76t98 118t68 145t44.5 167l184 860h88l-180 -850q-33 -154 -81.5 -265t-122 -192.5t-178 -121.5t-243.5 -40q-209 0 -307 97t-98 288z" />
<glyph unicode="V" horiz-adv-x="1249" d="M367 1440h88l184 -1340l754 1340h100l-825 -1440h-93z" />
<glyph unicode="W" horiz-adv-x="1681" d="M367 1440h88l20 -1331l629 1331h82l59 -1329l586 1329h94l-647 -1440h-96l-62 1303l-620 -1303h-99z" />
<glyph unicode="X" horiz-adv-x="1210" d="M61 0l650 772l-269 668h103l233 -606l496 606h125l-578 -684l305 -756h-102l-268 696l-570 -696h-125z" />
<glyph unicode="Y" horiz-adv-x="1142" d="M336 1440h92l272 -778l609 778h108l-686 -858l-125 -582h-88l127 594z" />
<glyph unicode="Z" horiz-adv-x="1134" d="M72 0l16 78l1157 1282h-839l18 80h944l-16 -80l-1157 -1282h854l-17 -78h-960z" />
<glyph unicode="[" horiz-adv-x="536" d="M88 -260l393 1847h312l-17 -78h-235l-361 -1691h236l-17 -78h-311z" />
<glyph unicode="\" horiz-adv-x="819" d="M356 1540l84 -8l328 -1632l-82 8z" />
<glyph unicode="]" horiz-adv-x="536" d="M27 -260l16 78h236l360 1691h-236l17 78h311l-393 -1847h-311z" />
<glyph unicode="^" horiz-adv-x="1081" d="M303 752l504 688h84l207 -688h-88l-174 602l-433 -602h-100z" />
<glyph unicode="_" horiz-adv-x="1040" d="M-66 -254l19 80h1057l-19 -80h-1057z" />
<glyph unicode="`" horiz-adv-x="681" d="M459 1487h139l193 -307h-68z" />
<glyph unicode="a" horiz-adv-x="1060" d="M152 229q0 79 29 145.5t78 112.5t114.5 78t136.5 47t145 15q149 0 265 -52l28 134q8 33 8 69q0 91 -56 143t-148 52h-4q-211 0 -349 -168l-67 49q66 91 180 144t233 53q129 0 214 -67.5t85 -199.5q0 -52 -10 -96l-123 -577v-9q0 -26 35 -26h31l-16 -76h-52 q-49 0 -70.5 17t-21.5 53q0 27 4 41l8 39q-83 -83 -183 -127q-97 -43 -197 -43h-5q-125 0 -208.5 64t-83.5 185zM250 236q0 -88 54 -133.5t145 -45.5q95 0 206.5 58.5t202.5 158.5l43 207q-85 68 -237 68q-75 0 -145.5 -18t-132 -54t-99 -98.5t-37.5 -142.5z" />
<glyph unicode="b" horiz-adv-x="1036" d="M143 0l306 1440h90l-125 -598q152 211 368 211q131 0 206 -104t75 -271q0 -85 -22.5 -180.5t-67.5 -188t-106 -166.5t-144.5 -120t-175.5 -46q-216 0 -279 185l-35 -162h-90zM301 315q11 -123 76.5 -193.5t171.5 -70.5q95 0 177 64.5t133.5 161t80.5 201.5t29 194 q0 137 -56.5 221t-158.5 84q-106 0 -215.5 -102t-171.5 -248z" />
<glyph unicode="c" horiz-adv-x="970" d="M193 362q0 99 24 197.5t73 187.5t116 157t160.5 108.5t199.5 40.5q223 0 305 -195l-84 -43q-59 162 -235 162q-86 0 -162 -39.5t-130.5 -103.5t-94 -145t-59 -165.5t-19.5 -163.5q0 -145 69.5 -228t196.5 -83q173 0 303 162l70 -53q-158 -185 -389 -185 q-163 0 -253.5 105.5t-90.5 283.5z" />
<glyph unicode="d" horiz-adv-x="1036" d="M195 367q0 85 21 178.5t64.5 183.5t102 162.5t141 117t174.5 44.5q211 0 283 -211l127 598h90l-305 -1440h-92l33 154q-132 -177 -357 -177q-131 0 -206.5 109.5t-75.5 280.5zM287 358q0 -138 57.5 -222.5t161.5 -84.5t202.5 78t163.5 203l66 311v9q0 138 -62 230 q-64 94 -171 95q-76 0 -144.5 -42.5t-117 -109.5t-85 -150t-54 -165t-17.5 -152z" />
<glyph unicode="e" horiz-adv-x="1034" d="M193 362q0 95 23.5 192.5t71 187t113 159t156 111t193.5 41.5q152 0 235.5 -102.5t83.5 -276.5q0 -98 -18 -176l-2 -4h-750q-12 -70 -12 -136q0 -144 65.5 -226.5t184.5 -82.5q83 0 165.5 45t145.5 125l70 -53q-75 -92 -178 -142.5t-216 -50.5q-156 0 -243.5 106 t-87.5 283zM317 569h652q8 74 8 107q0 141 -62 221t-178 80q-133 0 -250.5 -112.5t-169.5 -295.5z" />
<glyph unicode="f" horiz-adv-x="643" d="M238 0l202 950h-166l15 76h168l39 180q25 122 99.5 190t166.5 68q60 0 115 -30l-21 -93q-35 41 -90 41q-58 0 -110.5 -47t-69.5 -123l-39 -186h237l-16 -76h-238l-200 -950h-92z" />
<glyph unicode="g" horiz-adv-x="1038" d="M113 -270l71 53q30 -69 90 -105t134 -36q83 0 163.5 42.5t148.5 136.5t95 224l29 137q-153 -209 -369 -209q-132 0 -206 104t-74 271q0 86 22 181t66.5 187.5t104.5 166.5t144 120t177 46q218 0 280 -187l35 164h90l-211 -989q-26 -122 -81 -215.5t-125 -147.5 t-145.5 -81t-152.5 -27q-103 0 -181.5 44t-104.5 120zM289 354q0 -137 56.5 -221t158.5 -84q106 0 215 101.5t172 248.5l65 312q-12 123 -76.5 193.5t-170.5 70.5q-95 0 -177 -64.5t-133.5 -161t-80.5 -201.5t-29 -194z" />
<glyph unicode="h" horiz-adv-x="1017" d="M143 0l306 1440h90l-119 -566q65 86 154.5 129.5t187.5 43.5q136 0 203 -77.5t67 -209.5q0 -71 -14 -137l-133 -623h-90l137 645q12 62 12 115q0 103 -51 157t-150 54q-118 0 -230 -95t-148 -264l-132 -612h-90z" />
<glyph unicode="i" horiz-adv-x="432" d="M172 0l217 1026h90l-217 -1026h-90zM438 1397q0 29 21.5 50t52.5 21t52.5 -21t21.5 -50q0 -31 -21.5 -52.5t-52.5 -21.5t-52.5 21.5t-21.5 52.5z" />
<glyph unicode="j" horiz-adv-x="405" d="M-166 -395l39 71q30 -24 70 -24q54 0 101.5 43.5t64.5 116.5l256 1214h90l-256 -1208q-24 -115 -92 -179.5t-156 -64.5q-57 0 -117 31zM414 1397q0 29 21 50t52 21t52.5 -21t21.5 -50q0 -31 -21.5 -52.5t-52.5 -21.5t-52 21.5t-21 52.5z" />
<glyph unicode="k" horiz-adv-x="962" d="M143 0l306 1440h90l-209 -989l626 575h127l-417 -381l245 -645h-94l-221 582l-295 -267l-68 -315h-90z" />
<glyph unicode="l" horiz-adv-x="376" d="M143 0l306 1440h90l-306 -1440h-90z" />
<glyph unicode="m" horiz-adv-x="1585" d="M143 0l217 1026h93l-33 -152q62 84 147.5 130.5t171.5 46.5q96 0 162.5 -63t69.5 -175q67 115 165.5 178.5t196.5 63.5q110 0 184 -74t74 -219q0 -57 -16 -139l-133 -623h-90l137 645q12 49 12 111q0 106 -50.5 161.5t-129.5 55.5q-107 0 -215.5 -106.5t-142.5 -266.5 l-127 -600h-91l138 645q12 61 12 111q0 105 -51.5 161t-130.5 56q-106 0 -212.5 -104t-140.5 -263l-127 -606h-90z" />
<glyph unicode="n" horiz-adv-x="1028" d="M143 0l217 1026h91l-31 -152q65 86 154.5 129.5t187.5 43.5q136 0 203 -77.5t67 -209.5q0 -71 -14 -137l-133 -623h-90l137 645q12 62 12 115q0 103 -51 157t-150 54q-118 0 -230 -95t-148 -264l-132 -612h-90z" />
<glyph unicode="o" horiz-adv-x="1069" d="M193 356q0 99 23 197.5t70.5 188.5t113.5 159.5t159 110.5t199 41q162 0 250 -103.5t88 -279.5q0 -99 -23 -197.5t-71 -188.5t-114 -159.5t-159.5 -110.5t-200.5 -41q-161 0 -248 103.5t-87 279.5zM287 354q0 -143 66 -224t192 -81q106 0 195.5 61t144.5 155t85.5 201 t30.5 206q0 144 -66.5 224.5t-193.5 80.5q-85 0 -160 -40t-127.5 -105.5t-91 -147.5t-57 -167t-18.5 -163z" />
<glyph unicode="p" horiz-adv-x="1034" d="M57 -408l303 1434h91l-31 -154q132 177 356 177q132 0 207.5 -109.5t75.5 -280.5q0 -85 -21.5 -178.5t-64.5 -183.5t-102 -162.5t-141.5 -117t-174.5 -44.5q-210 0 -283 209l-125 -590h-90zM315 383v-9q0 -138 63 -230q65 -95 171 -95q76 0 144.5 42.5t117 109.5t85 150 t54 165t17.5 152q0 138 -57.5 222.5t-161.5 84.5q-105 0 -203.5 -78t-163.5 -203z" />
<glyph unicode="q" horiz-adv-x="1036" d="M193 348q0 85 22 180.5t67 188t105.5 166.5t144.5 120t177 46q216 0 278 -187l35 164h90l-305 -1434h-90l125 590q-153 -209 -369 -209q-132 0 -206 104t-74 271zM287 354q0 -137 56.5 -221t158.5 -84q106 0 215 101.5t172 248.5l65 312q-12 123 -76.5 193.5t-170.5 70.5 q-95 0 -177 -64.5t-133.5 -161t-80.5 -201.5t-29 -194z" />
<glyph unicode="r" horiz-adv-x="702" d="M143 0l217 1026h91l-31 -152q131 173 336 173q76 0 133 -23l-47 -78q-47 21 -101 21t-111.5 -22.5t-111 -65.5t-96 -114t-60.5 -159l-129 -606h-90z" />
<glyph unicode="s" horiz-adv-x="845" d="M139 176l76 47q34 -87 91 -127.5t145 -40.5q123 0 205.5 60t82.5 176q0 67 -57.5 117.5t-200.5 105.5q-105 39 -157 105.5t-52 144.5q0 75 31.5 131.5t85 89t117.5 48.5t135 16q204 0 291 -172l-74 -48q-71 144 -229 144q-68 0 -125.5 -21.5t-97 -70.5t-39.5 -117 q0 -62 46.5 -107t145.5 -84q144 -55 208 -125.5t64 -158.5q0 -81 -32.5 -143t-89 -98t-125 -53.5t-146.5 -17.5q-227 0 -299 199z" />
<glyph unicode="t" horiz-adv-x="684" d="M295 950l14 76h168l88 414h90l-88 -414h238l-17 -76h-237l-156 -737q-6 -24 -6 -43q0 -55 31.5 -86t77.5 -31q57 0 114 45l-20 -92q-67 -31 -121 -31q-76 0 -123 50t-47 137q0 38 8 71l152 717h-166z" />
<glyph unicode="u" horiz-adv-x="1007" d="M193 266q0 59 16 137l131 623h90l-137 -645q-12 -65 -12 -115q0 -104 50.5 -158.5t149.5 -54.5q74 0 149.5 38.5t141 123t90.5 199.5l129 612h90l-217 -1026h-90l31 150q-63 -86 -152 -128t-188 -42q-137 0 -204.5 76.5t-67.5 209.5z" />
<glyph unicode="v" horiz-adv-x="948" d="M279 1026h88l112 -930l527 930h100l-598 -1026h-88z" />
<glyph unicode="w" horiz-adv-x="1441" d="M279 1026h88l65 -926l461 926h82l69 -924l457 924h98l-526 -1026h-86l-69 926l-461 -926h-88z" />
<glyph unicode="x" horiz-adv-x="933" d="M61 0l465 541l-209 485h99l176 -416l354 416h117l-432 -504l225 -522h-98l-193 453l-387 -453h-117z" />
<glyph unicode="y" horiz-adv-x="942" d="M57 -410l15 72q32 -14 57 -14q77 0 129 88l154 266l-142 1024h92l111 -924l522 924h105l-764 -1311q-42 -72 -100.5 -106.5t-114.5 -34.5q-38 0 -64 16z" />
<glyph unicode="z" horiz-adv-x="790" d="M51 0l15 68l755 882h-522l16 76h635l-14 -63l-758 -887h578l-17 -76h-688z" />
<glyph unicode="{" horiz-adv-x="698" d="M281 649l16 72q165 58 211 266l35 164q22 104 51.5 177t77.5 130.5t117.5 88.5t164.5 40l-16 -74q-72 -7 -122 -30t-84 -66t-54.5 -95t-38.5 -132l-41 -172q-14 -59 -22.5 -90.5t-25 -73.5t-37 -69t-53 -56.5t-77.5 -54.5q92 -58 92 -182q0 -59 -18 -144l-45 -229 q-17 -90 -17 -139q0 -81 40.5 -118.5t139.5 -51.5l-14 -74q-135 12 -193.5 69.5t-58.5 171.5q0 67 23 179l47 219q10 55 10 92q0 128 -108 182z" />
<glyph unicode="|" horiz-adv-x="321" d="M-197 -406l433 2034l83 -20l-432 -2032z" />
<glyph unicode="}" horiz-adv-x="698" d="M27 -264l14 74q138 18 202.5 92t96.5 231l49 234q12 57 24 94.5t35.5 84.5t62.5 84t93 64q-52 37 -73 79t-21 99q0 48 22 164l37 164q19 104 19 143q0 82 -42 126.5t-140 54.5l14 63q133 -12 190.5 -74t57.5 -178q0 -69 -23 -184l-35 -164q-10 -55 -10 -92 q0 -129 109 -174l-17 -72q-169 -72 -213 -274l-47 -219q-44 -209 -133.5 -306t-271.5 -114z" />
<glyph unicode="~" horiz-adv-x="1181" d="M276 631q119 172 275 172q45 0 99 -23t96.5 -51t95.5 -51t96 -23q60 0 103 31.5t96 101.5l55 -59q-65 -87 -132.5 -129.5t-148.5 -42.5q-44 0 -96.5 23t-94 51t-96.5 51t-102 23q-15 0 -28 -2t-26.5 -8.5t-22.5 -10t-22 -15.5t-18.5 -16t-19 -20t-16 -19t-17.5 -22.5 t-16 -20.5z" />
<glyph unicode="&#xa1;" horiz-adv-x="450" d="M96 -410l142 664l112 403h43l-61 -403l-139 -664h-97zM350 969q0 35 24.5 59.5t59.5 24.5q34 0 58 -24.5t24 -59.5q0 -34 -24 -58t-58 -24q-35 0 -59.5 24t-24.5 58z" />
<glyph unicode="&#xa2;" horiz-adv-x="950" d="M225 516q0 94 22 188t66 180t106 154.5t148 113t185 54.5l47 234h90l-49 -234q193 -18 264 -194l-82 -41q-62 162 -238 162q-86 0 -162 -39.5t-130.5 -103.5t-94 -145t-59 -165.5t-19.5 -163.5q0 -144 70 -227.5t197 -83.5q173 0 303 162l72 -54q-148 -167 -353 -182 l-49 -244h-90l51 246q-140 15 -217.5 118t-77.5 265z" />
<glyph unicode="&#xa3;" horiz-adv-x="1132" d="M143 0l232 1090q39 185 165 278.5t314 93.5q202 0 301 -137l-76 -47q-43 56 -97.5 80t-141.5 24q-152 0 -249.5 -81t-123.5 -203l-45 -211h465l-17 -78h-464l-156 -731h487q111 0 206 77.5t95 186.5q0 52 -25 96.5t-63 73.5l60 59q47 -30 82.5 -94t35.5 -135 q0 -101 -57.5 -181t-146 -120.5t-187.5 -40.5h-594z" />
<glyph unicode="&#xa4;" horiz-adv-x="1351" d="M115 537l16 77h199q12 112 47 222h-199l17 77h208q96 252 277.5 403.5t409.5 151.5q183 0 290.5 -97.5t141.5 -264.5l-90 -31q-25 145 -113 230.5t-248 85.5q-165 0 -321.5 -134t-245.5 -344h530l-16 -77h-545q-35 -110 -47 -222h545l-17 -77h-536q0 -8 -1 -26t-1 -26 q0 -94 20 -170t62 -137t115 -95t173 -34q116 0 229.5 65t205.5 181l73 -55q-104 -128 -238.5 -199.5t-287.5 -71.5q-114 0 -201 40.5t-140 113t-79 165.5t-26 204v45h-207z" />
<glyph unicode="&#xa5;" horiz-adv-x="1179" d="M262 354l17 76h346l34 164l-10 29h-330l17 75h287l-271 742h92l271 -778l608 778h111l-594 -742h303l-17 -75h-346l-32 -41l-33 -152h370l-16 -76h-371l-75 -354h-88l75 354h-348z" />
<glyph unicode="&#xa6;" horiz-adv-x="503" d="M205 0l112 528h95l-113 -528h-94zM397 909l113 531h94l-112 -531h-95z" />
<glyph unicode="&#xa7;" horiz-adv-x="1163" d="M150 -98l67 59q69 -66 146 -98.5t180 -32.5q57 0 115 15.5t109 44.5t83.5 78t32.5 110q0 72 -62.5 124t-202.5 109q-194 77 -280 158.5t-86 183.5q0 209 352 367q-106 64 -106 194q0 80 35 142.5t93.5 99.5t129 55.5t147.5 18.5q100 0 179.5 -37t156.5 -107l-65 -55 q-133 123 -306 123q-110 0 -199 -63t-89 -168q0 -37 19 -70.5t43.5 -55t66 -42.5t68 -31.5t67.5 -24.5q196 -66 275 -138t79 -177q0 -62 -20 -116t-51.5 -93.5t-80 -75.5t-94 -61t-104.5 -51q64 -46 95.5 -92t31.5 -105q0 -83 -41.5 -150.5t-108 -108t-144 -62t-155.5 -21.5 q-215 0 -376 154zM330 653q0 -41 24.5 -79.5t61 -67t89 -57.5t96.5 -47.5t97.5 -41.5t79.5 -36q336 155 336 354q0 28 -8.5 53t-19 43t-34 37t-38 29t-47.5 25.5t-47 21t-50 20.5q-26 11 -200 74q-55 -22 -107 -51t-108.5 -71t-90.5 -96t-34 -110z" />
<glyph unicode="&#xa8;" horiz-adv-x="671" d="M383 1366q0 28 19 48t47 20t47.5 -20t19.5 -48q0 -26 -20 -46t-47 -20t-46.5 19.5t-19.5 46.5zM721 1366q0 28 19 48t46 20q28 0 48 -20t20 -48q0 -26 -20 -46t-48 -20q-27 0 -46 19.5t-19 46.5z" />
<glyph unicode="&#xa9;" horiz-adv-x="1679" d="M258 719q0 210 98.5 379.5t265.5 262.5t369 93q156 0 293 -56.5t234 -154t153 -234.5t55 -292q0 -208 -96.5 -375.5t-264.5 -261.5t-374 -94q-149 0 -283 54t-233.5 148.5t-158 232.5t-58.5 298zM322 719q0 -143 52 -268.5t141.5 -214t213 -140t262.5 -51.5 q187 0 341 87.5t242.5 242.5t88.5 344q1 141 -50 266.5t-140 214.5t-214 141t-266 52t-265.5 -51.5t-213.5 -140.5t-140.5 -214.5t-51.5 -267.5zM614 719q0 184 110.5 308t279.5 124q178 0 296 -141l-55 -47q-48 55 -104 87.5t-137 32.5q-135 0 -225.5 -103t-90.5 -257 q0 -158 92 -261.5t224 -103.5q141 0 247 123l54 -45q-123 -145 -308 -145q-161 0 -272 119.5t-111 308.5z" />
<glyph unicode="&#xaa;" horiz-adv-x="751" d="M305 954q0 65 32 117.5t83.5 83.5t111.5 47.5t121 16.5q51 0 123 -19l12 66q9 30 9 57q0 46 -25.5 67t-77.5 21q-142 0 -223 -96l-49 45q114 117 272 117q94 0 137 -43.5t43 -114.5q0 -29 -6 -59l-77 -357q0 -2 -1.5 -6t-1.5 -6q0 -21 25 -21h23l-11 -47h-71 q-52 0 -52 49q0 22 9 46q-91 -107 -236 -107q-77 0 -123.5 37t-46.5 106zM385 971q0 -45 30.5 -67.5t78.5 -22.5q71 0 140.5 43.5t102.5 99.5l23 104q-27 29 -103 29q-44 0 -89.5 -11t-87.5 -32t-68.5 -58.5t-26.5 -84.5z" />
<glyph unicode="&#xab;" horiz-adv-x="970" d="M217 592l424 455l80 -29l-414 -438l228 -422h-86zM584 592l424 455l79 -29l-413 -438l227 -422h-86z" />
<glyph unicode="&#xac;" horiz-adv-x="1273" d="M211 604l16 82h1090l-92 -442h-80l76 360h-1010z" />
<glyph unicode="&#xad;" horiz-adv-x="653" d="M246 680l16 78h451l-17 -78h-450z" />
<glyph unicode="&#xae;" horiz-adv-x="1679" d="M258 719q0 210 98.5 379.5t265.5 262.5t369 93q156 0 293 -56.5t234 -154t153 -234.5t55 -292q0 -208 -96.5 -375.5t-264.5 -261.5t-374 -94q-149 0 -283 54t-233.5 148.5t-158 232.5t-58.5 298zM322 719q0 -143 52 -268.5t141.5 -214t213 -140t262.5 -51.5 q187 0 341 87.5t242.5 242.5t88.5 344q1 141 -50 266.5t-140 214.5t-214 141t-266 52t-265.5 -51.5t-213.5 -140.5t-140.5 -214.5t-51.5 -267.5zM737 322v813h281q62 0 109.5 -9.5t88.5 -31.5t62.5 -64t21.5 -102q0 -85 -54.5 -144t-155.5 -71q52 -42 75 -74t47 -96 q14 -37 38 -110.5t38 -110.5h-84q-15 37 -37 109t-34 104q-68 170 -179 170h-147v-383h-70zM809 758h205q215 0 215 162q0 42 -14.5 72.5t-35.5 47t-53.5 25.5t-58.5 11.5t-61 2.5h-197v-321z" />
<glyph unicode="&#xaf;" horiz-adv-x="802" d="M414 1282l20 82h516l-20 -82h-516z" />
<glyph unicode="&#xb0;" horiz-adv-x="888" d="M338 1065q0 167 122 287.5t290 120.5q124 0 206 -84.5t82 -202.5q0 -167 -122 -287.5t-291 -120.5q-123 0 -205 84t-82 203zM442 1071q0 -86 54 -139t143 -53q120 0 207.5 91.5t87.5 211.5q0 86 -53.5 139t-143.5 53q-120 0 -207.5 -92t-87.5 -211z" />
<glyph unicode="&#xb2;" horiz-adv-x="925" d="M215 428q36 122 173.5 253t387.5 288q78 51 133.5 121t55.5 149q0 71 -53.5 113.5t-149.5 42.5q-95 0 -179 -46t-132 -130l-68 41q62 103 168 156.5t223 53.5q122 0 201.5 -60t79.5 -163q0 -57 -21.5 -111t-51.5 -93.5t-80 -83t-87 -69.5t-92 -61q-302 -190 -375 -321 h559l-18 -80h-674z" />
<glyph unicode="&#xb3;" horiz-adv-x="978" d="M231 625l80 45q18 -78 89 -131.5t173 -53.5q50 0 98 10t92.5 31.5t77.5 52t52.5 75.5t19.5 98q0 78 -59 122t-172 44h-139l16 77h113q73 0 141 24t118 78.5t50 129.5q0 69 -51 115.5t-142 46.5q-104 0 -187 -44.5t-128 -111.5l-84 39q71 90 162.5 141t234.5 51t221 -64 t78 -163q0 -196 -225 -272q79 -28 115.5 -84t36.5 -127q0 -69 -26 -127.5t-69.5 -98.5t-101 -68t-120.5 -41t-128 -13q-133 0 -225 61t-111 158z" />
<glyph unicode="&#xb4;" horiz-adv-x="606" d="M354 1180l308 307h159l-383 -307h-84z" />
<glyph unicode="&#xb6;" horiz-adv-x="1249" d="M336 963q0 123 73 234.5t189.5 177t239.5 65.5h573l-16 -78h-41l-377 -1772h-88l377 1772h-275l-377 -1772h-88l224 1055h-80q-148 0 -241 90.5t-93 227.5z" />
<glyph unicode="&#xb7;" horiz-adv-x="407" d="M279 725q0 34 23.5 58t57.5 24q35 0 59.5 -24t24.5 -58q0 -35 -24.5 -59.5t-59.5 -24.5q-34 0 -57.5 24.5t-23.5 59.5z" />
<glyph unicode="&#xb8;" horiz-adv-x="686" d="M61 -387l27 49q64 -31 133 -31q38 0 80 11t77.5 39t35.5 67q0 29 -18.5 46.5t-55.5 17.5q-24 0 -66.5 -8.5t-58.5 -18.5l-49 14l145 213h60l-117 -170q56 25 108 25q57 0 92 -31.5t35 -79.5q0 -46 -28.5 -82.5t-72.5 -56t-89.5 -29.5t-87.5 -10q-73 0 -150 35z" />
<glyph unicode="&#xb9;" horiz-adv-x="552" d="M358 1225l15 69q40 3 70 9t64.5 20.5t60.5 43t44 71.5h78l-215 -1010h-90l178 832q-90 -35 -203 -35h-2z" />
<glyph unicode="&#xba;" horiz-adv-x="770" d="M332 1061q0 104 43 198.5t127 156t190 61.5q109 0 167.5 -65.5t58.5 -174.5q0 -77 -25.5 -150.5t-71 -132.5t-114.5 -95t-150 -36q-107 0 -166 65.5t-59 172.5zM414 1055q0 -76 35.5 -122t115.5 -46q61 0 114 33.5t87 85.5t53 113.5t19 119.5q0 76 -36.5 125t-115.5 49 q-59 0 -111.5 -35t-86.5 -89t-54 -116t-20 -118z" />
<glyph unicode="&#xbb;" horiz-adv-x="970" d="M125 156l420 434l-226 436l76 18l240 -466l-404 -422h-106zM494 156l419 434l-225 436l76 18l240 -466l-404 -422h-106z" />
<glyph unicode="&#xbc;" horiz-adv-x="1892" d="M358 1225l15 69q40 3 70 9t64.5 20.5t60.5 43t44 71.5h78l-215 -1010h-90l178 832q-90 -35 -203 -35h-2zM391 -47l1172 1558l77 -28l-1169 -1559zM1040 268l13 62l700 696h107l-144 -680h156l-17 -78h-155l-58 -268h-90l58 268h-570zM1188 346h438l119 555z" />
<glyph unicode="&#xbd;" horiz-adv-x="1996" d="M358 1223l15 69q40 3 70.5 9t64 21t60 43.5t44.5 70.5h78l-215 -1008h-90l178 829q-87 -34 -203 -34h-2zM391 -49l1172 1560l77 -28l-1169 -1561zM1210 0q35 122 172 253t387 288q78 49 133.5 121t55.5 151q0 69 -53.5 112.5t-149.5 43.5q-94 0 -178.5 -46t-132.5 -130 l-68 38q64 103 170 158t221 55q123 0 203 -60.5t80 -164.5q0 -56 -22 -110t-52.5 -94t-79.5 -82.5t-87.5 -69t-92.5 -60.5q-302 -193 -375 -323h560l-19 -80h-672z" />
<glyph unicode="&#xbe;" horiz-adv-x="2246" d="M231 625l80 45q18 -78 89 -131.5t173 -53.5q50 0 98 10t92.5 31.5t77.5 52t52.5 75.5t19.5 98q0 78 -59 122t-172 44h-139l16 77h113q73 0 141 24t118 78.5t50 129.5q0 69 -51 115.5t-142 46.5q-104 0 -187 -44.5t-128 -111.5l-84 39q71 90 162.5 141t234.5 51t221 -64 t78 -163q0 -196 -225 -272q79 -28 115.5 -84t36.5 -127q0 -69 -26 -127.5t-69.5 -98.5t-101 -68t-120.5 -41t-128 -13q-133 0 -225 61t-111 158zM748 -47l1171 1558l76 -28l-1168 -1559zM1395 268l14 62l698 696h109l-145 -680h157l-18 -78h-156l-57 -268h-88l57 268h-571z M1542 346h440l119 555z" />
<glyph unicode="&#xbf;" horiz-adv-x="1036" d="M57 -125q0 55 11.5 103t36.5 88.5t51 71.5t70 65t76.5 56.5t86.5 57.5q5 3 8 5q57 37 93 65t62 54t42 59t26.5 65.5t22.5 87.5h90q-15 -71 -31.5 -117t-46.5 -96t-78.5 -93t-121.5 -89q-15 -10 -50 -31.5t-51 -32.5t-46 -31.5t-45 -35t-37 -37t-33.5 -44t-23.5 -48 t-17 -57t-5 -64.5q0 -99 70 -164t205 -65q133 0 230.5 49t191.5 170l69 -45q-114 -142 -225 -197t-266 -55q-168 0 -266.5 85.5t-98.5 219.5zM666 973q0 34 24.5 58t59.5 24q34 0 57.5 -24t23.5 -58t-24 -59t-57 -25q-35 0 -59.5 25t-24.5 59z" />
<glyph unicode="&#xc0;" horiz-adv-x="1249" d="M61 0l826 1440h92l209 -1440h-88l-58 414h-647l-233 -414h-101zM438 489h594l-117 850zM631 1868h139l191 -307h-66z" />
<glyph unicode="&#xc1;" horiz-adv-x="1386" d="M61 0l826 1440h92l209 -1440h-88l-58 414h-647l-233 -414h-101zM438 489h594l-117 850zM883 1567l307 307h160l-383 -307h-84z" />
<glyph unicode="&#xc2;" horiz-adv-x="1386" d="M61 0l826 1440h92l209 -1440h-88l-58 414h-647l-233 -414h-101zM438 489h594l-117 850zM598 1563l322 305h112l199 -305h-68l-194 233l-287 -233h-84z" />
<glyph unicode="&#xc3;" horiz-adv-x="1200" d="M61 0l826 1440h92l209 -1440h-88l-58 414h-647l-233 -414h-101zM438 489h594l-117 850zM596 1595q21 87 79 138t142 51q44 0 84.5 -18.5t64.5 -40t54 -40t55 -18.5q98 0 137 107l76 -5q-53 -182 -221 -182q-41 0 -79 18t-61.5 39.5t-55.5 39.5t-64 18q-90 0 -131 -115z " />
<glyph unicode="&#xc4;" d="M61 0l826 1440h92l209 -1440h-88l-58 414h-647l-233 -414h-101zM438 489h594l-117 850zM707 1645q0 28 19.5 47.5t47.5 19.5q26 0 46 -20t20 -47q0 -26 -20 -46t-46 -20q-28 0 -47.5 19.5t-19.5 46.5zM1044 1645q0 28 20 47.5t48 19.5q26 0 46 -20t20 -47q0 -26 -20 -46 t-46 -20q-28 0 -48 20t-20 46z" />
<glyph unicode="&#xc5;" horiz-adv-x="1241" d="M61 0l826 1440h92l209 -1440h-88l-58 414h-647l-233 -414h-101zM438 489h594l-117 850zM731 1710q0 85 57 142t144 57q86 0 143.5 -57t57.5 -142t-57.5 -143t-143.5 -58q-87 0 -144 58t-57 143zM799 1710q0 -58 36.5 -95.5t94.5 -37.5t94.5 37.5t36.5 95.5t-36.5 95.5 t-94.5 37.5t-94.5 -37.5t-36.5 -95.5z" />
<glyph unicode="&#xc6;" horiz-adv-x="1992" d="M61 0l1235 1440h889l-16 -78h-772l-121 -569h586l-17 -78h-585l-136 -637h815l-16 -78h-905l86 406h-586l-348 -406h-109zM586 483h534l180 844z" />
<glyph unicode="&#xc7;" horiz-adv-x="1277" d="M229 494q0 108 23.5 221.5t67 222t111 204.5t150.5 169t190.5 115t225.5 42q183 0 291 -97.5t142 -264.5l-91 -29q-23 144 -111 229t-247 85q-119 0 -226.5 -59.5t-183.5 -155.5t-133 -215.5t-84.5 -241.5t-27.5 -232q0 -95 19.5 -171.5t61 -137.5t114.5 -95t173 -34 q115 0 228 65.5t206 180.5l74 -55q-102 -126 -234 -197t-282 -72l-88 -129q56 25 109 25q57 0 92 -31.5t35 -79.5q0 -46 -28.5 -82.5t-72.5 -56t-90 -29.5t-88 -10q-69 0 -149 35l26 49q64 -31 133 -31q38 0 80 11t77.5 39t35.5 67q0 29 -18.5 46.5t-55.5 17.5 q-24 0 -66.5 -8.5t-58.5 -18.5l-49 14l119 172q-102 9 -180 53.5t-125.5 115.5t-71 160t-23.5 194z" />
<glyph unicode="&#xc8;" horiz-adv-x="1277" d="M143 0l306 1440h862l-17 -78h-772l-121 -569h586l-16 -78h-586l-135 -637h815l-16 -78h-906zM668 1868h139l192 -307h-67z" />
<glyph unicode="&#xc9;" horiz-adv-x="1064" d="M143 0l306 1440h862l-17 -78h-772l-121 -569h586l-16 -78h-586l-135 -637h815l-16 -78h-906zM817 1567l307 307h160l-383 -307h-84z" />
<glyph unicode="&#xca;" horiz-adv-x="1277" d="M143 0l306 1440h862l-17 -78h-772l-121 -569h586l-16 -78h-586l-135 -637h815l-16 -78h-906zM594 1563l324 305h110l201 -305h-70l-194 233l-285 -233h-86z" />
<glyph unicode="&#xcb;" horiz-adv-x="1277" d="M143 0l306 1440h862l-17 -78h-772l-121 -569h586l-16 -78h-586l-135 -637h815l-16 -78h-906zM705 1645q0 28 18.5 47.5t46.5 19.5t47 -19.5t19 -47.5q0 -27 -19.5 -46.5t-46.5 -19.5t-46 19.5t-19 46.5zM1042 1645q0 28 19 47.5t47 19.5t47 -19.5t19 -47.5 q0 -27 -19.5 -46.5t-46.5 -19.5t-46.5 19.5t-19.5 46.5z" />
<glyph unicode="&#xcc;" horiz-adv-x="376" d="M180 0l305 1440h90l-305 -1440h-90zM258 1868h139l193 -307h-68z" />
<glyph unicode="&#xcd;" horiz-adv-x="376" d="M141 0l305 1440h91l-308 -1440h-88zM446 1567l308 307h159l-383 -307h-84z" />
<glyph unicode="&#xce;" horiz-adv-x="376" d="M174 0l307 1440h88l-305 -1440h-90zM225 1563l322 305h112l199 -305h-67l-197 233l-285 -233h-84z" />
<glyph unicode="&#xcf;" horiz-adv-x="376" d="M152 0l307 1440h88l-305 -1440h-90zM283 1645q0 28 18.5 47.5t46.5 19.5t48 -19.5t20 -47.5q0 -26 -20 -46t-48 -20q-27 0 -46 19.5t-19 46.5zM621 1645q0 28 18.5 47.5t46.5 19.5t48 -19.5t20 -47.5q0 -26 -20 -46t-48 -20q-27 0 -46 19.5t-19 46.5z" />
<glyph unicode="&#xd0;" horiz-adv-x="1329" d="M188 0l156 733h-149l14 74h151l136 633h450q112 0 199.5 -41t140.5 -113t80 -164t27 -200q0 -125 -33.5 -254.5t-100.5 -249t-157 -213t-212.5 -149.5t-258.5 -56h-443zM295 78h342q114 0 219.5 52.5t184 139.5t138 197t89.5 228.5t30 230.5q0 92 -21.5 169.5 t-64.5 137.5t-114.5 93.5t-165.5 33.5h-365l-116 -553h397l-14 -74h-400z" />
<glyph unicode="&#xd1;" horiz-adv-x="1308" d="M143 0l308 1440h92l563 -1297l276 1297h91l-308 -1440h-92l-563 1298l-277 -1298h-90zM655 1595q19 87 78.5 138t143.5 51q44 0 83.5 -18.5t64 -40t54.5 -40t56 -18.5q101 0 135 107l78 -5q-53 -182 -224 -182q-41 0 -78.5 18t-61 39.5t-56 39.5t-64.5 18 q-90 0 -131 -115z" />
<glyph unicode="&#xd2;" horiz-adv-x="1370" d="M231 496q0 111 25 227q45 213 148.5 380.5t258 266t334.5 98.5q115 0 202.5 -40.5t140.5 -112.5t79.5 -165t26.5 -204q0 -131 -32.5 -267t-98.5 -263t-156 -226t-215 -159t-266 -60q-121 0 -210.5 43.5t-139.5 119.5t-73.5 166t-23.5 196zM326 487q0 -90 18 -164.5 t58 -138t114.5 -99.5t177.5 -36q119 0 226 59t183.5 155t133.5 215t85 241.5t28 232.5q0 74 -12 138t-39.5 120t-69.5 95.5t-105 62.5t-143 23q-135 0 -266 -88t-228 -240.5t-135 -335.5q-26 -123 -26 -240zM733 1868h139l191 -307h-66z" />
<glyph unicode="&#xd3;" horiz-adv-x="1370" d="M231 496q0 111 25 227q45 213 148.5 380.5t258 266t334.5 98.5q115 0 202.5 -40.5t140.5 -112.5t79.5 -165t26.5 -204q0 -131 -32.5 -267t-98.5 -263t-156 -226t-215 -159t-266 -60q-121 0 -210.5 43.5t-139.5 119.5t-73.5 166t-23.5 196zM326 487q0 -90 18 -164.5 t58 -138t114.5 -99.5t177.5 -36q119 0 226 59t183.5 155t133.5 215t85 241.5t28 232.5q0 74 -12 138t-39.5 120t-69.5 95.5t-105 62.5t-143 23q-135 0 -266 -88t-228 -240.5t-135 -335.5q-26 -123 -26 -240zM946 1567l307 307h160l-383 -307h-84z" />
<glyph unicode="&#xd4;" horiz-adv-x="1370" d="M231 496q0 111 25 227q45 213 148.5 380.5t258 266t334.5 98.5q115 0 202.5 -40.5t140.5 -112.5t79.5 -165t26.5 -204q0 -131 -32.5 -267t-98.5 -263t-156 -226t-215 -159t-266 -60q-121 0 -210.5 43.5t-139.5 119.5t-73.5 166t-23.5 196zM326 487q0 -90 18 -164.5 t58 -138t114.5 -99.5t177.5 -36q119 0 226 59t183.5 155t133.5 215t85 241.5t28 232.5q0 74 -12 138t-39.5 120t-69.5 95.5t-105 62.5t-143 23q-135 0 -266 -88t-228 -240.5t-135 -335.5q-26 -123 -26 -240zM696 1563l324 305h113l198 -305h-69l-195 233l-285 -233h-86z" />
<glyph unicode="&#xd5;" horiz-adv-x="1370" d="M231 496q0 111 25 227q45 213 148.5 380.5t258 266t334.5 98.5q115 0 202.5 -40.5t140.5 -112.5t79.5 -165t26.5 -204q0 -131 -32.5 -267t-98.5 -263t-156 -226t-215 -159t-266 -60q-121 0 -210.5 43.5t-139.5 119.5t-73.5 166t-23.5 196zM326 487q0 -90 18 -164.5 t58 -138t114.5 -99.5t177.5 -36q119 0 226 59t183.5 155t133.5 215t85 241.5t28 232.5q0 74 -12 138t-39.5 120t-69.5 95.5t-105 62.5t-143 23q-135 0 -266 -88t-228 -240.5t-135 -335.5q-26 -123 -26 -240zM674 1595q21 87 79 138t142 51q44 0 83.5 -18.5t64 -40t54.5 -40 t56 -18.5q98 0 137 107l76 -5q-53 -182 -221 -182q-42 0 -80 18t-61.5 39.5t-56 39.5t-64.5 18q-90 0 -131 -115z" />
<glyph unicode="&#xd6;" horiz-adv-x="1370" d="M231 496q0 111 25 227q45 213 148.5 380.5t258 266t334.5 98.5q115 0 202.5 -40.5t140.5 -112.5t79.5 -165t26.5 -204q0 -131 -32.5 -267t-98.5 -263t-156 -226t-215 -159t-266 -60q-121 0 -210.5 43.5t-139.5 119.5t-73.5 166t-23.5 196zM326 487q0 -90 18 -164.5 t58 -138t114.5 -99.5t177.5 -36q119 0 226 59t183.5 155t133.5 215t85 241.5t28 232.5q0 74 -12 138t-39.5 120t-69.5 95.5t-105 62.5t-143 23q-135 0 -266 -88t-228 -240.5t-135 -335.5q-26 -123 -26 -240zM788 1645q0 28 19 47.5t47 19.5t48 -19.5t20 -47.5q0 -26 -20 -46 t-48 -20q-27 0 -46.5 19.5t-19.5 46.5zM1126 1645q0 28 19 47.5t47 19.5t48 -19.5t20 -47.5q0 -26 -20 -46t-48 -20q-27 0 -46.5 19.5t-19.5 46.5z" />
<glyph unicode="&#xd7;" horiz-adv-x="1110" d="M152 147l456 381l-295 381l64 49l295 -378l456 381l52 -62l-459 -383l295 -381l-64 -49l-293 379l-456 -379z" />
<glyph unicode="&#xd8;" horiz-adv-x="1366" d="M129 -80l190 227q-88 137 -88 347q0 131 32.5 267t98.5 262.5t156 226t215 159t266 59.5q203 0 318 -125l176 211l55 -34l-190 -228q90 -136 90 -346q0 -131 -32.5 -267t-99 -263t-156.5 -226t-215.5 -159t-266.5 -60q-199 0 -318 125l-174 -211zM326 487q0 -162 55 -266 l879 1053q-96 117 -279 117q-99 0 -191 -41.5t-162.5 -112.5t-128.5 -162.5t-95 -192.5t-57.5 -202.5t-20.5 -192.5zM418 166q93 -117 278 -117q119 0 226 59t183.5 155t133.5 215t85 241.5t28 232.5q0 159 -56 265z" />
<glyph unicode="&#xd9;" d="M207 356q0 95 29 234l180 850h88l-182 -860q-29 -129 -29 -228q0 -146 73.5 -226.5t249.5 -80.5q101 0 182 29t136.5 76t98 118t68 145t44.5 167l184 860h88l-180 -850q-33 -154 -81.5 -265t-122 -192.5t-178 -121.5t-243.5 -40q-209 0 -307 97t-98 288zM645 1868h139 l193 -307h-68z" />
<glyph unicode="&#xda;" d="M207 356q0 95 29 234l180 850h88l-182 -860q-29 -129 -29 -228q0 -146 73.5 -226.5t249.5 -80.5q101 0 182 29t136.5 76t98 118t68 145t44.5 167l184 860h88l-180 -850q-33 -154 -81.5 -265t-122 -192.5t-178 -121.5t-243.5 -40q-209 0 -307 97t-98 288zM836 1567 l307 307h160l-383 -307h-84z" />
<glyph unicode="&#xdb;" d="M207 356q0 95 29 234l180 850h88l-182 -860q-29 -129 -29 -228q0 -146 73.5 -226.5t249.5 -80.5q101 0 182 29t136.5 76t98 118t68 145t44.5 167l184 860h88l-180 -850q-33 -154 -81.5 -265t-122 -192.5t-178 -121.5t-243.5 -40q-209 0 -307 97t-98 288zM608 1563 l322 305h112l201 -305h-69l-195 233l-285 -233h-86z" />
<glyph unicode="&#xdc;" d="M207 356q0 95 29 234l180 850h88l-182 -860q-29 -129 -29 -228q0 -146 73.5 -226.5t249.5 -80.5q101 0 182 29t136.5 76t98 118t68 145t44.5 167l184 860h88l-180 -850q-33 -154 -81.5 -265t-122 -192.5t-178 -121.5t-243.5 -40q-209 0 -307 97t-98 288zM680 1645 q0 28 20 47.5t48 19.5t46.5 -19.5t18.5 -47.5q0 -27 -19 -46.5t-46 -19.5q-28 0 -48 20t-20 46zM1018 1645q0 28 19.5 47.5t47.5 19.5t47 -19.5t19 -47.5q0 -27 -19.5 -46.5t-46.5 -19.5t-47 19.5t-20 46.5z" />
<glyph unicode="&#xdd;" horiz-adv-x="1337" d="M336 1440h92l272 -778l609 778h108l-686 -858l-125 -582h-88l127 594zM815 1567l309 307h158l-383 -307h-84z" />
<glyph unicode="&#xde;" horiz-adv-x="1200" d="M160 0l307 1440h88l-53 -250h510q104 0 178 -46t107.5 -118t33.5 -162q0 -59 -23 -124.5t-71 -128.5t-112.5 -113.5t-155.5 -81.5t-193 -31h-444l-82 -385h-90zM348 463h418q87 0 164.5 25.5t133 67.5t96.5 95.5t61 111.5t20 114q0 101 -65.5 167t-190.5 66h-500z" />
<glyph unicode="&#xdf;" horiz-adv-x="1060" d="M102 -195l256 1192q22 108 56.5 189t87.5 145.5t131 97.5t180 33q147 0 218 -71t71 -183q0 -157 -94.5 -262t-253.5 -143q150 -41 223.5 -132.5t73.5 -211.5q0 -222 -144 -347.5t-370 -125.5q-68 0 -119 22l18 82q64 -31 113 -31q171 0 287 115.5t116 286.5 q0 134 -109.5 214.5t-279.5 86.5l19 82q106 0 201.5 40t160 123t64.5 191q0 87 -51.5 137.5t-153.5 50.5q-54 0 -100 -15t-79 -37.5t-61.5 -59.5t-46 -70.5t-33.5 -80t-24.5 -79t-18.5 -77.5l-239 -1127z" />
<glyph unicode="&#xe0;" horiz-adv-x="1060" d="M152 229q0 79 29 145.5t78 112.5t114.5 78t136.5 47t145 15q149 0 265 -52l28 134q8 33 8 69q0 91 -56 143t-148 52h-4q-211 0 -349 -168l-67 49q66 91 180 144t233 53q129 0 214 -67.5t85 -199.5q0 -52 -10 -96l-123 -577v-9q0 -26 35 -26h31l-16 -76h-52 q-49 0 -70.5 17t-21.5 53q0 27 4 41l8 39q-83 -83 -182.5 -127t-202.5 -43q-125 0 -208.5 64t-83.5 185zM250 236q0 -88 54 -133.5t145 -45.5q95 0 206.5 58.5t202.5 158.5l43 207q-85 68 -237 68q-75 0 -145.5 -18t-132 -54t-99 -98.5t-37.5 -142.5zM492 1487h139l192 -307 h-67z" />
<glyph unicode="&#xe1;" horiz-adv-x="1042" d="M152 229q0 79 29 145.5t78 112.5t114.5 78t136.5 47t145 15q149 0 265 -52l28 134q8 33 8 69q0 91 -56 143t-148 52h-4q-211 0 -349 -168l-67 49q66 91 180 144t233 53q129 0 214 -67.5t85 -199.5q0 -52 -10 -96l-123 -577v-9q0 -26 35 -26h31l-16 -76h-52 q-49 0 -70.5 17t-21.5 53q0 27 4 41l8 39q-83 -83 -182.5 -127t-202.5 -43q-125 0 -208.5 64t-83.5 185zM250 236q0 -88 54 -133.5t145 -45.5q95 0 206.5 58.5t202.5 158.5l43 207q-85 68 -237 68q-75 0 -145.5 -18t-132 -54t-99 -98.5t-37.5 -142.5zM659 1180l308 307h159 l-383 -307h-84z" />
<glyph unicode="&#xe2;" horiz-adv-x="1062" d="M152 229q0 79 29 145.5t78 112.5t114.5 78t136.5 47t145 15q149 0 265 -52l28 134q8 33 8 69q0 91 -56 143t-148 52h-4q-211 0 -349 -168l-67 49q66 91 180 144t233 53q129 0 214 -67.5t85 -199.5q0 -52 -10 -96l-123 -577v-9q0 -26 35 -26h31l-16 -76h-52 q-49 0 -70.5 17t-21.5 53q0 27 4 41l8 39q-83 -83 -182.5 -127t-202.5 -43q-125 0 -208.5 64t-83.5 185zM250 236q0 -88 54 -133.5t145 -45.5q95 0 206.5 58.5t202.5 158.5l43 207q-85 68 -237 68q-75 0 -145.5 -18t-132 -54t-99 -98.5t-37.5 -142.5zM434 1169l322 306h112 l199 -306h-68l-194 234l-287 -234h-84z" />
<glyph unicode="&#xe3;" horiz-adv-x="1046" d="M152 229q0 79 29 145.5t78 112.5t114.5 78t136.5 47t145 15q149 0 265 -52l28 134q8 33 8 69q0 91 -56 143t-148 52h-4q-211 0 -349 -168l-67 49q66 91 180 144t233 53q129 0 214 -67.5t85 -199.5q0 -52 -10 -96l-123 -577v-9q0 -26 35 -26h31l-16 -76h-52 q-49 0 -70.5 17t-21.5 53q0 27 4 41l8 39q-83 -83 -182.5 -127t-202.5 -43q-125 0 -208.5 64t-83.5 185zM250 236q0 -88 54 -133.5t145 -45.5q95 0 206.5 58.5t202.5 158.5l43 207q-85 68 -237 68q-75 0 -145.5 -18t-132 -54t-99 -98.5t-37.5 -142.5zM424 1233 q19 87 78 137.5t143 50.5q44 0 83.5 -18t64 -40t54.5 -40t56 -18q101 0 135 106l78 -4q-53 -182 -223 -182q-41 0 -78.5 18t-61 39t-56 39t-64.5 18q-90 0 -131 -114z" />
<glyph unicode="&#xe4;" horiz-adv-x="1048" d="M152 229q0 79 29 145.5t78 112.5t114.5 78t136.5 47t145 15q149 0 265 -52l28 134q8 33 8 69q0 91 -56 143t-148 52h-4q-211 0 -349 -168l-67 49q66 91 180 144t233 53q129 0 214 -67.5t85 -199.5q0 -52 -10 -96l-123 -577v-9q0 -26 35 -26h31l-16 -76h-52 q-49 0 -70.5 17t-21.5 53q0 27 4 41l8 39q-83 -83 -182.5 -127t-202.5 -43q-125 0 -208.5 64t-83.5 185zM250 236q0 -88 54 -133.5t145 -45.5q95 0 206.5 58.5t202.5 158.5l43 207q-85 68 -237 68q-75 0 -145.5 -18t-132 -54t-99 -98.5t-37.5 -142.5zM543 1366q0 28 19 48 t46 20q28 0 47 -20t19 -48q0 -27 -19.5 -46.5t-46.5 -19.5t-46 19.5t-19 46.5zM881 1366q0 28 19 48t46 20q28 0 47 -20t19 -48q0 -27 -19.5 -46.5t-46.5 -19.5t-46 19.5t-19 46.5z" />
<glyph unicode="&#xe5;" horiz-adv-x="1060" d="M152 229q0 79 29 145.5t78 112.5t114.5 78t136.5 47t145 15q149 0 265 -52l28 134q8 33 8 69q0 91 -56 143t-148 52h-4q-211 0 -349 -168l-67 49q66 91 180 144t233 53q129 0 214 -67.5t85 -199.5q0 -52 -10 -96l-123 -577v-9q0 -26 35 -26h31l-16 -76h-52 q-49 0 -70.5 17t-21.5 53q0 27 4 41l8 39q-83 -83 -182.5 -127t-202.5 -43q-125 0 -208.5 64t-83.5 185zM250 236q0 -88 54 -133.5t145 -45.5q95 0 206.5 58.5t202.5 158.5l43 207q-85 68 -237 68q-75 0 -145.5 -18t-132 -54t-99 -98.5t-37.5 -142.5zM592 1378 q0 84 57.5 141.5t143.5 57.5t143 -57.5t57 -141.5q0 -85 -57 -142.5t-143 -57.5t-143.5 57.5t-57.5 142.5zM659 1378q0 -57 38 -96t96 -39q57 0 94 39t37 96q0 56 -37 93.5t-94 37.5q-58 0 -96 -37.5t-38 -93.5z" />
<glyph unicode="&#xe6;" horiz-adv-x="1742" d="M152 229q0 79 29 145.5t78 112.5t114.5 78t136.5 47t145 15q149 0 265 -52l28 134q8 33 8 69q0 91 -56 143t-148 52h-4q-211 0 -349 -168l-67 49q66 91 180 144t231 53q76 0 137.5 -22t105 -72t54.5 -123q77 105 183 162t225 57q152 0 235.5 -102.5t83.5 -276.5 q0 -89 -20 -176v-4h-750q-12 -71 -12 -136q0 -144 65.5 -226.5t184.5 -82.5q82 0 165 45.5t146 124.5l70 -53q-75 -92 -177.5 -142.5t-215.5 -50.5q-118 0 -198.5 62.5t-113.5 173.5q-114 -121 -235 -176t-232 -53q-125 0 -208.5 64t-83.5 185zM250 236q0 -88 54 -133.5 t145 -45.5q97 0 220 66t224 186q0 8 -1 25.5t-1 25.5q0 49 10 121q-85 68 -237 68q-75 0 -145.5 -18t-132 -54t-99 -98.5t-37.5 -142.5zM1016 569h651q8 74 8 107q0 141 -61.5 221t-177.5 80q-133 0 -250.5 -112.5t-169.5 -295.5z" />
<glyph unicode="&#xe7;" horiz-adv-x="970" d="M193 362q0 99 24 197.5t73 187.5t116 157t160.5 108.5t199.5 40.5q223 0 305 -195l-84 -43q-59 162 -235 162q-86 0 -162 -39.5t-130.5 -103.5t-94 -145t-59 -165.5t-19.5 -163.5q0 -145 69.5 -228t196.5 -83q173 0 303 162l70 -53q-148 -171 -359 -183l-92 -133 q56 25 111 25q57 0 91 -31.5t34 -79.5q0 -46 -28.5 -82.5t-72.5 -56t-90 -29.5t-88 -10q-70 0 -147 35l24 49q64 -31 133 -31q38 0 80.5 11t78.5 39t36 67q0 29 -19.5 46.5t-56.5 17.5q-24 0 -65.5 -8.5t-59.5 -18.5l-47 14l119 176q-150 9 -232.5 113t-82.5 274z" />
<glyph unicode="&#xe8;" horiz-adv-x="1034" d="M193 362q0 95 23.5 192.5t71 187t113 159t156 111t193.5 41.5q152 0 235.5 -102.5t83.5 -276.5q0 -98 -18 -176l-2 -4h-750q-12 -70 -12 -136q0 -144 65.5 -226.5t184.5 -82.5q83 0 165.5 45t145.5 125l70 -53q-75 -92 -178 -142.5t-216 -50.5q-156 0 -243.5 106 t-87.5 283zM317 569h652q8 74 8 107q0 141 -62 221t-178 80q-133 0 -250.5 -112.5t-169.5 -295.5zM485 1487h138l192 -307h-67z" />
<glyph unicode="&#xe9;" horiz-adv-x="1019" d="M193 362q0 95 23.5 192.5t71 187t113 159t156 111t193.5 41.5q152 0 235.5 -102.5t83.5 -276.5q0 -98 -18 -176l-2 -4h-750q-12 -70 -12 -136q0 -144 65.5 -226.5t184.5 -82.5q83 0 165.5 45t145.5 125l70 -53q-75 -92 -178 -142.5t-216 -50.5q-156 0 -243.5 106 t-87.5 283zM317 569h652q8 74 8 107q0 141 -62 221t-178 80q-133 0 -250.5 -112.5t-169.5 -295.5zM692 1180l307 307h160l-383 -307h-84z" />
<glyph unicode="&#xea;" horiz-adv-x="1028" d="M193 362q0 95 23.5 192.5t71 187t113 159t156 111t193.5 41.5q152 0 235.5 -102.5t83.5 -276.5q0 -98 -18 -176l-2 -4h-750q-12 -70 -12 -136q0 -144 65.5 -226.5t184.5 -82.5q83 0 165.5 45t145.5 125l70 -53q-75 -92 -178 -142.5t-216 -50.5q-156 0 -243.5 106 t-87.5 283zM317 569h652q8 74 8 107q0 141 -62 221t-178 80q-133 0 -250.5 -112.5t-169.5 -295.5zM426 1169l322 306h112l201 -306h-70l-194 234l-285 -234h-86z" />
<glyph unicode="&#xeb;" horiz-adv-x="1034" d="M193 362q0 95 23.5 192.5t71 187t113 159t156 111t193.5 41.5q152 0 235.5 -102.5t83.5 -276.5q0 -98 -18 -176l-2 -4h-750q-12 -70 -12 -136q0 -144 65.5 -226.5t184.5 -82.5q83 0 165.5 45t145.5 125l70 -53q-75 -92 -178 -142.5t-216 -50.5q-156 0 -243.5 106 t-87.5 283zM317 569h652q8 74 8 107q0 141 -62 221t-178 80q-133 0 -250.5 -112.5t-169.5 -295.5zM575 1366q0 28 19 48t47 20t48 -20t20 -48q0 -26 -20 -46t-48 -20q-27 0 -46.5 19.5t-19.5 46.5zM913 1366q0 28 19 48t47 20t48 -20t20 -48q0 -26 -20 -46t-48 -20 q-27 0 -46.5 19.5t-19.5 46.5z" />
<glyph unicode="&#xec;" horiz-adv-x="432" d="M193 1487h139l190 -307h-67zM197 0l219 1026h90l-219 -1026h-90z" />
<glyph unicode="&#xed;" horiz-adv-x="432" d="M154 0l217 1026h90l-217 -1026h-90zM373 1180l307 307h160l-383 -307h-84z" />
<glyph unicode="&#xee;" horiz-adv-x="432" d="M145 1169l322 306h113l200 -306h-69l-195 234l-285 -234h-86zM205 0l217 1026h90l-217 -1026h-90z" />
<glyph unicode="&#xef;" horiz-adv-x="432" d="M145 0l217 1026h91l-217 -1026h-91zM213 1366q0 28 20 48t48 20q27 0 46 -20t19 -48q0 -27 -19 -46.5t-46 -19.5q-28 0 -48 20t-20 46zM551 1366q0 28 19.5 48t47.5 20t47 -20t19 -48q0 -27 -19.5 -46.5t-46.5 -19.5q-28 0 -47.5 20t-19.5 46z" />
<glyph unicode="&#xf0;" horiz-adv-x="1150" d="M203 356q0 93 24.5 183.5t72.5 170t113.5 140.5t153 96t185.5 35q144 0 223 -53.5t123 -171.5q0 166 -31.5 274.5t-103.5 210.5l-234 -117l-35 64l224 108q-67 65 -162 113l45 59q106 -49 192 -135l162 82l37 -61l-158 -78q140 -184 140 -477q0 -115 -21 -227t-68.5 -220 t-117 -190t-174.5 -132t-232 -50q-168 0 -263 104t-95 272zM301 346q0 -141 73 -213t199 -72q104 0 193 47.5t147.5 124t91.5 172.5t33 195q0 46 -8 87t-28 80.5t-51.5 68t-81.5 46t-115 17.5q-86 0 -160 -32.5t-127 -87t-91 -125.5t-56.5 -149.5t-18.5 -158.5z" />
<glyph unicode="&#xf1;" horiz-adv-x="1013" d="M143 0l217 1026h91l-31 -152q65 86 154.5 129.5t187.5 43.5q136 0 203 -77.5t67 -209.5q0 -71 -14 -137l-133 -623h-90l137 645q12 62 12 115q0 103 -51 157t-150 54q-118 0 -230 -95t-148 -264l-132 -612h-90zM422 1233q19 87 78 137.5t143 50.5q44 0 83.5 -18t64 -40 t54.5 -40t56 -18q101 0 135 106l78 -4q-53 -182 -223 -182q-41 0 -78.5 18t-61 39t-56 39t-64.5 18q-90 0 -131 -114z" />
<glyph unicode="&#xf2;" horiz-adv-x="1069" d="M193 356q0 99 23 197.5t70.5 188.5t113.5 159.5t159 110.5t199 41q162 0 250 -103.5t88 -279.5q0 -99 -23 -197.5t-71 -188.5t-114 -159.5t-159.5 -110.5t-200.5 -41q-161 0 -248 103.5t-87 279.5zM287 354q0 -143 66 -224t192 -81q106 0 195.5 61t144.5 155t85.5 201 t30.5 206q0 144 -66.5 224.5t-193.5 80.5q-85 0 -160 -40t-127.5 -105.5t-91 -147.5t-57 -167t-18.5 -163zM565 1487h137l193 -307h-68z" />
<glyph unicode="&#xf3;" horiz-adv-x="1028" d="M193 356q0 99 23 197.5t70.5 188.5t113.5 159.5t159 110.5t199 41q162 0 250 -103.5t88 -279.5q0 -99 -23 -197.5t-71 -188.5t-114 -159.5t-159.5 -110.5t-200.5 -41q-161 0 -248 103.5t-87 279.5zM287 354q0 -143 66 -224t192 -81q106 0 195.5 61t144.5 155t85.5 201 t30.5 206q0 144 -66.5 224.5t-193.5 80.5q-85 0 -160 -40t-127.5 -105.5t-91 -147.5t-57 -167t-18.5 -163zM690 1180l307 307h160l-383 -307h-84z" />
<glyph unicode="&#xf4;" horiz-adv-x="1062" d="M193 356q0 99 23 197.5t70.5 188.5t113.5 159.5t159 110.5t199 41q162 0 250 -103.5t88 -279.5q0 -99 -23 -197.5t-71 -188.5t-114 -159.5t-159.5 -110.5t-200.5 -41q-161 0 -248 103.5t-87 279.5zM287 354q0 -143 66 -224t192 -81q106 0 195.5 61t144.5 155t85.5 201 t30.5 206q0 144 -66.5 224.5t-193.5 80.5q-85 0 -160 -40t-127.5 -105.5t-91 -147.5t-57 -167t-18.5 -163zM444 1169l322 306h113l200 -306h-69l-195 234l-285 -234h-86z" />
<glyph unicode="&#xf5;" horiz-adv-x="1032" d="M193 356q0 99 23 197.5t70.5 188.5t113.5 159.5t159 110.5t199 41q162 0 250 -103.5t88 -279.5q0 -99 -23 -197.5t-71 -188.5t-114 -159.5t-159.5 -110.5t-200.5 -41q-161 0 -248 103.5t-87 279.5zM287 354q0 -143 66 -224t192 -81q106 0 195.5 61t144.5 155t85.5 201 t30.5 206q0 144 -66.5 224.5t-193.5 80.5q-85 0 -160 -40t-127.5 -105.5t-91 -147.5t-57 -167t-18.5 -163zM434 1233q20 87 78.5 137.5t142.5 50.5q44 0 83.5 -18t64 -40t54.5 -40t56 -18q99 0 138 106l75 -4q-53 -182 -221 -182q-42 0 -80 18t-61.5 39t-56 39t-64.5 18 q-87 0 -131 -114z" />
<glyph unicode="&#xf6;" horiz-adv-x="1069" d="M193 356q0 99 23 197.5t70.5 188.5t113.5 159.5t159 110.5t199 41q162 0 250 -103.5t88 -279.5q0 -99 -23 -197.5t-71 -188.5t-114 -159.5t-159.5 -110.5t-200.5 -41q-161 0 -248 103.5t-87 279.5zM287 354q0 -143 66 -224t192 -81q106 0 195.5 61t144.5 155t85.5 201 t30.5 206q0 144 -66.5 224.5t-193.5 80.5q-85 0 -160 -40t-127.5 -105.5t-91 -147.5t-57 -167t-18.5 -163zM573 1366q0 28 19 48t47 20t48 -20t20 -48q0 -26 -20 -46t-48 -20q-27 0 -46.5 19.5t-19.5 46.5zM911 1366q0 28 19 48t47 20t47.5 -20t19.5 -48q0 -26 -20 -46 t-47 -20t-46.5 19.5t-19.5 46.5z" />
<glyph unicode="&#xf7;" d="M211 604l16 82h1059l-16 -82h-1059zM604 305q0 31 21.5 52.5t50.5 21.5q31 0 52.5 -21.5t21.5 -52.5q0 -29 -21.5 -50.5t-52.5 -21.5q-29 0 -50.5 21.5t-21.5 50.5zM743 983q0 29 21.5 50.5t52.5 21.5t52.5 -21.5t21.5 -50.5q0 -31 -21.5 -52.5t-52.5 -21.5t-52.5 21.5 t-21.5 52.5z" />
<glyph unicode="&#xf8;" horiz-adv-x="1073" d="M90 -59l172 186q-63 101 -63 246q0 100 25.5 198.5t76.5 186t120.5 154.5t163.5 106t199 39q153 0 252 -99l154 166l67 -41l-174 -188q56 -95 56 -236q0 -100 -25.5 -198.5t-76 -185.5t-120 -153.5t-163.5 -105.5t-199 -39q-150 0 -244 91l-155 -166zM293 375 q0 -106 37 -176l645 692q-77 90 -207 90q-105 0 -197 -58t-151 -148t-93 -195.5t-34 -204.5zM373 133q74 -80 198 -80q85 0 161.5 37.5t133 100.5t98 141.5t62.5 163t21 163.5q0 87 -31 164z" />
<glyph unicode="&#xf9;" horiz-adv-x="1007" d="M193 266q0 59 16 137l131 623h90l-137 -645q-12 -65 -12 -115q0 -104 50.5 -158.5t149.5 -54.5q74 0 149.5 38.5t141 123t90.5 199.5l129 612h90l-217 -1026h-90l31 150q-63 -86 -152 -128t-188 -42q-137 0 -204.5 76.5t-67.5 209.5zM508 1487h137l193 -307h-68z" />
<glyph unicode="&#xfa;" horiz-adv-x="966" d="M193 266q0 59 16 137l131 623h90l-137 -645q-12 -65 -12 -115q0 -104 50.5 -158.5t149.5 -54.5q74 0 149.5 38.5t141 123t90.5 199.5l129 612h90l-217 -1026h-90l31 150q-63 -86 -152 -128t-188 -42q-137 0 -204.5 76.5t-67.5 209.5zM633 1180l307 307h160l-383 -307h-84 z" />
<glyph unicode="&#xfb;" horiz-adv-x="1007" d="M193 266q0 59 16 137l131 623h90l-137 -645q-12 -65 -12 -115q0 -104 50.5 -158.5t149.5 -54.5q74 0 149.5 38.5t141 123t90.5 199.5l129 612h90l-217 -1026h-90l31 150q-63 -86 -152 -128t-188 -42q-137 0 -204.5 76.5t-67.5 209.5zM428 1169l322 306h112l201 -306h-70 l-194 234l-285 -234h-86z" />
<glyph unicode="&#xfc;" horiz-adv-x="1007" d="M193 266q0 59 16 137l131 623h90l-137 -645q-12 -65 -12 -115q0 -104 50.5 -158.5t149.5 -54.5q74 0 149.5 38.5t141 123t90.5 199.5l129 612h90l-217 -1026h-90l31 150q-65 -86 -154.5 -128t-187.5 -42q-136 0 -203 76.5t-67 209.5zM537 1366q0 28 19 48t46 20 q28 0 48 -20t20 -48q0 -26 -20 -46t-48 -20q-27 0 -46 19.5t-19 46.5zM874 1366q0 28 19 48t47 20t48 -20t20 -48q0 -26 -20 -46t-48 -20q-27 0 -46.5 19.5t-19.5 46.5z" />
<glyph unicode="&#xfd;" horiz-adv-x="917" d="M57 -410l15 72q32 -14 57 -14q77 0 129 88l154 266l-142 1024h92l111 -924l522 924h105l-764 -1311q-42 -72 -100.5 -106.5t-114.5 -34.5q-38 0 -64 16zM598 1180l307 307h160l-383 -307h-84z" />
<glyph unicode="&#xfe;" horiz-adv-x="1044" d="M55 -410l394 1850h90l-121 -570q136 179 356 179q133 0 209 -109.5t76 -280.5q0 -85 -21.5 -178.5t-64.5 -183.5t-102 -162.5t-141.5 -117t-174.5 -44.5q-210 0 -283 209l-125 -592h-92zM315 381q-2 -144 63 -239t171 -95q76 0 144.5 42.5t117 109.5t85 150t54 165 t17.5 152q0 138 -57.5 222.5t-161.5 84.5q-105 0 -203.5 -77t-163.5 -202z" />
<glyph unicode="&#xff;" horiz-adv-x="942" d="M57 -410l15 72q32 -14 57 -14q77 0 129 88l154 266l-142 1024h92l111 -924l522 924h105l-764 -1311q-42 -72 -100.5 -106.5t-114.5 -34.5q-38 0 -64 16zM500 1366q0 28 19.5 48t47.5 20t47 -20t19 -48q0 -27 -19.5 -46.5t-46.5 -19.5t-47 20t-20 46zM838 1366 q0 28 19.5 48t47.5 20t47 -20t19 -48q0 -27 -19.5 -46.5t-46.5 -19.5t-47 20t-20 46z" />
<glyph unicode="&#x152;" horiz-adv-x="2000" d="M236 545q0 133 37 266t108.5 251t167.5 209t223.5 144t267.5 53q33 0 63 -1.5t49 -2.5t47.5 -5.5l38 -6t44 -8t43.5 -8.5h860l-16 -78h-758l-121 -565h572l-17 -78h-571l-135 -637h798l-16 -78h-903q-140 -31 -297 -31q-119 0 -213.5 46t-152.5 126.5t-88.5 183 t-30.5 220.5zM322 545q0 -138 45 -249t141 -180t229 -69q168 0 318 43l266 1258q-74 26 -134 36.5t-165 10.5q-114 0 -223.5 -53t-194 -141.5t-149 -198.5t-99 -229t-34.5 -228z" />
<glyph unicode="&#x153;" horiz-adv-x="1812" d="M193 371q0 100 23.5 197.5t71.5 185t114.5 154.5t158.5 106t197 39q255 0 319 -269q77 127 192.5 198t248.5 71q152 0 235.5 -102.5t83.5 -276.5q0 -98 -18 -176l-2 -4h-750q-12 -71 -12 -136q0 -144 65.5 -226.5t184.5 -82.5q83 0 165.5 45t145.5 125l70 -53 q-75 -92 -178 -142.5t-216 -50.5q-127 0 -209.5 72t-109.5 199q-169 -271 -445 -271q-164 0 -249.5 107t-85.5 291zM287 369q0 -151 64.5 -235.5t193.5 -84.5q106 0 194.5 57.5t143.5 148.5t85.5 196t30.5 206q0 151 -64.5 235.5t-193.5 84.5q-106 0 -194.5 -57.5 t-143.5 -148.5t-85.5 -196t-30.5 -206zM1085 569h652q8 74 8 107q0 141 -62 221t-178 80q-133 0 -250.5 -112.5t-169.5 -295.5z" />
<glyph unicode="&#x178;" horiz-adv-x="1142" d="M336 1440h92l272 -778l609 778h108l-686 -858l-125 -582h-88l127 594zM682 1645q0 28 19 47.5t47 19.5t47.5 -19.5t19.5 -47.5q0 -27 -19.5 -46.5t-47.5 -19.5q-27 0 -46.5 19.5t-19.5 46.5zM1020 1645q0 28 18.5 47.5t46.5 19.5t48 -19.5t20 -47.5q0 -26 -20 -46 t-48 -20q-27 0 -46 19.5t-19 46.5z" />
<glyph unicode="&#x2c6;" horiz-adv-x="919" d="M391 1169l324 306h112l199 -306h-70l-194 234l-285 -234h-86z" />
<glyph unicode="&#x2dc;" horiz-adv-x="942" d="M406 1233q20 87 78.5 137.5t142.5 50.5q44 0 83.5 -18t64 -40t54.5 -40t56 -18q98 0 137 106l76 -4q-53 -182 -221 -182q-42 0 -80 18t-61.5 39t-56.5 39t-65 18q-90 0 -131 -114z" />
<glyph unicode="&#x2000;" horiz-adv-x="954" />
<glyph unicode="&#x2001;" horiz-adv-x="1909" />
<glyph unicode="&#x2002;" horiz-adv-x="954" />
<glyph unicode="&#x2003;" horiz-adv-x="1909" />
<glyph unicode="&#x2004;" horiz-adv-x="636" />
<glyph unicode="&#x2005;" horiz-adv-x="477" />
<glyph unicode="&#x2006;" horiz-adv-x="318" />
<glyph unicode="&#x2007;" horiz-adv-x="318" />
<glyph unicode="&#x2008;" horiz-adv-x="238" />
<glyph unicode="&#x2009;" horiz-adv-x="381" />
<glyph unicode="&#x200a;" horiz-adv-x="106" />
<glyph unicode="&#x2010;" horiz-adv-x="653" d="M246 680l16 78h451l-17 -78h-450z" />
<glyph unicode="&#x2011;" horiz-adv-x="653" d="M246 680l16 78h451l-17 -78h-450z" />
<glyph unicode="&#x2012;" horiz-adv-x="653" d="M246 680l16 78h451l-17 -78h-450z" />
<glyph unicode="&#x2013;" horiz-adv-x="991" d="M225 680l17 78h827l-14 -78h-830z" />
<glyph unicode="&#x2014;" horiz-adv-x="1267" d="M225 680l17 78h1104l-17 -78h-1104z" />
<glyph unicode="&#x2018;" horiz-adv-x="434" d="M285 956l321 506l64 -16l-258 -490h-127z" />
<glyph unicode="&#x2019;" horiz-adv-x="434" d="M274 950l258 490h125l-319 -508z" />
<glyph unicode="&#x201a;" horiz-adv-x="444" d="M27 -360l258 487h125l-320 -506z" />
<glyph unicode="&#x201c;" horiz-adv-x="761" d="M285 956l321 506l64 -16l-258 -490h-127zM614 956l322 506l61 -16l-258 -490h-125z" />
<glyph unicode="&#x201d;" horiz-adv-x="761" d="M274 950l258 490h125l-319 -508zM602 950l258 490h127l-321 -508z" />
<glyph unicode="&#x201e;" horiz-adv-x="772" d="M27 -360l258 487h125l-320 -506zM356 -360l258 487h125l-321 -506z" />
<glyph unicode="&#x2022;" horiz-adv-x="718" d="M285 735q0 97 67.5 166.5t163.5 69.5q95 0 163.5 -69.5t68.5 -164.5q0 -97 -68 -165t-164 -68t-163.5 67.5t-67.5 163.5z" />
<glyph unicode="&#x2026;" horiz-adv-x="1091" d="M96 80q0 43 30 72.5t73 29.5q41 0 70.5 -29.5t29.5 -72.5q0 -41 -29.5 -70.5t-70.5 -29.5q-43 0 -73 29.5t-30 70.5zM463 80q0 43 29.5 72.5t70.5 29.5q43 0 73 -29.5t30 -72.5q0 -41 -30 -70.5t-73 -29.5q-41 0 -70.5 29.5t-29.5 70.5zM827 80q0 42 29.5 72t71.5 30 q43 0 72.5 -29.5t29.5 -72.5q0 -41 -29.5 -70.5t-72.5 -29.5q-41 0 -71 29.5t-30 70.5z" />
<glyph unicode="&#x202f;" horiz-adv-x="381" />
<glyph unicode="&#x2039;" horiz-adv-x="585" d="M207 592l424 455l80 -29l-414 -438l227 -422h-86z" />
<glyph unicode="&#x203a;" horiz-adv-x="583" d="M115 156l420 434l-226 436l76 18l240 -466l-404 -422h-106z" />
<glyph unicode="&#x205f;" horiz-adv-x="477" />
<glyph unicode="&#x20ac;" horiz-adv-x="1351" d="M115 537l16 77h199q12 112 47 222h-199l17 77h208q96 252 277.5 403.5t409.5 151.5q183 0 290.5 -97.5t141.5 -264.5l-90 -31q-25 145 -113 230.5t-248 85.5q-165 0 -321.5 -134t-245.5 -344h530l-16 -77h-545q-35 -110 -47 -222h545l-17 -77h-536q0 -8 -1 -26t-1 -26 q0 -94 20 -170t62 -137t115 -95t173 -34q116 0 229.5 65t205.5 181l73 -55q-104 -128 -238.5 -199.5t-287.5 -71.5q-114 0 -201 40.5t-140 113t-79 165.5t-26 204v45h-207z" />
<glyph unicode="&#x2122;" horiz-adv-x="1523" d="M395 1372l15 68h542l-14 -68h-231l-146 -680h-78l146 680h-234zM915 692l158 748h98l91 -621l350 621h117l-160 -748h-78q38 181 84 396t54 247q4 14 7 25l-376 -670h-41l-95 653q-10 -78 -16.5 -109.5t-114.5 -541.5h-78z" />
<glyph unicode="&#xe000;" horiz-adv-x="1024" d="M0 0v1024h1024v-1024h-1024z" />
</font>
</defs>
</svg>
