<?xml version="1.0" standalone="no"?>
<!DOCTYPE svg PUBLIC "-//W3C//DTD SVG 1.1//EN" "http://www.w3.org/Graphics/SVG/1.1/DTD/svg11.dtd" >
<svg xmlns="http://www.w3.org/2000/svg">
<metadata></metadata>
<defs>
<font id="district_black_italicBlkIt" horiz-adv-x="1650" >
<font-face units-per-em="2048" ascent="1638" descent="-410" />
<missing-glyph horiz-adv-x="614" />
<glyph unicode="&#xfb01;" horiz-adv-x="1468" d="M227 0l166 793h-153l59 274h152l14 78q29 156 140.5 242t275.5 86q101 0 180.5 -17t120.5 -41l-45 -217q-64 35 -133 35q-45 0 -82.5 -26.5t-47.5 -69.5l-14 -70h692l-227 -1067h-410l168 793h-282l-168 -793h-406z" />
<glyph unicode="&#xfb02;" horiz-adv-x="1556" d="M225 0l166 793h-151l57 274h152l12 78q29 158 131.5 243t263.5 85q185 0 279 -58l-45 -217q-64 35 -113 35q-16 0 -29 -3t-23.5 -10.5t-18.5 -13t-15 -19.5t-11 -21t-8.5 -24.5t-6.5 -24t-6 -26.5t-5 -24h207l-57 -274h-207l-168 -793h-404zM997 0l308 1440h413 l-305 -1440h-416z" />
<glyph unicode="&#xd;" horiz-adv-x="2048" />
<glyph unicode=" "  horiz-adv-x="614" />
<glyph unicode="&#x09;" horiz-adv-x="614" />
<glyph unicode="&#xa0;" horiz-adv-x="614" />
<glyph unicode="!" horiz-adv-x="688" d="M178 174q0 85 59 144t144 59q86 0 145.5 -59t59.5 -144q0 -84 -59.5 -142.5t-145.5 -58.5q-85 0 -144 59t-59 142zM324 520l22 469l96 451h400l-97 -453l-174 -467h-247z" />
<glyph unicode="&#x22;" horiz-adv-x="1081" d="M371 799l32 616q1 32 58.5 50t146.5 18q72 0 116 -16t44 -44v-4l-227 -620h-170zM883 799l35 616q1 32 58.5 50t145.5 18q72 0 116 -16t44 -44v-4l-227 -620h-172z" />
<glyph unicode="#" horiz-adv-x="1611" d="M211 315l57 283h234l51 252h-231l57 283h233l64 305h313l-63 -305h229l64 305h315l-64 -305h240l-59 -283h-238l-51 -252h237l-59 -283h-237l-64 -315h-317l67 315h-231l-66 -315h-315l67 315h-233zM813 584h227l60 278h-230z" />
<glyph unicode="$" horiz-adv-x="1503" d="M156 240l297 237q68 -74 170.5 -110.5t220.5 -36.5q33 0 64 3.5t70.5 13t64 32.5t24.5 57q0 18 -11 34t-33 29t-43 22.5t-53.5 18.5t-51.5 14t-50 11.5t-37 7.5q-66 16 -118.5 34t-110 49t-96 70t-63.5 97.5t-25 130.5q0 104 42 190t115 143t165 91.5t198 44.5l31 138 h315l-29 -129q267 -31 437 -195l-287 -256q-148 127 -369 127q-28 0 -55.5 -4.5t-56.5 -15t-46.5 -32.5t-17.5 -52q0 -36 45 -59.5t150 -45.5q114 -24 200 -56.5t154.5 -79t104.5 -112t36 -147.5q0 -122 -48 -216.5t-132 -152.5t-188.5 -90t-227.5 -39l-26 -129h-316l27 133 q-271 39 -440 230z" />
<glyph unicode="%" horiz-adv-x="2271" d="M297 918q0 152 64 274.5t187 195t283 72.5t245 -100.5t85 -261.5q0 -151 -64 -276.5t-187.5 -202t-282.5 -76.5q-101 0 -177.5 52t-114.5 136t-38 187zM588 864q0 -108 88 -108q51 0 90.5 43t60.5 107t31 125.5t10 111.5q0 108 -84 108q-41 0 -75 -29t-56 -73t-37 -98 t-21.5 -101.5t-6.5 -85.5zM618 0l1068 1458l260 -18q-527 -720 -536 -730t-536 -730zM1417 346q0 152 64.5 275.5t187 196.5t281.5 73q160 0 244.5 -101t84.5 -262q0 -152 -64 -277.5t-186.5 -201.5t-281.5 -76q-102 0 -178.5 52t-114 135.5t-37.5 185.5zM1708 293 q0 -53 20 -80t68 -27q50 0 90 43t61 106.5t31.5 125t10.5 110.5q0 111 -84 111q-50 0 -90.5 -43t-62.5 -107.5t-33 -127t-11 -111.5z" />
<glyph unicode="&#x26;" horiz-adv-x="1585" d="M180 326q0 138 94 265t254 187q-53 106 -53 215q0 212 177 348t464 136q146 0 301 -48.5t256 -140.5l-264 -250q-64 45 -147.5 68.5t-161.5 23.5q-93 0 -155 -32.5t-62 -89.5q0 -32 24 -72l264 -401q36 39 56 86h346q-28 -92 -89 -196t-126 -171l166 -254h-498l-27 45 q-134 -72 -315 -72q-129 0 -227.5 28t-158 77.5t-89 112t-29.5 135.5zM594 389q0 -42 33.5 -68t97.5 -26q39 0 98 16l-133 207q-45 -24 -70.5 -59.5t-25.5 -69.5z" />
<glyph unicode="'" horiz-adv-x="567" d="M371 799l32 616q1 32 58.5 50t146.5 18q72 0 116 -16t44 -44v-4l-227 -620h-170z" />
<glyph unicode="(" horiz-adv-x="794" d="M205 397q0 187 53 365.5t149.5 333.5t218.5 288t275 254l143 -155q-132 -137 -225 -261t-163 -265t-104 -297t-34 -336q0 -333 141 -570l-186 -127q-126 151 -197 351t-71 419z" />
<glyph unicode=")" horiz-adv-x="796" d="M14 -217q132 136 225 260t163.5 265t104.5 297t34 335q0 328 -142 569l187 129q125 -152 195.5 -351.5t70.5 -418.5q0 -187 -52.5 -365.5t-149 -333.5t-218.5 -288.5t-274 -253.5z" />
<glyph unicode="*" horiz-adv-x="1036" d="M299 928l283 92l-244 84l143 203l193 -144l33 281h231l-84 -266l258 147l59 -209l-297 -100l256 -101l-149 -198l-195 147l-28 -274h-234l86 270l-256 -143z" />
<glyph unicode="+" horiz-adv-x="1355" d="M209 498l63 305h416l90 422h324l-90 -422h413l-65 -305h-414l-90 -424h-321l90 424h-416z" />
<glyph unicode="," horiz-adv-x="657" d="M2 -229l260 528h387l-373 -573z" />
<glyph unicode="-" horiz-adv-x="823" d="M211 506l78 368h618l-78 -368h-618z" />
<glyph unicode="." horiz-adv-x="565" d="M115 174q0 85 59.5 144t144.5 59t145 -59t60 -144q0 -83 -60 -142t-145 -59t-144.5 59t-59.5 142z" />
<glyph unicode="/" horiz-adv-x="1175" d="M20 -92l1016 1624h424l-1014 -1624h-426z" />
<glyph unicode="0" horiz-adv-x="1474" d="M227 524q0 144 35 281.5t105.5 257.5t167.5 211t229 143.5t283 52.5q102 0 186 -30.5t142.5 -83t98.5 -125t59 -155.5t19 -175q0 -140 -37 -276.5t-110 -254t-171.5 -207t-230 -141t-278.5 -51.5q-226 0 -362 150.5t-136 402.5zM641 506q0 -213 160 -213q70 0 128.5 47.5 t96 119.5t64 160.5t38 168.5t11.5 145q0 221 -156 221q-68 0 -126.5 -48t-97 -122t-66 -163t-40 -170.5t-12.5 -145.5z" />
<glyph unicode="1" horiz-adv-x="1050" d="M344 942l62 289q311 8 372 209h373l-305 -1440h-432l207 967q-24 -10 -117 -17.5t-160 -7.5z" />
<glyph unicode="2" horiz-adv-x="1392" d="M102 0q57 237 228 417t442 326q8 4 38.5 20.5t47 26t47 28.5t49 33t42.5 36t37 41t22.5 43.5t9.5 48.5q0 50 -36 88.5t-116 38.5q-65 0 -137 -49t-164 -160l-286 172q253 367 653 367q102 0 193 -25t164 -73.5t116 -129t43 -182.5q0 -342 -405 -522q-164 -74 -249.5 -122 t-142.5 -101h641l-67 -322h-1170z" />
<glyph unicode="3" horiz-adv-x="1439" d="M147 311l304 152q43 -95 112 -139.5t187 -44.5q50 0 92.5 8.5t81.5 28t61.5 57.5t22.5 92q0 44 -29 72t-69 37t-91 8h-4h-156l62 286h137q232 0 232 170q0 54 -37.5 92.5t-124.5 38.5q-189 0 -320 -198l-278 153q120 191 276 270t379 79q98 0 188 -24t162.5 -69.5 t116 -117.5t43.5 -160q0 -135 -71.5 -220t-209.5 -141q78 -20 140.5 -91t62.5 -179q0 -111 -45.5 -199.5t-117.5 -144t-169.5 -92t-194.5 -51.5t-198 -15q-201 0 -334 83t-211 259z" />
<glyph unicode="4" horiz-adv-x="1544" d="M160 274l73 334l875 832h465l-184 -867h174l-64 -301h-174l-57 -272h-434l59 274h-733zM610 573h346l88 416z" />
<glyph unicode="5" horiz-adv-x="1468" d="M164 289l317 157q42 -85 113.5 -126t183.5 -41q123 0 205 66.5t82 186.5q0 66 -43.5 103t-126.5 37q-55 0 -102 -14t-72.5 -29.5t-61.5 -42.5l-327 78l227 776h1045l-82 -310h-717l-64 -221q133 64 303 64q199 0 318 -103.5t119 -275.5q0 -123 -42.5 -226.5t-116 -175.5 t-171.5 -122.5t-208.5 -74.5t-227.5 -24q-197 0 -332.5 77.5t-218.5 240.5z" />
<glyph unicode="6" horiz-adv-x="1462" d="M211 473q0 117 28.5 237t81 230.5t130.5 207.5t171.5 168.5t210.5 112.5t242 41q148 0 244 -39t166 -116l-234 -238q-37 45 -90 65.5t-135 20.5q-55 0 -107 -23t-91 -59.5t-72.5 -83.5t-54.5 -92t-33 -88q150 115 360 115q206 0 327.5 -107t121.5 -278q0 -118 -43.5 -216 t-116 -164t-170 -111.5t-203.5 -66t-219 -20.5q-246 0 -380 138t-134 366zM598 412q0 -68 50.5 -109t144.5 -41q113 0 194.5 66t81.5 176q0 70 -49 109.5t-137 39.5q-115 0 -200 -64.5t-85 -176.5z" />
<glyph unicode="7" horiz-adv-x="1351" d="M309 0q55 169 115 310.5t141 286t187.5 276t236.5 245.5h-678l68 322h1157l-59 -279q-312 -252 -483.5 -518t-278.5 -643h-406z" />
<glyph unicode="8" horiz-adv-x="1490" d="M186 340q0 148 85.5 260t228.5 164q-54 36 -85.5 100t-31.5 133q0 97 43 179t112.5 136.5t159 92.5t181 55t180.5 17q73 0 141 -11.5t132.5 -37.5t112 -64.5t76.5 -97.5t29 -131q0 -124 -58.5 -213.5t-170.5 -155.5q75 -38 118.5 -111.5t43.5 -160.5q0 -110 -47 -199.5 t-123 -147.5t-176 -97.5t-200.5 -56t-201.5 -16.5q-80 0 -155 11.5t-147.5 38.5t-126.5 67.5t-87 103.5t-33 142zM592 414q0 -26 9.5 -51t31 -50t64 -40t100.5 -15q65 0 128.5 23.5t109.5 75t46 118.5q0 61 -50.5 102.5t-156.5 40.5h-2q-65 0 -126.5 -20t-107.5 -68.5 t-46 -115.5zM762 1006q0 -49 42.5 -83t131.5 -34q57 0 106 17t84 58t35 99q0 52 -37.5 92.5t-126.5 40.5h-2q-83 2 -158 -52.5t-75 -137.5z" />
<glyph unicode="9" horiz-adv-x="1462" d="M283 125l233 237q37 -45 90 -65.5t137 -20.5q68 0 130.5 34.5t106.5 89t74 111.5t46 112q-153 -117 -361 -117q-205 0 -325.5 109.5t-120.5 281.5q0 116 41.5 212.5t111.5 162t164.5 111t199 66.5t216.5 21q164 0 285.5 -66.5t183 -182t61.5 -263.5q0 -141 -39.5 -283.5 t-116.5 -268.5t-180 -224t-239.5 -155.5t-286.5 -57.5q-149 0 -244.5 39.5t-166.5 116.5zM698 936q0 -70 49.5 -110t137.5 -40q115 0 199.5 65t84.5 177q0 68 -50 109t-144 41q-113 0 -195 -66.5t-82 -175.5z" />
<glyph unicode=":" horiz-adv-x="602" d="M135 174q0 85 60 144t145 59t145 -59t60 -144q0 -83 -60 -142t-145 -59t-145 59t-60 142zM283 879q0 85 59.5 143.5t144.5 58.5t145 -59t60 -143q0 -83 -60 -142t-145 -59t-144.5 59t-59.5 142z" />
<glyph unicode=";" horiz-adv-x="688" d="M2 -229l260 528h387l-373 -573zM350 879q0 84 60 143t145 59t145 -59t60 -143q0 -83 -60 -142t-145 -59t-145 59t-60 142z" />
<glyph unicode="&#x3c;" horiz-adv-x="1255" d="M207 588l57 260l1219 606l-88 -414l-777 -348l627 -358l-76 -348z" />
<glyph unicode="=" horiz-adv-x="1386" d="M158 244l67 317h1180l-68 -317h-1179zM264 752l68 315h1179l-67 -315h-1180z" />
<glyph unicode="&#x3e;" horiz-adv-x="1255" d="M80 -14l86 413l778 349l-627 356l74 350l963 -602l-58 -262z" />
<glyph unicode="?" horiz-adv-x="1292" d="M334 1188q115 157 262 223t352 66q134 0 246.5 -41t186 -129.5t73.5 -210.5q0 -81 -31.5 -147t-81.5 -110t-110.5 -80t-121.5 -63t-111 -52.5t-81.5 -56.5t-31.5 -67h-348q0 74 28 136t72.5 104.5t98.5 79t108.5 65.5t99 56t72.5 58.5t28 65.5q0 44 -40 66.5t-113 22.5 q-94 0 -180.5 -59.5t-139.5 -137.5zM453 176q0 85 59 144t145 59q85 0 145 -59t60 -144q0 -83 -60 -142t-145 -59q-86 0 -145 58.5t-59 142.5z" />
<glyph unicode="@" horiz-adv-x="1695" d="M231 557q0 180 70 346.5t188 289t283.5 196t347.5 73.5t328.5 -78.5t229.5 -219t83 -316.5q0 -75 -15.5 -157t-49.5 -165t-82.5 -148.5t-121.5 -107t-159 -41.5q-71 0 -115 23t-83 82q-97 -103 -273 -103q-129 0 -202.5 87.5t-73.5 222.5q0 110 47 211.5t138.5 168 t205.5 66.5q79 0 132 -19t95 -71l21 70h194l-112 -494q-4 -16 -4 -27q0 -63 61 -63q59 0 106.5 53t73.5 129.5t39.5 148.5t13.5 124q0 148 -70 257t-180.5 161.5t-244.5 52.5q-147 0 -280 -61.5t-226.5 -163.5t-149 -238t-55.5 -281q0 -111 34 -204t90 -155t131 -104.5 t154.5 -62t162.5 -19.5q78 0 151 17t136.5 48.5t100.5 54.5t85 57l69 -129q-47 -31 -63.5 -41.5t-68.5 -42t-89 -46t-92 -34.5t-112 -28.5t-117 -8.5q-89 0 -176 19t-169 55.5t-152 95t-122.5 133t-82.5 174t-30 213.5zM813 549q0 -59 33 -91t90 -32q64 0 111.5 43 t67.5 99.5t20 115.5q0 123 -121 123q-60 0 -107.5 -42t-70.5 -100t-23 -116z" />
<glyph unicode="A" horiz-adv-x="1646" d="M61 0l844 1438h459l221 -1438h-436l-19 225h-464l-113 -225h-492zM827 545h277l-41 471z" />
<glyph unicode="B" horiz-adv-x="1564" d="M143 0l306 1440h819q97 0 172.5 -26.5t121 -71.5t68.5 -100t23 -118q0 -115 -73 -216.5t-198 -141.5q83 -36 126.5 -110t43.5 -167q0 -68 -23.5 -136.5t-73.5 -132t-120 -112.5t-171.5 -78.5t-219.5 -29.5h-801zM645 311h291q78 0 131 50t53 126q0 55 -38 80t-91 25h-286 zM768 895h268q74 0 120 38.5t46 110.5q0 86 -110 86h-273z" />
<glyph unicode="C" horiz-adv-x="1515" d="M231 563q0 190 68.5 357.5t188 288t290 190t365.5 69.5q232 0 367.5 -98t179.5 -276l-420 -140q-19 77 -72.5 117.5t-132.5 40.5q-77 0 -142.5 -35t-109.5 -91.5t-75.5 -129t-45.5 -146.5t-14 -145q0 -118 52.5 -180.5t150.5 -62.5q76 0 150 38.5t128 104.5l320 -227 q-117 -140 -272.5 -206.5t-368.5 -66.5q-152 0 -271 48.5t-191 132.5t-108.5 189.5t-36.5 227.5z" />
<glyph unicode="D" horiz-adv-x="1566" d="M143 0l308 1440h567q315 -1 472 -138.5t157 -394.5q0 -444 -233 -675.5t-691 -231.5h-580zM653 336h115q90 0 164 30t124 80.5t84 119t49 145t15 159.5q0 113 -60 171.5t-196 58.5h-131z" />
<glyph unicode="E" horiz-adv-x="1366" d="M143 0l306 1440h1124l-68 -326h-690l-43 -203h526l-67 -321h-526l-58 -266h727l-69 -324h-1162z" />
<glyph unicode="F" horiz-adv-x="1327" d="M143 0l306 1440h1142l-69 -330h-707l-49 -229h539l-68 -324h-541l-118 -557h-435z" />
<glyph unicode="G" horiz-adv-x="1593" d="M233 561q0 191 66.5 358t184.5 288.5t289 191t372 69.5q232 0 367 -98t178 -276l-418 -140q-19 77 -72.5 117.5t-132.5 40.5q-77 0 -142 -34.5t-109.5 -90.5t-75.5 -127.5t-45.5 -145t-14.5 -143.5q0 -123 57 -188.5t164 -65.5q109 0 189 47t118 136h-243l61 293h653 l-37 -175q-69 -317 -275 -485t-527 -168q-123 0 -224 31.5t-171.5 87t-118.5 131t-70.5 162.5t-22.5 184z" />
<glyph unicode="H" horiz-adv-x="1581" d="M143 0l306 1440h432l-111 -525h428l113 525h434l-307 -1440h-434l120 561h-430l-119 -561h-432z" />
<glyph unicode="I" horiz-adv-x="718" d="M143 0l306 1440h432l-306 -1440h-432z" />
<glyph unicode="J" horiz-adv-x="1230" d="M74 240l297 184q32 -102 145 -102q101 0 168 70t96 208l178 840h437l-174 -813q-32 -152 -91.5 -269t-128.5 -186t-155 -113t-163 -59.5t-159 -15.5q-162 0 -269 56t-181 200z" />
<glyph unicode="K" horiz-adv-x="1660" d="M143 0l306 1440h434l-113 -529l528 527h576l-645 -574l334 -866h-461l-203 573l-248 -221l-76 -350h-432z" />
<glyph unicode="L" horiz-adv-x="1208" d="M143 0l308 1440h432l-230 -1086h590l-76 -354h-1024z" />
<glyph unicode="M" horiz-adv-x="1953" d="M143 0l306 1440h522l106 -873l475 873h566l-308 -1440h-432l195 913l-498 -913h-201l-108 899l-191 -899h-432z" />
<glyph unicode="N" horiz-adv-x="1667" d="M143 0l306 1440h432l333 -867l185 867h432l-307 -1440h-432l-330 874l-187 -874h-432z" />
<glyph unicode="O" d="M231 565q0 255 115 463t324 328.5t471 120.5q145 0 258.5 -47t183.5 -128.5t105.5 -186.5t35.5 -226q0 -190 -68 -360t-186.5 -294.5t-289 -197t-367.5 -72.5q-118 0 -216 32.5t-165 88.5t-113 132.5t-67 163.5t-21 183zM676 567q0 -119 55.5 -182t163.5 -63 q75 0 140 35.5t108.5 92.5t74.5 129.5t45.5 146t14.5 142.5q0 112 -50.5 183t-164.5 71q-77 0 -142 -36t-109.5 -94t-75.5 -131.5t-45.5 -148.5t-14.5 -145z" />
<glyph unicode="P" horiz-adv-x="1447" d="M143 0l306 1440h725q221 0 337.5 -105t116.5 -284q0 -183 -86 -316.5t-231.5 -199.5t-331.5 -66l-301 -2l-100 -467h-435zM743 780h218q105 0 171 61t66 165q0 120 -151 120h-230z" />
<glyph unicode="Q" d="M231 547q0 191 67.5 362t186 296t289.5 198.5t367 73.5q117 0 213.5 -30t164.5 -83t114.5 -126.5t68.5 -159.5t22 -183q0 -197 -82 -382.5t-227 -319.5l84 -168l-362 -199l-86 168q-119 -29 -238 -29q-148 0 -261.5 46.5t-182.5 127.5t-103.5 184.5t-34.5 223.5zM676 567 q0 -239 209 -245l-84 170l362 198l56 -110q59 145 59 288q0 112 -50.5 183t-164.5 71q-77 0 -142 -36t-109.5 -94t-75.5 -131.5t-45.5 -148.5t-14.5 -145z" />
<glyph unicode="R" horiz-adv-x="1497" d="M143 0l308 1440h725q218 0 334 -103.5t116 -271.5q0 -178 -105.5 -312t-281.5 -204l195 -549h-439l-155 496h-158l-104 -496h-435zM748 801h190q107 0 181.5 53.5t74.5 155.5q0 116 -170 116h-207z" />
<glyph unicode="S" horiz-adv-x="1443" d="M139 193l285 256q69 -66 165.5 -100t203.5 -34q103 0 170 33.5t67 77.5q0 20 -12 37.5t-36 31.5t-47.5 25t-58.5 21t-56.5 15.5t-55 12.5t-39.5 9q-78 20 -142.5 50.5t-121.5 77.5t-89 117t-32 156q0 106 36.5 191.5t98.5 142t148.5 94t183 54t205.5 16.5q401 0 604 -211 l-275 -267q-149 131 -368 131q-96 0 -145.5 -27.5t-49.5 -62.5q0 -29 21 -52.5t59.5 -39.5t71.5 -25.5t80 -19.5t61 -14q198 -54 298.5 -164t100.5 -254q0 -250 -188.5 -376t-540.5 -126q-394 0 -602 224z" />
<glyph unicode="T" horiz-adv-x="1286" d="M279 1114l69 326h1202l-67 -326h-385l-238 -1114h-434l236 1114h-383z" />
<glyph unicode="U" horiz-adv-x="1505" d="M217 430q0 65 21 168l178 842h432l-182 -862q-11 -60 -11 -95q0 -161 164 -161q210 0 262 256l185 862h434l-170 -797q-143 -674 -758 -674q-271 0 -413 121t-142 340z" />
<glyph unicode="V" horiz-adv-x="1646" d="M367 1438h436l86 -1016l510 1016h491l-841 -1438h-461z" />
<glyph unicode="W" horiz-adv-x="2076" d="M367 1438h417l-32 -934l387 934h368v-934l357 936h456l-653 -1440h-436v934l-387 -934h-434z" />
<glyph unicode="X" horiz-adv-x="1742" d="M61 0l713 788l-287 650h453l137 -396l312 396h542l-635 -701l330 -737h-455l-176 483l-383 -483h-551z" />
<glyph unicode="Y" horiz-adv-x="1609" d="M336 1440h450l166 -533l389 533h543l-770 -881l-119 -559h-436l125 590z" />
<glyph unicode="Z" horiz-adv-x="1396" d="M72 0l61 287l860 825h-643l70 328h1210l-61 -291l-848 -815h676l-72 -334h-1253z" />
<glyph unicode="[" horiz-adv-x="827" d="M55 -410l455 2116h598l-57 -266h-242l-340 -1583h223l-57 -267h-580z" />
<glyph unicode="\" horiz-adv-x="1101" d="M356 1532h371l324 -1624h-369z" />
<glyph unicode="]" horiz-adv-x="806" d="M-6 -410l57 267h223l340 1583h-223l55 266h580l-453 -2116h-579z" />
<glyph unicode="^" horiz-adv-x="1382" d="M291 688l575 752h271l249 -752h-315l-119 408l-295 -408h-366z" />
<glyph unicode="_" horiz-adv-x="1024" d="M-80 -330l41 191h1045l-41 -191h-1045z" />
<glyph unicode="`" horiz-adv-x="825" d="M465 1485h383l92 -303h-223z" />
<glyph unicode="a" horiz-adv-x="1314" d="M164 264q0 63 22.5 125.5t70 120.5t115 102t165 70.5t211.5 26.5q52 0 149 -11q4 14 4 41q0 44 -30 67t-83 23t-118.5 -24.5t-122.5 -73.5l-236 141q227 224 563 224q219 0 324 -79.5t105 -219.5q0 -42 -13 -99l-116 -553q-3 -6 -3 -12q0 -29 68 -29l-22 -104h-345 q-95 0 -106 68q-123 -91 -301 -91q-142 0 -221.5 82.5t-79.5 204.5zM549 334q0 -30 21.5 -54t58.5 -24q45 0 102.5 24t87.5 62l27 125q-37 6 -68 6q-111 0 -170 -44t-59 -95z" />
<glyph unicode="b" horiz-adv-x="1325" d="M143 0l306 1440h407l-90 -430q123 88 270 88q144 0 234 -95.5t90 -279.5q0 -101 -22 -204.5t-69 -201.5t-113 -174t-161.5 -122t-206.5 -46q-141 0 -223 88l-14 -63h-408zM631 373q19 -78 119 -78q50 0 89.5 38.5t61.5 96.5t33.5 117.5t11.5 111.5q0 123 -90 123 q-55 0 -99.5 -42t-70.5 -103z" />
<glyph unicode="c" horiz-adv-x="1193" d="M199 422q0 194 82 348.5t236.5 244t354.5 89.5q155 0 263 -71t155 -206l-313 -180v6q0 59 -39 99q-41 42 -107 41q-61 0 -114.5 -63t-81 -145t-27.5 -153q0 -68 32 -108.5t73 -40.5q126 0 213 157l276 -184q-85 -129 -223 -208t-315 -79q-216 0 -340.5 125t-124.5 328z " />
<glyph unicode="d" horiz-adv-x="1329" d="M195 358q0 99 21 200.5t66.5 199t109 173t156.5 121.5t202 46q147 0 237 -90l92 432h412l-305 -1440h-412l12 61q-117 -86 -256 -86q-161 0 -248 101t-87 282zM606 414q0 -119 92 -119q98 0 160 100l51 246q0 61 -25.5 101t-78.5 40q-49 0 -89 -39t-63 -98t-35 -119.5 t-12 -111.5z" />
<glyph unicode="e" horiz-adv-x="1265" d="M201 416q0 140 49.5 265.5t136 218t211 146.5t268.5 54q114 0 199 -31t136.5 -88.5t76.5 -134t25 -172.5q0 -126 -37 -238h-672q-2 -12 -2 -35q0 -129 133 -129q66 0 124 25t130 82l227 -213q-122 -103 -254.5 -151t-292.5 -48q-219 0 -338.5 126.5t-119.5 322.5z M641 664h287q2 6 2 18q0 135 -113 135q-114 0 -176 -153z" />
<glyph unicode="f" horiz-adv-x="903" d="M225 0l166 793h-153l59 274h149l15 78q29 158 131 243t262 85q183 0 281 -58l-48 -217q-64 35 -110 35q-16 0 -29 -3t-23.5 -10.5t-18.5 -13t-15 -19.5t-11 -21t-8.5 -24.5t-6.5 -24t-6 -26.5t-5 -24h207l-60 -274h-204l-168 -793h-404z" />
<glyph unicode="g" horiz-adv-x="1329" d="M98 -199q119 70 194.5 112t91.5 49l15 7q20 -73 74 -110t119 -37q80 0 129 53.5t70 179.5q-72 -46 -128.5 -65t-134.5 -19q-155 0 -241 116t-86 302q0 103 21 202.5t67 191t111.5 160.5t161 110t208.5 41q149 0 219 -97l15 72h409l-199 -928q-70 -327 -236.5 -474.5 t-457.5 -147.5q-141 0 -257 76.5t-165 205.5zM610 412q0 -127 109 -127q27 0 55 15t42 28t40 41q10 29 59 278q-5 63 -39.5 99t-68.5 36q-48 0 -88 -39.5t-62.5 -99t-34.5 -120.5t-12 -111z" />
<glyph unicode="h" horiz-adv-x="1349" d="M143 0l306 1440h407l-94 -439q131 105 303 105q158 0 234.5 -78.5t76.5 -216.5q0 -68 -14 -137l-143 -674h-414l129 612q8 46 8 66q0 42 -21.5 63t-76.5 21q-59 0 -104 -42.5t-60 -113.5l-129 -606h-408z" />
<glyph unicode="i" horiz-adv-x="690" d="M152 0l225 1067h414l-226 -1067h-413zM422 1319q0 88 61.5 149.5t149.5 61.5t149.5 -61.5t61.5 -149.5t-61.5 -149.5t-149.5 -61.5t-149.5 61.5t-61.5 149.5z" />
<glyph unicode="j" horiz-adv-x="737" d="M-121 -399l80 323q37 -18 76 -18q77 0 116 41t54 116l213 1004h411l-219 -1038q-41 -195 -191.5 -332t-342.5 -137q-95 0 -197 41zM469 1321q0 88 61.5 149.5t149.5 61.5t149.5 -61.5t61.5 -149.5t-61.5 -149.5t-149.5 -61.5t-149.5 61.5t-61.5 149.5z" />
<glyph unicode="k" horiz-adv-x="1370" d="M143 0l306 1440h411l-139 -654l297 281h526l-461 -387l189 -680h-422l-96 397l-142 -121l-59 -276h-410z" />
<glyph unicode="l" horiz-adv-x="702" d="M143 0l308 1440h415l-307 -1440h-416z" />
<glyph unicode="m" horiz-adv-x="2045" d="M143 0l230 1069h409l-18 -94q141 117 311 117q109 0 182 -34t117 -116q159 150 373 150q160 0 236.5 -77.5t76.5 -215.5q0 -71 -14 -137l-141 -662h-418l125 586q8 36 8 71q0 46 -21.5 69.5t-74.5 23.5q-60 0 -106.5 -43.5t-63.5 -118.5l-125 -588h-416l127 592 q8 46 8 65q0 93 -96 93q-64 0 -110 -45t-60 -111l-127 -594h-412z" />
<glyph unicode="n" horiz-adv-x="1361" d="M143 0l230 1069h407l-16 -72q125 105 301 105q158 0 234.5 -78.5t76.5 -216.5q0 -66 -14 -135l-143 -672h-414l129 608q8 50 8 66q0 42 -21 64t-75 22q-60 0 -105.5 -43t-60.5 -113l-129 -604h-408z" />
<glyph unicode="o" horiz-adv-x="1335" d="M199 381q0 200 82.5 363t240.5 260.5t365 97.5q220 0 347.5 -111.5t127.5 -304.5q0 -202 -80 -363.5t-235.5 -257.5t-362.5 -96q-225 0 -355 112t-130 300zM606 422q0 -143 117 -143q55 0 101 38t72.5 96t41 121t14.5 119q0 69 -25.5 103.5t-90.5 34.5q-55 0 -101 -37 t-73 -94t-41.5 -119.5t-14.5 -118.5z" />
<glyph unicode="p" horiz-adv-x="1327" d="M57 -408l314 1477h411l-12 -61q118 84 256 84q161 0 247.5 -100.5t86.5 -282.5q0 -98 -21 -199.5t-66 -199t-108 -173t-156 -122t-202 -46.5q-148 0 -238 90l-100 -467h-412zM647 426q0 -60 26 -100.5t79 -40.5q49 0 89 39t62.5 98t34.5 119.5t12 111.5q0 121 -92 121 q-39 0 -82.5 -18.5t-73.5 -63.5z" />
<glyph unicode="q" horiz-adv-x="1323" d="M190 375q0 101 22 201.5t69.5 193.5t113.5 164.5t162 114.5t207 43q140 0 223 -86l12 63h408l-311 -1477h-408l98 465q-129 -88 -272 -88q-140 0 -232 110t-92 296zM604 408q0 -123 90 -123q55 0 99.5 42t70.5 103l58 266q-11 42 -45.5 60t-73.5 18q-50 0 -90 -38.5 t-62.5 -97.5t-34.5 -119t-12 -111z" />
<glyph unicode="r" horiz-adv-x="1011" d="M143 0l230 1069h407l-18 -72q125 105 301 105q75 0 145 -23l-256 -397q-16 41 -43 59.5t-78 18.5q-57 0 -97.5 -42t-55.5 -114l-127 -604h-408z" />
<glyph unicode="s" horiz-adv-x="1136" d="M125 102l199 254q146 -102 311 -102q51 0 79.5 17t28.5 38q0 14 -14 26.5t-38.5 22t-44.5 15.5t-46.5 12.5t-30.5 7.5q-63 17 -113 39.5t-97.5 58t-74 89.5t-26.5 122q0 85 29.5 154t78 114t114.5 75t136 42.5t146 12.5q281 0 481 -119l-196 -252q-172 86 -293 86 q-49 0 -78 -14.5t-29 -30.5q0 -21 35.5 -40.5t130.5 -47.5q59 -17 97 -30.5t86 -40t75 -57t46.5 -79t19.5 -110.5q0 -90 -33 -161t-86 -114t-127.5 -71t-149 -39t-157.5 -11q-239 0 -459 133z" />
<glyph unicode="t" horiz-adv-x="948" d="M260 793l59 274h150l78 373h407l-80 -373h209l-57 -274h-209l-82 -394q-6 -24 -6 -43q0 -29 15 -41t53 -12q49 0 133 35l-64 -299q-60 -23 -146.5 -40t-154.5 -17q-136 0 -202 53.5t-66 165.5q0 55 14 112l101 480h-152z" />
<glyph unicode="u" horiz-adv-x="1343" d="M195 260q0 60 16 135l141 672h416l-131 -608q-8 -50 -8 -66q0 -41 22 -62.5t76 -21.5q59 0 104 42.5t60 113.5l129 602h407l-229 -1067h-407l16 70q-125 -105 -301 -105q-158 0 -234.5 78.5t-76.5 216.5z" />
<glyph unicode="v" horiz-adv-x="1269" d="M289 1067h411l-6 -676l285 676h457l-607 -1067h-411z" />
<glyph unicode="w" horiz-adv-x="1740" d="M289 1067h393l-18 -608l243 608h344l-12 -614l234 614h434l-551 -1067h-371l12 643l-258 -643h-364z" />
<glyph unicode="x" horiz-adv-x="1394" d="M61 0l514 580l-196 487h403l70 -285l184 285h488l-463 -516l217 -551h-404l-96 311l-221 -311h-496z" />
<glyph unicode="y" horiz-adv-x="1366" d="M131 -367l127 277q57 -35 107 -35q48 0 78 32t30 99q0 23 -2 37l-121 1024h408l2 -705l317 705h455l-758 -1288q-61 -102 -163 -154.5t-222 -52.5q-133 0 -258 61z" />
<glyph unicode="z" horiz-adv-x="1105" d="M51 0l53 254l564 494h-414l68 319h960l-55 -258l-557 -492h450l-67 -317h-1002z" />
<glyph unicode="{" horiz-adv-x="985" d="M264 567l49 230q99 23 149 69t73 146l53 256q18 82 45 144t57 104.5t76.5 71.5t86.5 45t104.5 24t114 10t130.5 2h6h49l-40 -194q-45 -7 -81 -20t-61.5 -27t-45.5 -38.5t-32 -44t-23.5 -55.5t-17.5 -61t-16 -72l-35 -156q-16 -76 -34 -126t-40.5 -86.5t-57 -60t-74 -38 t-101.5 -28.5q97 -25 137.5 -76t40.5 -133q0 -60 -24 -177l-31 -149q-16 -82 -16 -123q0 -68 40 -99t148 -52l-41 -195q-67 0 -118.5 2.5t-109 10.5t-99 21.5t-81 37t-64 56t-39.5 78.5t-15 105q0 53 16 135l49 236q6 27 6 49q0 126 -133 178z" />
<glyph unicode="|" horiz-adv-x="604" d="M49 -444l432 2031h318l-432 -2031h-318z" />
<glyph unicode="}" horiz-adv-x="985" d="M10 -344l41 194q46 7 81.5 20t61 26.5t45.5 38t32.5 43.5t24 56t17.5 61.5t17 72.5l41 194q26 124 61.5 189.5t89 96.5t156.5 54q-98 24 -138 74t-40 133q0 72 22 176l25 113q16 82 16 123q0 68 -40.5 99.5t-147.5 52.5l43 194q67 0 118 -2.5t108 -10.5t98.5 -21.5 t81 -37t64 -56t39.5 -79t15 -104.5q0 -53 -16 -135l-43 -199q-4 -32 -4 -49q0 -63 35.5 -108.5t97.5 -67.5l-49 -232q-99 -23 -149 -69t-73 -146l-61 -293q-17 -82 -44 -144.5t-57 -105t-76.5 -71.5t-86.5 -44.5t-105.5 -24t-114 -10t-130.5 -1.5h-7h-49z" />
<glyph unicode="~" horiz-adv-x="1273" d="M233 618q189 277 398 277q45 0 98 -21.5t93 -48t86 -48t79 -21.5q39 0 81.5 27.5t113.5 109.5q52 -64 87.5 -96.5t59.5 -61.5q-94 -128 -195.5 -196t-199.5 -68q-45 0 -96.5 21.5t-90 48t-84 48t-79.5 21.5q-46 0 -83 -27t-118 -118z" />
<glyph unicode="&#xa1;" horiz-adv-x="688" d="M68 -410l96 451l174 469h248l-23 -471l-96 -449h-399zM330 895q0 83 60 142t145 59t144.5 -59t59.5 -142t-59.5 -143t-144.5 -60t-145 60t-60 143z" />
<glyph unicode="&#xa2;" horiz-adv-x="1189" d="M221 541q0 252 141.5 436t387.5 242l47 219h280l-45 -211q111 -26 180 -85.5t111 -162.5l-328 -186q-14 59 -50 104t-91 45q-58 0 -105.5 -40t-74.5 -100.5t-41.5 -124t-14.5 -118.5q0 -143 123 -143q36 0 68 13t61 38.5t49 48t46 57.5l241 -180q-95 -115 -184.5 -176 t-222.5 -94l-51 -238h-281l51 242q-147 32 -222 145t-75 269z" />
<glyph unicode="&#xa3;" horiz-adv-x="1372" d="M143 0l232 1083q24 113 75.5 192t126.5 122t159 61.5t190 18.5q171 0 278 -51.5t189 -172.5l-285 -147q-43 45 -79.5 63.5t-106.5 18.5t-118.5 -38.5t-62.5 -102.5l-32 -160h292l-69 -324h-291l-39 -186h307q70 0 70 49q0 21 -12 39l354 108q39 -74 39 -167 q0 -76 -29 -147.5t-84 -130t-143 -93.5t-197 -35h-764z" />
<glyph unicode="&#xa4;" horiz-adv-x="1591" d="M113 506l26 133h176q6 43 15 90q2 8 6 24.5t6 24.5h-172l29 131h186q106 260 326 409.5t510 149.5q232 0 366.5 -98t177.5 -276l-417 -140q-20 77 -73 117.5t-132 40.5q-196 0 -303 -203h368l-26 -131h-396l-7 -28t-7 -33q-9 -41 -12 -78h391l-29 -133h-364 q12 -91 62.5 -137.5t135.5 -46.5q76 0 151 38.5t128 104.5l319 -227q-116 -140 -272 -206.5t-369 -66.5q-149 0 -264.5 41.5t-187.5 116t-110 171t-42 212.5h-196z" />
<glyph unicode="&#xa5;" horiz-adv-x="1640" d="M336 328l29 133h325l27 129l-17 39h-303l29 133h221l-278 678h448l166 -533l389 531h543l-590 -676h205l-27 -133h-295l-61 -70l-21 -98h342l-28 -133h-342l-70 -328h-436l70 328h-326z" />
<glyph unicode="&#xa6;" horiz-adv-x="786" d="M205 0l119 555h376l-118 -555h-377zM393 885l117 555h379l-119 -555h-377z" />
<glyph unicode="&#xa7;" horiz-adv-x="1433" d="M172 -90l215 248q185 -123 348 -123q105 0 105 59q0 65 -172 131q-102 40 -168 70t-125 64.5t-90.5 69t-49.5 77t-18 94.5q0 75 20.5 137t61 112t88.5 88t117 79q-21 58 -21 104q0 99 42.5 179.5t113 130.5t158 77t180.5 27q133 0 273 -39.5t243 -110.5l-207 -245 q-178 110 -352 110q-100 0 -100 -57q0 -49 112 -96q292 -122 401 -209t109 -211q0 -63 -15.5 -115.5t-37.5 -89.5t-64.5 -76t-77.5 -64t-96 -63q23 -48 23 -96q0 -103 -39 -184.5t-105.5 -131.5t-151.5 -76t-181 -26q-148 0 -296 45.5t-243 110.5zM575 700q0 -35 49.5 -74 t108.5 -65.5t132.5 -57.5t97.5 -44l30 -17q103 72 103 150q0 41 -45 74q-60 42 -192.5 99t-180.5 85q-103 -77 -103 -150z" />
<glyph unicode="&#xa8;" horiz-adv-x="1030" d="M393 1380q0 66 49 113t119 47q69 0 118.5 -47t49.5 -113t-49.5 -112.5t-118.5 -46.5q-70 0 -119 46.5t-49 112.5zM889 1380q0 66 49 113t119 47q69 0 118.5 -47t49.5 -113t-49.5 -112.5t-118.5 -46.5q-70 0 -119 46.5t-49 112.5z" />
<glyph unicode="&#xa9;" horiz-adv-x="1679" d="M258 719q0 205 97.5 374t266.5 265t371 96q156 0 293 -58.5t233.5 -157.5t152 -235t54.5 -286q-1 -151 -57.5 -286t-153.5 -233t-233 -155t-289 -57q-201 0 -369.5 94.5t-267 263t-98.5 375.5zM367 717q0 -174 80.5 -317.5t224.5 -226.5t321 -83q176 0 319.5 82 t224.5 225.5t81 319.5q0 133 -47.5 250t-130 200.5t-198.5 132t-249 48.5q-174 0 -316.5 -80t-226 -225t-83.5 -326zM563 725q0 203 121 333t317 130q147 0 230.5 -55t136.5 -152l-190 -125q-35 53 -74 83t-103 30q-94 0 -144 -67.5t-50 -176.5q0 -107 50.5 -174.5 t148.5 -67.5q65 0 106.5 28t73.5 75l182 -133q-61 -81 -129 -125q-98 -66 -235 -66q-142 0 -244 64t-149.5 167t-47.5 232z" />
<glyph unicode="&#xaa;" horiz-adv-x="1318" d="M307 850q0 75 32.5 133.5t82 92.5t118 56t132 29.5t131.5 7.5q71 0 129 -6q6 48 6 49q0 31 -25.5 45.5t-83.5 14.5q-65 0 -110.5 -13.5t-97.5 -48.5l-191 103q97 85 210.5 116t264.5 31q361 0 361 -211q0 -29 -9 -67l-96 -455q0 -2 -2 -16.5t-2 -22.5q0 -16 6 -22h-327 l10 55q-123 -72 -268 -72q-128 0 -199.5 53.5t-71.5 147.5zM629 899q0 -27 21.5 -42t58.5 -15q139 0 174 104q2 9 5.5 21t5.5 20l3 12q-35 5 -57 5q-36 0 -70 -5t-67 -16t-53.5 -32.5t-20.5 -51.5z" />
<glyph unicode="&#xab;" horiz-adv-x="1165" d="M92 649l426 459l285 -47l-410 -438l248 -469h-291zM608 649l424 459l287 -47l-412 -438l248 -469h-291z" />
<glyph unicode="&#xac;" horiz-adv-x="1419" d="M190 506l78 368h1223l-135 -634h-361l62 266h-867z" />
<glyph unicode="&#xad;" horiz-adv-x="823" d="M211 506l78 368h618l-78 -368h-618z" />
<glyph unicode="&#xae;" horiz-adv-x="1679" d="M258 719q0 206 98 375t266.5 264.5t370.5 95.5q155 0 291.5 -58t233.5 -156.5t153 -234t55 -286.5q0 -204 -96.5 -372t-265 -264.5t-373.5 -96.5q-198 0 -365.5 93.5t-267.5 262.5t-100 377zM367 719q0 -179 83 -323.5t226.5 -225t316.5 -80.5q131 0 246.5 48t199 130.5 t131.5 200t48 250.5q1 176 -80 320.5t-224 226.5t-319 82t-319.5 -81.5t-226 -226t-82.5 -321.5zM668 297v870h348q136 0 205 -28q71 -28 107 -89.5t36 -140.5q0 -152 -154 -225q23 -14 51 -61t35 -88q7 -45 36.5 -124t49.5 -114h-252q-23 45 -41.5 124t-29.5 107 q-16 45 -43 73t-62 28h-63v-332h-223zM891 807h115q74 0 106 22q31 25 31 72q0 48 -35 70q-29 20 -117 20h-100v-184z" />
<glyph unicode="&#xaf;" horiz-adv-x="999" d="M408 1227l45 213h712l-45 -213h-712z" />
<glyph unicode="&#xb0;" horiz-adv-x="1003" d="M326 1026q0 125 69.5 233t183 170t240.5 62q142 0 233 -96.5t91 -235.5q0 -126 -70 -234.5t-183.5 -170.5t-240.5 -62q-142 0 -232.5 97t-90.5 237zM580 1053q0 -54 33 -85.5t87 -31.5q78 0 133.5 59.5t55.5 137.5q0 52 -33.5 84t-87.5 32q-78 0 -133 -59t-55 -137z" />
<glyph unicode="&#xb2;" horiz-adv-x="1142" d="M215 371l8 37q40 163 158.5 294.5t327.5 245.5q5 3 26 14.5t33.5 19t34 21t35 25t27.5 26.5t21 30.5t7 31.5q0 31 -22.5 45.5t-55.5 14.5q-37 0 -81 -27.5t-66 -49.5t-60 -63l-256 138q101 148 232.5 221t306.5 73q78 0 143.5 -17.5t117 -53t81 -95.5t29.5 -139 q0 -259 -304 -397q-126 -59 -200 -109h401l-59 -286h-885z" />
<glyph unicode="&#xb3;" horiz-adv-x="1155" d="M231 604l277 137q29 -64 72.5 -90t115.5 -26q70 0 111 30.5t41 69.5q0 27 -22 45t-62 18h-137l49 242h98q60 0 95.5 29.5t35.5 66.5q0 28 -21 47t-59 19q-124 0 -211 -131l-247 137q90 143 204.5 204.5t286.5 61.5q55 0 107.5 -9t104.5 -29.5t90.5 -51.5t62.5 -79 t24 -107q0 -85 -40 -154t-115 -110q100 -61 100 -179q0 -83 -33 -151.5t-87 -113.5t-125 -75.5t-144.5 -43.5t-149.5 -13q-303 0 -422 256z" />
<glyph unicode="&#xb4;" horiz-adv-x="782" d="M360 1182l218 303h426l-392 -303h-252z" />
<glyph unicode="&#xb6;" horiz-adv-x="1433" d="M326 903q0 137 78.5 261.5t205 199t262.5 74.5h723l-47 -221h-80l-344 -1627h-233l344 1629h-180l-346 -1629h-234l203 963q-156 3 -254 101.5t-98 248.5z" />
<glyph unicode="&#xb7;" horiz-adv-x="647" d="M270 711q0 83 60 141.5t145 58.5t145 -58.5t60 -141.5q0 -85 -60 -144t-145 -59t-145 59t-60 144z" />
<glyph unicode="&#xb8;" horiz-adv-x="761" d="M61 -383l43 102q56 -26 121 -26q37 0 70 13.5t33 45.5q0 29 -41 29q-21 0 -64 -17l-76 19l156 227h127l-76 -121q54 13 78 13q67 0 102 -31.5t35 -83.5q0 -72 -46.5 -122.5t-109.5 -71.5t-132 -21q-114 0 -220 45z" />
<glyph unicode="&#xb9;" horiz-adv-x="831" d="M322 1034l55 262q41 1 69 3t62 10.5t57 23t43.5 41.5t32.5 64h322l-228 -1067h-362l141 671q-63 -8 -192 -8z" />
<glyph unicode="&#xba;" horiz-adv-x="1165" d="M313 989q0 92 30 170t83 133t125.5 94t156 57.5t175.5 18.5q63 0 122 -11.5t112.5 -37.5t93.5 -64t63.5 -95.5t23.5 -127.5q0 -118 -48.5 -212t-131 -152t-186 -88.5t-219.5 -30.5q-186 0 -293 98t-107 248zM653 977q0 -117 113 -117q49 0 87.5 24.5t60.5 65t33 85.5 t11 91q0 119 -116 119q-49 0 -87 -25.5t-59.5 -66t-32 -85.5t-10.5 -91z" />
<glyph unicode="&#xbb;" horiz-adv-x="1359" d="M129 154l455 485l-222 418l267 51l258 -492l-426 -462h-332zM645 154l455 485l-221 418l266 51l258 -492l-428 -462h-330z" />
<glyph unicode="&#xbc;" horiz-adv-x="2445" d="M322 1032l55 264q42 1 70 3t62.5 10.5t57 23t43 41.5t31.5 64h322l-228 -1067h-362l141 671q-79 -10 -192 -10zM616 -12l1084 1487l258 -21l-1088 -1491zM1393 193l59 280l627 594h379l-127 -604h120l-57 -270h-121l-41 -193h-366l41 193h-514zM1798 463h166l43 199z" />
<glyph unicode="&#xbd;" horiz-adv-x="2539" d="M322 1034l55 262q41 1 69 3t62 10.5t57 23t43.5 41.5t32.5 64h322l-228 -1067h-362l141 671q-63 -8 -192 -8zM612 -12l1084 1487l258 -21l-1088 -1491zM1552 0l9 37q40 163 158.5 296t326.5 247q104 55 143 92q40 40 41 76q0 30 -22.5 44.5t-55.5 14.5q-28 0 -56 -12 t-60.5 -40.5t-44.5 -41t-45 -47.5l-256 137q101 149 232.5 222t307.5 73q78 0 143 -17.5t116.5 -52.5t80.5 -95t29 -140q0 -262 -303 -398q-135 -61 -201 -108h404l-62 -287h-885z" />
<glyph unicode="&#xbe;" horiz-adv-x="2754" d="M231 604l277 137q29 -64 72.5 -90t115.5 -26q70 0 111 30.5t41 69.5q0 27 -22 45t-62 18h-137l49 242h98q60 0 95.5 29.5t35.5 66.5q0 28 -21 47t-59 19q-124 0 -211 -131l-247 137q90 143 204.5 204.5t286.5 61.5q55 0 107.5 -9t104.5 -29.5t90.5 -51.5t62.5 -79 t24 -107q0 -85 -40 -154t-115 -110q100 -61 100 -179q0 -83 -33 -151.5t-87 -113.5t-125 -75.5t-144.5 -43.5t-149.5 -13q-303 0 -422 256zM922 -12l1085 1487l258 -21l-1087 -1491zM1702 193l59 280l627 594h379l-129 -604h123l-58 -270h-123l-40 -193h-365l41 193h-514z M2107 463h166l43 199z" />
<glyph unicode="&#xbf;" horiz-adv-x="1292" d="M59 -45q0 81 31.5 147t81.5 110t111 79.5t122 63t111 53t81.5 56t31.5 66.5h348q0 -74 -28 -136t-73 -104.5t-99 -79t-108 -65.5t-99 -56t-73 -58.5t-28 -65.5q0 -88 154 -88q94 0 180 59t139 138l238 -211q-114 -157 -262 -223t-353 -66q-134 0 -246.5 41t-186 129.5 t-73.5 210.5zM664 885q0 83 59.5 141.5t144.5 58.5t145 -58.5t60 -141.5q0 -85 -60 -144t-145 -59t-144.5 59t-59.5 144z" />
<glyph unicode="&#xc0;" horiz-adv-x="1646" d="M61 0l844 1438h459l221 -1438h-436l-19 225h-464l-113 -225h-492zM743 1864h383l93 -303h-224zM827 545h277l-41 471z" />
<glyph unicode="&#xc1;" horiz-adv-x="1615" d="M61 0l844 1438h459l221 -1438h-436l-19 225h-464l-113 -225h-492zM827 545h277l-41 471zM930 1565l217 303h426l-391 -303h-252z" />
<glyph unicode="&#xc2;" horiz-adv-x="1646" d="M61 0l844 1438h459l221 -1438h-436l-19 225h-464l-113 -225h-492zM739 1565l308 305h305l176 -305h-256l-101 133l-153 -133h-279zM827 545h277l-41 471z" />
<glyph unicode="&#xc3;" horiz-adv-x="1619" d="M61 0l844 1438h459l221 -1438h-436l-19 225h-464l-113 -225h-492zM733 1606q33 128 109 215.5t192 87.5q55 0 117 -22t109 -44t65 -22q36 0 54.5 22.5t29.5 59.5h100h99q-33 -129 -109 -216.5t-190 -87.5q-55 0 -116 21.5t-110 43.5t-73 22q-32 0 -50 -20.5t-30 -59.5 h-197zM827 545h277l-41 471z" />
<glyph unicode="&#xc4;" horiz-adv-x="1622" d="M61 0l844 1438h459l221 -1438h-436l-19 225h-464l-113 -225h-492zM725 1722q0 66 49.5 113t118.5 47t118.5 -47t49.5 -113t-49.5 -112.5t-118.5 -46.5t-118.5 46.5t-49.5 112.5zM827 545h277l-41 471zM1221 1722q0 66 49.5 113t118.5 47t118 -47t49 -113t-49 -112.5 t-118 -46.5t-118.5 46.5t-49.5 112.5z" />
<glyph unicode="&#xc5;" horiz-adv-x="1646" d="M61 0l844 1438h459l221 -1438h-436l-19 225h-464l-113 -225h-492zM827 545h277l-41 471zM928 1751q0 107 75.5 181.5t182.5 74.5t182.5 -74.5t75.5 -181.5t-75 -180.5t-183 -73.5t-183 73.5t-75 180.5zM1094 1751q0 -43 25.5 -69.5t66.5 -26.5t66.5 26.5t25.5 69.5 t-25.5 70.5t-66.5 27.5t-66.5 -27.5t-25.5 -70.5z" />
<glyph unicode="&#xc6;" horiz-adv-x="2594" d="M61 0l1211 1440h1251l-69 -324h-664l-45 -205h500l-70 -323h-498l-55 -262h707l-70 -326h-1108l39 180h-479l-140 -180h-510zM948 487h307l140 598z" />
<glyph unicode="&#xc7;" horiz-adv-x="1536" d="M231 588q0 190 68.5 355t188.5 282.5t289.5 184.5t365.5 67q232 0 367.5 -98.5t179.5 -276.5l-420 -139q-18 77 -72 117t-133 40q-77 0 -142.5 -35t-109.5 -91.5t-75.5 -129t-45.5 -146.5t-14 -145q0 -118 52.5 -180.5t150.5 -62.5q76 0 150 38.5t128 104.5l320 -227 q-114 -137 -266 -203.5t-359 -69.5l-53 -86q49 11 78 11q68 0 103.5 -31.5t35.5 -83.5q0 -72 -46.5 -122t-109.5 -70.5t-133 -20.5q-120 0 -221 43l45 104q57 -28 121 -28q37 0 69.5 13.5t32.5 45.5q0 12 -10 21.5t-31 9.5q-25 0 -63 -19l-78 21l137 199q-125 14 -222.5 70 t-157 140.5t-90 185.5t-30.5 212z" />
<glyph unicode="&#xc8;" horiz-adv-x="1366" d="M143 0l306 1440h1124l-68 -326h-690l-43 -203h526l-67 -321h-526l-58 -266h727l-69 -324h-1162zM782 1864h383l92 -303h-223z" />
<glyph unicode="&#xc9;" horiz-adv-x="1366" d="M143 0l306 1440h1124l-68 -326h-690l-43 -203h526l-67 -321h-526l-58 -266h727l-69 -324h-1162zM907 1565l217 303h426l-391 -303h-252z" />
<glyph unicode="&#xca;" horiz-adv-x="1366" d="M143 0l306 1440h1124l-68 -326h-690l-43 -203h526l-67 -321h-526l-58 -266h727l-69 -324h-1162zM696 1565l308 305h305l176 -305h-256l-101 133l-153 -133h-279z" />
<glyph unicode="&#xcb;" horiz-adv-x="1366" d="M143 0l306 1440h1124l-68 -326h-690l-43 -203h526l-67 -321h-526l-58 -266h727l-69 -324h-1162zM641 1722q0 66 49.5 113t118.5 47t118.5 -47t49.5 -113t-49.5 -112.5t-118.5 -46.5t-118.5 46.5t-49.5 112.5zM1137 1722q0 66 49.5 113t118.5 47t118.5 -47t49.5 -113 t-49.5 -112.5t-118.5 -46.5t-118.5 46.5t-49.5 112.5z" />
<glyph unicode="&#xcc;" horiz-adv-x="718" d="M143 0l306 1440h432l-306 -1440h-432zM395 1864h383l92 -303h-223z" />
<glyph unicode="&#xcd;" horiz-adv-x="694" d="M145 0l306 1440h432l-305 -1440h-433zM469 1565l217 303h426l-391 -303h-252z" />
<glyph unicode="&#xce;" horiz-adv-x="696" d="M127 0l305 1440h432l-305 -1440h-432zM270 1565l308 305h305l176 -305h-256l-98 133l-156 -133h-279z" />
<glyph unicode="&#xcf;" horiz-adv-x="671" d="M145 0l306 1440h432l-308 -1440h-430zM279 1722q0 66 49 113t118 47q70 0 120 -47t50 -113t-49.5 -112.5t-120.5 -46.5q-69 0 -118 46.5t-49 112.5zM774 1722q0 66 49.5 113t118.5 47q70 0 119 -47t49 -113t-49 -112.5t-119 -46.5q-69 0 -118.5 46.5t-49.5 112.5z" />
<glyph unicode="&#xd0;" horiz-adv-x="1583" d="M147 596l62 289h131l117 555h569q625 -3 625 -520q0 -446 -232.5 -683t-689.5 -237h-577l127 596h-132zM662 336h114q90 0 164 30t124 80.5t84 119t49 145t15 159.5q0 113 -60 171.5t-196 58.5h-131l-47 -215h217l-59 -289h-217z" />
<glyph unicode="&#xd1;" horiz-adv-x="1667" d="M143 0l306 1440h432l333 -867l185 867h432l-307 -1440h-432l-330 874l-187 -874h-432zM772 1606q33 128 109 215.5t192 87.5q55 0 117 -22t109 -44t65 -22q36 0 54.5 22.5t29.5 59.5h100h99q-33 -129 -109 -216.5t-190 -87.5q-55 0 -116 21.5t-110 43.5t-73 22 q-32 0 -50 -20.5t-30 -59.5h-197z" />
<glyph unicode="&#xd2;" d="M231 565q0 255 115 463t324 328.5t471 120.5q145 0 258.5 -47t183.5 -128.5t105.5 -186.5t35.5 -226q0 -190 -68 -360t-186.5 -294.5t-289 -197t-367.5 -72.5q-118 0 -216 32.5t-165 88.5t-113 132.5t-67 163.5t-21 183zM676 567q0 -119 55.5 -182t163.5 -63 q75 0 140 35.5t108.5 92.5t74.5 129.5t45.5 146t14.5 142.5q0 112 -50.5 183t-164.5 71q-77 0 -142 -36t-109.5 -94t-75.5 -131.5t-45.5 -148.5t-14.5 -145zM840 1864h383l92 -303h-223z" />
<glyph unicode="&#xd3;" d="M231 565q0 255 115 463t324 328.5t471 120.5q145 0 258.5 -47t183.5 -128.5t105.5 -186.5t35.5 -226q0 -190 -68 -360t-186.5 -294.5t-289 -197t-367.5 -72.5q-118 0 -216 32.5t-165 88.5t-113 132.5t-67 163.5t-21 183zM676 567q0 -119 55.5 -182t163.5 -63 q75 0 140 35.5t108.5 92.5t74.5 129.5t45.5 146t14.5 142.5q0 112 -50.5 183t-164.5 71q-77 0 -142 -36t-109.5 -94t-75.5 -131.5t-45.5 -148.5t-14.5 -145zM985 1565l217 303h426l-389 -303h-254z" />
<glyph unicode="&#xd4;" d="M231 565q0 255 114.5 463t323.5 328.5t472 120.5q145 0 258.5 -47t183.5 -128.5t105.5 -186.5t35.5 -226q0 -152 -43 -292.5t-124.5 -254.5t-192.5 -199t-252.5 -131.5t-298.5 -46.5q-118 0 -216 32.5t-165 88.5t-113 132.5t-67 163.5t-21 183zM674 567q0 -119 56 -182 t165 -63q75 0 139.5 35.5t108 92.5t75 129.5t46 146t14.5 142.5q0 112 -50.5 183t-164.5 71q-77 0 -143 -36t-110 -94t-75.5 -131.5t-46 -148.5t-14.5 -145zM754 1565l307 305h305l176 -305h-258l-98 133l-154 -133h-278z" />
<glyph unicode="&#xd5;" d="M231 565q0 255 115 463t324 328.5t471 120.5q145 0 258.5 -47t183.5 -128.5t105.5 -186.5t35.5 -226q0 -190 -68 -360t-186.5 -294.5t-289 -197t-367.5 -72.5q-118 0 -216 32.5t-165 88.5t-113 132.5t-67 163.5t-21 183zM676 567q0 -119 55.5 -182t163.5 -63 q75 0 140 35.5t108.5 92.5t74.5 129.5t45.5 146t14.5 142.5q0 112 -50.5 183t-164.5 71q-77 0 -142 -36t-109.5 -94t-75.5 -131.5t-45.5 -148.5t-14.5 -145z" />
<glyph unicode="&#xd6;" d="M231 565q0 255 115 463t324 328.5t471 120.5q145 0 258.5 -47t183.5 -128.5t105.5 -186.5t35.5 -226q0 -190 -68 -360t-186.5 -294.5t-289 -197t-367.5 -72.5q-118 0 -216 32.5t-165 88.5t-113 132.5t-67 163.5t-21 183zM676 567q0 -119 55.5 -182t163.5 -63 q75 0 140 35.5t108.5 92.5t74.5 129.5t45.5 146t14.5 142.5q0 112 -50.5 183t-164.5 71q-77 0 -142 -36t-109.5 -94t-75.5 -131.5t-45.5 -148.5t-14.5 -145zM760 1722q0 66 49.5 113t118.5 47q70 0 120 -47t50 -113t-49.5 -112.5t-120.5 -46.5q-69 0 -118.5 46.5 t-49.5 112.5zM1255 1722q0 66 49.5 113t118.5 47q70 0 119 -47t49 -113t-49 -112.5t-119 -46.5q-69 0 -118.5 46.5t-49.5 112.5z" />
<glyph unicode="&#xd7;" horiz-adv-x="1380" d="M180 240l428 346l-266 350l244 190l260 -344l432 351l197 -240l-439 -354l258 -342l-241 -191l-254 336l-422 -342z" />
<glyph unicode="&#xd8;" d="M231 567q0 255 115 462.5t323.5 327.5t471.5 120q188 0 319 -70l92 109l148 -37l-127 -154q74 -72 112.5 -191.5t38.5 -248.5q0 -152 -43 -292t-124.5 -253.5t-192.5 -198t-252.5 -130.5t-298.5 -46q-182 0 -315 68l-88 -107l-148 39l123 148q-74 73 -114 198t-40 256z M676 567q0 -58 10 -92l508 610q-53 37 -131 37q-77 0 -142 -36t-109.5 -94t-75.5 -131.5t-45.5 -148.5t-14.5 -145zM766 354q53 -32 129 -32q93 0 169.5 53.5t121 136.5t68.5 175t24 179q0 54 -8 95z" />
<glyph unicode="&#xd9;" horiz-adv-x="1505" d="M217 430q0 65 21 168l178 842h432l-182 -862q-11 -60 -11 -95q0 -161 164 -161q210 0 262 256l185 862h434l-170 -797q-143 -674 -758 -674q-271 0 -413 121t-142 340zM737 1864h383l92 -303h-223z" />
<glyph unicode="&#xda;" horiz-adv-x="1505" d="M217 430q0 65 21 168l178 842h432l-182 -862q-11 -60 -11 -95q0 -161 164 -161q210 0 262 256l185 862h434l-170 -797q-143 -674 -758 -674q-271 0 -413 121t-142 340zM924 1565l217 303h426l-391 -303h-252z" />
<glyph unicode="&#xdb;" horiz-adv-x="1505" d="M217 430q0 65 21 168l178 842h432l-182 -862q-11 -60 -11 -95q0 -161 164 -161q210 0 262 256l185 862h434l-170 -797q-143 -674 -758 -674q-271 0 -413 121t-142 340zM692 1565l307 305h306l176 -305h-256l-101 133l-153 -133h-279z" />
<glyph unicode="&#xdc;" horiz-adv-x="1505" d="M217 430q0 65 21 168l178 842h432l-182 -862q-11 -60 -11 -95q0 -161 164 -161q210 0 262 256l185 862h434l-170 -797q-143 -674 -758 -674q-271 0 -413 121t-142 340zM719 1722q0 66 49.5 113t118.5 47t118.5 -47t49.5 -113t-49.5 -112.5t-118.5 -46.5t-118.5 46.5 t-49.5 112.5zM1214 1722q0 66 49.5 113t118.5 47t118.5 -47t49.5 -113t-49.5 -112.5t-118.5 -46.5t-118.5 46.5t-49.5 112.5z" />
<glyph unicode="&#xdd;" horiz-adv-x="1609" d="M336 1440h450l166 -533l389 531h543l-770 -879l-119 -559h-436l125 590zM897 1565l217 303h426l-391 -303h-252z" />
<glyph unicode="&#xde;" horiz-adv-x="1480" d="M164 0l305 1440h432l-43 -209h295q220 0 336.5 -104.5t116.5 -284.5q0 -138 -49.5 -249t-136.5 -183.5t-205.5 -111t-258.5 -38.5l-305 -2l-55 -258h-432zM717 571h223q105 0 171.5 61t66.5 165q0 64 -42.5 92.5t-109.5 28.5h-235z" />
<glyph unicode="&#xdf;" horiz-adv-x="1361" d="M100 -201l248 1168q54 257 202.5 381.5t410.5 124.5q111 0 198.5 -26.5t140.5 -72t80 -102t27 -119.5q0 -101 -55.5 -194t-143.5 -134q76 -24 117 -100t41 -178q0 -76 -22.5 -153t-72.5 -151t-121 -130.5t-176 -91.5t-229 -35q-63 0 -116 22l61 297q37 -26 70 -26 q67 0 114 46.5t65.5 108t18.5 127.5q0 31 -10.5 53t-24.5 33t-40.5 17t-44.5 7t-50 1l54 260q77 0 116 48t39 122q0 40 -20.5 59t-65.5 19q-66 0 -97.5 -43.5t-47.5 -122.5l-240 -1137z" />
<glyph unicode="&#xe0;" horiz-adv-x="1314" d="M164 264q0 63 22.5 125.5t70 120.5t115 102t165 70.5t211.5 26.5q52 0 149 -11q4 14 4 41q0 44 -30 67t-83 23t-118.5 -24.5t-122.5 -73.5l-236 141q227 224 563 224q219 0 324 -79.5t105 -219.5q0 -42 -13 -99l-116 -553q-3 -6 -3 -12q0 -29 68 -29l-22 -104h-345 q-95 0 -106 68q-123 -91 -301 -91q-142 0 -221.5 82.5t-79.5 204.5zM506 1485h383l92 -303h-223zM549 334q0 -30 21.5 -54t58.5 -24q45 0 102.5 24t87.5 62l27 125q-37 6 -68 6q-111 0 -170 -44t-59 -95z" />
<glyph unicode="&#xe1;" horiz-adv-x="1314" d="M164 264q0 63 22.5 125.5t70 120.5t115 102t165 70.5t211.5 26.5q52 0 149 -11q4 14 4 41q0 44 -30 67t-83 23t-118.5 -24.5t-122.5 -73.5l-236 141q227 224 563 224q219 0 324 -79.5t105 -219.5q0 -42 -13 -99l-116 -553q-3 -6 -3 -12q0 -29 68 -29l-22 -104h-345 q-95 0 -106 68q-123 -91 -301 -91q-142 0 -221.5 82.5t-79.5 204.5zM549 334q0 -30 21.5 -54t58.5 -24q45 0 102.5 24t87.5 62l27 125q-37 6 -68 6q-111 0 -170 -44t-59 -95zM688 1182l217 303h426l-389 -303h-254z" />
<glyph unicode="&#xe2;" horiz-adv-x="1314" d="M164 264q0 63 22.5 125.5t70 120.5t115 102t165 70.5t211.5 26.5q52 0 149 -11q4 14 4 41q0 44 -30 67t-83 23t-118.5 -24.5t-122.5 -73.5l-236 141q227 224 563 224q219 0 324 -79.5t105 -219.5q0 -42 -13 -99l-116 -553q-3 -6 -3 -12q0 -29 68 -29l-22 -104h-345 q-95 0 -106 68q-123 -91 -301 -91q-142 0 -221.5 82.5t-79.5 204.5zM489 1196l308 305h305l176 -305h-256l-98 133l-156 -133h-279zM549 334q0 -30 21.5 -54t58.5 -24q45 0 102.5 24t87.5 62l27 125q-37 6 -68 6q-111 0 -170 -44t-59 -95z" />
<glyph unicode="&#xe3;" horiz-adv-x="1314" d="M164 264q0 63 22.5 125.5t70 120.5t115 102t165 70.5t211.5 26.5q52 0 149 -11q4 14 4 41q0 44 -30 67t-83 23t-118.5 -24.5t-122.5 -73.5l-236 141q227 224 563 224q219 0 324 -79.5t105 -219.5q0 -42 -13 -99l-116 -553q-3 -6 -3 -12q0 -29 68 -29l-22 -104h-345 q-95 0 -106 68q-123 -91 -301 -91q-142 0 -221.5 82.5t-79.5 204.5zM444 1210q16 59 40.5 110t61 96t88 71t111.5 26q55 0 117.5 -22t110 -44t65.5 -22q59 0 84 82h197q-23 -134 -101 -218.5t-196 -84.5q-55 0 -116 21.5t-110 43t-75 21.5q-31 0 -48.5 -20t-31.5 -60h-197z M549 334q0 -30 21.5 -54t58.5 -24q45 0 102.5 24t87.5 62l27 125q-37 6 -68 6q-111 0 -170 -44t-59 -95z" />
<glyph unicode="&#xe4;" horiz-adv-x="1314" d="M164 264q0 63 22.5 125.5t70 120.5t115 102t165 70.5t211.5 26.5q52 0 149 -11q4 14 4 41q0 44 -30 67t-83 23t-118.5 -24.5t-122.5 -73.5l-236 141q227 224 563 224q219 0 324 -79.5t105 -219.5q0 -42 -13 -99l-116 -553q-3 -6 -3 -12q0 -29 68 -29l-22 -104h-345 q-95 0 -106 68q-123 -91 -301 -91q-142 0 -221.5 82.5t-79.5 204.5zM475 1380q0 66 49.5 113t118.5 47q70 0 120 -47t50 -113t-49.5 -112.5t-120.5 -46.5q-69 0 -118.5 46.5t-49.5 112.5zM549 334q0 -30 21.5 -54t58.5 -24q45 0 102.5 24t87.5 62l27 125q-37 6 -68 6 q-111 0 -170 -44t-59 -95zM971 1380q0 66 49.5 113t118.5 47q70 0 120 -47t50 -113t-49.5 -112.5t-120.5 -46.5q-69 0 -118.5 46.5t-49.5 112.5z" />
<glyph unicode="&#xe5;" horiz-adv-x="1314" d="M164 264q0 63 22.5 125.5t70 120.5t115 102t165 70.5t211.5 26.5q52 0 149 -11q4 14 4 41q0 44 -30 67t-83 23t-118.5 -24.5t-122.5 -73.5l-236 141q227 224 563 224q219 0 324 -79.5t105 -219.5q0 -42 -13 -99l-116 -553q-3 -6 -3 -12q0 -29 68 -29l-22 -104h-345 q-95 0 -106 68q-123 -91 -301 -91q-142 0 -221.5 82.5t-79.5 204.5zM549 334q0 -30 21.5 -54t58.5 -24q45 0 102.5 24t87.5 62l27 125q-37 6 -68 6q-111 0 -170 -44t-59 -95zM694 1458q0 107 75.5 181.5t182.5 74.5q108 0 184 -74.5t76 -181.5t-76 -180.5t-184 -73.5 t-183 73.5t-75 180.5zM860 1458q0 -43 25.5 -69.5t66.5 -26.5q42 0 68.5 27t26.5 69q0 43 -27 70.5t-68 27.5t-66.5 -27.5t-25.5 -70.5z" />
<glyph unicode="&#xe6;" horiz-adv-x="1923" d="M164 260q0 80 38.5 158.5t111 144t190.5 106t262 40.5q52 0 145 -11q9 24 9 39q0 45 -32.5 68.5t-90.5 23.5q-117 0 -242 -86l-244 127q223 226 566 226q207 0 317 -74q150 78 326 78q225 0 332.5 -114t107.5 -312q0 -126 -37 -238h-676q-2 -12 -2 -35q0 -129 133 -129 q67 0 125 25t131 82l228 -213q-122 -103 -255.5 -151t-293.5 -48q-225 0 -350 135q-159 -135 -463 -135q-159 0 -247.5 84.5t-88.5 208.5zM551 324q0 -29 20.5 -48.5t57.5 -19.5q128 0 225 111q-4 32 -4 49q0 7 1 21.5t1 21.5q-50 4 -68 4q-113 0 -173 -44t-60 -95z M1303 676h280q0 4 1 10.5t1 9.5q0 59 -24.5 90t-87.5 31q-117 0 -170 -141z" />
<glyph unicode="&#xe7;" horiz-adv-x="1193" d="M199 422q0 194 82 348.5t236.5 244t354.5 89.5q155 0 263 -71t155 -206l-313 -180q-27 78 -57.5 112t-88.5 34q-61 0 -114.5 -63t-81 -145t-27.5 -153q0 -68 32 -108.5t73 -40.5q126 0 213 157l276 -184q-81 -123 -209.5 -200.5t-292.5 -86.5l-49 -82q54 13 78 13 q67 0 102 -31.5t35 -83.5q0 -72 -46.5 -122.5t-109.5 -71.5t-132 -21q-114 0 -220 45l43 102q60 -28 121 -28q37 0 70 14t33 47q0 29 -41 29q-22 0 -64 -17l-76 19l131 192q-177 26 -276.5 146.5t-99.5 302.5z" />
<glyph unicode="&#xe8;" horiz-adv-x="1265" d="M201 416q0 140 49.5 265.5t136 218t211 146.5t268.5 54q114 0 199 -31t136.5 -88.5t76.5 -134t25 -172.5q0 -126 -37 -238h-672q-2 -12 -2 -35q0 -129 133 -129q66 0 124 25t130 82l227 -213q-122 -103 -254.5 -151t-292.5 -48q-219 0 -338.5 126.5t-119.5 322.5z M567 1485h383l92 -303h-223zM641 664h287q2 6 2 18q0 135 -113 135q-114 0 -176 -153z" />
<glyph unicode="&#xe9;" horiz-adv-x="1265" d="M201 416q0 140 49.5 265.5t136 218t211 146.5t268.5 54q114 0 199 -31t136.5 -88.5t76.5 -134t25 -172.5q0 -126 -37 -238h-672q-2 -12 -2 -35q0 -129 133 -129q66 0 124 25t130 82l227 -213q-122 -103 -254.5 -151t-292.5 -48q-219 0 -338.5 126.5t-119.5 322.5z M641 664h287q2 6 2 18q0 135 -113 135q-114 0 -176 -153zM750 1182l217 303h426l-392 -303h-251z" />
<glyph unicode="&#xea;" horiz-adv-x="1265" d="M201 416q0 140 49.5 265.5t136 218t211 146.5t268.5 54q114 0 199 -31t136.5 -88.5t76.5 -134t25 -172.5q0 -126 -37 -238h-672q-2 -12 -2 -35q0 -129 133 -129q66 0 124 25t130 82l227 -213q-122 -103 -254.5 -151t-292.5 -48q-219 0 -338.5 126.5t-119.5 322.5z M510 1196l307 305h305l176 -305h-258l-98 133l-154 -133h-278zM641 664h287q2 6 2 18q0 135 -113 135q-114 0 -176 -153z" />
<glyph unicode="&#xeb;" horiz-adv-x="1265" d="M201 416q0 140 49.5 265.5t136 218t211 146.5t268.5 54q114 0 199 -31t136.5 -88.5t76.5 -134t25 -172.5q0 -126 -37 -238h-672q-2 -12 -2 -35q0 -129 133 -129q66 0 124 25t130 82l227 -213q-122 -103 -254.5 -151t-292.5 -48q-219 0 -338.5 126.5t-119.5 322.5z M496 1380q0 66 49.5 113t118.5 47t118 -47t49 -113t-49 -112.5t-118 -46.5t-118.5 46.5t-49.5 112.5zM641 664h287q2 6 2 18q0 135 -113 135q-114 0 -176 -153zM991 1380q0 66 49.5 113t118.5 47t118.5 -47t49.5 -113t-49.5 -112.5t-118.5 -46.5t-118.5 46.5t-49.5 112.5z " />
<glyph unicode="&#xec;" horiz-adv-x="690" d="M119 0l227 1067h414l-228 -1067h-413zM285 1485h383l92 -303h-223z" />
<glyph unicode="&#xed;" horiz-adv-x="651" d="M143 0l226 1067h415l-227 -1067h-414zM365 1182l217 303h426l-392 -303h-251z" />
<glyph unicode="&#xee;" horiz-adv-x="684" d="M143 0l226 1067h413l-225 -1067h-414zM180 1196l309 305h306l174 -305h-256l-99 133l-155 -133h-279z" />
<glyph unicode="&#xef;" horiz-adv-x="638" d="M147 0l226 1067h415l-227 -1067h-414zM154 1380q0 66 49.5 113t118.5 47t118 -47t49 -113t-49 -112.5t-118 -46.5t-118.5 46.5t-49.5 112.5zM649 1380q0 66 49.5 113t118.5 47t118.5 -47t49.5 -113t-49.5 -112.5t-118.5 -46.5t-118.5 46.5t-49.5 112.5z" />
<glyph unicode="&#xf0;" horiz-adv-x="1363" d="M211 410q0 121 49 236t132 200.5t197.5 137.5t239.5 52q129 0 209 -59q-25 70 -125 147l-120 -73l-158 133l51 30q-53 9 -127 9l121 245q180 0 324 -59l137 84l157 -133l-114 -72q94 -93 152.5 -236.5t58.5 -285.5q0 -161 -49.5 -304t-140 -252t-229.5 -173t-308 -64 q-206 0 -331.5 123t-125.5 314zM608 422q0 -152 131 -152q74 0 128.5 53t78 123.5t23.5 143.5q0 147 -131 147q-58 0 -104.5 -30t-72.5 -78t-39.5 -101t-13.5 -106z" />
<glyph unicode="&#xf1;" horiz-adv-x="1337" d="M143 0l230 1069h407l-16 -72q125 105 301 105q158 0 234.5 -78.5t76.5 -216.5q0 -66 -14 -135l-143 -672h-414l129 608q8 50 8 66q0 42 -21 64t-75 22q-60 0 -105.5 -43t-60.5 -113l-129 -604h-408zM512 1210q16 59 40.5 110t61 96t88 71t111.5 26q55 0 117.5 -22 t109.5 -44t64 -22q61 0 86 82h196q-33 -129 -109 -216t-190 -87q-54 0 -115 21.5t-110 43t-74 21.5q-32 0 -49.5 -20.5t-29.5 -59.5h-197z" />
<glyph unicode="&#xf2;" horiz-adv-x="1335" d="M199 381q0 200 82.5 363t240.5 260.5t365 97.5q220 0 347.5 -111.5t127.5 -304.5q0 -202 -80 -363.5t-235.5 -257.5t-362.5 -96q-225 0 -355 112t-130 300zM575 1485h383l93 -303h-224zM606 422q0 -143 117 -143q55 0 101 38t72.5 96t41 121t14.5 119q0 69 -25.5 103.5 t-90.5 34.5q-55 0 -101 -37t-73 -94t-41.5 -119.5t-14.5 -118.5z" />
<glyph unicode="&#xf3;" horiz-adv-x="1394" d="M199 381q0 200 82.5 363t240.5 260.5t365 97.5q220 0 347.5 -111.5t127.5 -304.5q0 -202 -80 -363.5t-235.5 -257.5t-362.5 -96q-225 0 -355 112t-130 300zM606 422q0 -143 117 -143q55 0 101 38t72.5 96t41 121t14.5 119q0 69 -25.5 103.5t-90.5 34.5q-55 0 -101 -37 t-73 -94t-41.5 -119.5t-14.5 -118.5zM819 1182l217 303h426l-391 -303h-252z" />
<glyph unicode="&#xf4;" horiz-adv-x="1335" d="M199 381q0 200 82.5 363t240.5 260.5t365 97.5q220 0 347.5 -111.5t127.5 -304.5q0 -202 -80 -363.5t-235.5 -257.5t-362.5 -96q-225 0 -355 112t-130 300zM518 1196l307 305h305l177 -305h-258l-99 133l-153 -133h-279zM606 422q0 -143 117 -143q55 0 101 38t72.5 96 t41 121t14.5 119q0 69 -25.5 103.5t-90.5 34.5q-55 0 -101 -37t-73 -94t-41.5 -119.5t-14.5 -118.5z" />
<glyph unicode="&#xf5;" horiz-adv-x="1308" d="M199 381q0 200 82.5 363t240.5 260.5t365 97.5q220 0 347.5 -111.5t127.5 -304.5q0 -202 -80 -363.5t-235.5 -257.5t-362.5 -96q-225 0 -355 112t-130 300zM494 1210q16 59 40.5 110t61 96t88 71t111.5 26q55 0 117 -22t109 -44t64 -22q61 0 86 82h197 q-33 -129 -109 -216t-190 -87q-55 0 -116 21.5t-110 43t-73 21.5q-32 0 -50 -20.5t-30 -59.5h-196zM606 422q0 -143 117 -143q55 0 101 38t72.5 96t41 121t14.5 119q0 69 -25.5 103.5t-90.5 34.5q-55 0 -101 -37t-73 -94t-41.5 -119.5t-14.5 -118.5z" />
<glyph unicode="&#xf6;" horiz-adv-x="1316" d="M199 381q0 200 82.5 363t240.5 260.5t365 97.5q220 0 347.5 -111.5t127.5 -304.5q0 -202 -80 -363.5t-235.5 -257.5t-362.5 -96q-225 0 -355 112t-130 300zM524 1380q0 66 49.5 113t118.5 47t118.5 -47t49.5 -113t-49.5 -112.5t-118.5 -46.5t-118.5 46.5t-49.5 112.5z M606 422q0 -143 117 -143q55 0 101 38t72.5 96t41 121t14.5 119q0 69 -25.5 103.5t-90.5 34.5q-55 0 -101 -37t-73 -94t-41.5 -119.5t-14.5 -118.5zM1020 1380q0 66 49.5 113t118.5 47t118.5 -47t49.5 -113t-49.5 -112.5t-118.5 -46.5t-118.5 46.5t-49.5 112.5z" />
<glyph unicode="&#xf7;" horiz-adv-x="1503" d="M190 506l78 368h1340l-78 -368h-1340zM584 174q0 85 59 144t145 59q85 0 145 -59t60 -144q0 -83 -60 -142t-145 -59q-86 0 -145 58.5t-59 142.5zM799 1210q0 84 59.5 142.5t145.5 58.5q85 0 144.5 -59t59.5 -142t-59.5 -142.5t-144.5 -59.5q-86 0 -145.5 59t-59.5 143z " />
<glyph unicode="&#xf8;" horiz-adv-x="1333" d="M199 381q0 200 82.5 363t240.5 260.5t365 97.5q112 0 203 -31l55 76l123 -35l-68 -94q162 -112 162 -332q0 -202 -80 -363.5t-235.5 -257.5t-362.5 -96q-129 0 -219 33l-70 -96l-121 37l82 116q-76 54 -116.5 137t-40.5 185zM606 422q0 -13 2 -19l275 381q-25 7 -47 7 q-55 0 -101 -37t-73 -94t-41.5 -119.5t-14.5 -118.5zM672 287q28 -8 51 -8q55 0 101 38t72.5 96t41 121t14.5 119v23z" />
<glyph unicode="&#xf9;" horiz-adv-x="1343" d="M195 260q0 60 16 135l141 672h416l-131 -608q-8 -50 -8 -66q0 -41 22 -62.5t76 -21.5q59 0 104 42.5t60 113.5l129 602h407l-229 -1067h-407l16 70q-125 -105 -301 -105q-158 0 -234.5 78.5t-76.5 216.5zM573 1485h383l93 -303h-224z" />
<glyph unicode="&#xfa;" horiz-adv-x="1343" d="M195 260q0 60 16 135l141 672h416l-131 -608q-8 -50 -8 -66q0 -41 22 -62.5t76 -21.5q59 0 104 42.5t60 113.5l129 602h407l-229 -1067h-407l16 70q-125 -105 -301 -105q-158 0 -234.5 78.5t-76.5 216.5zM735 1182l217 303h426l-391 -303h-252z" />
<glyph unicode="&#xfb;" horiz-adv-x="1343" d="M195 260q0 60 16 135l141 672h416l-131 -608q-8 -50 -8 -66q0 -41 22 -62.5t76 -21.5q59 0 104 42.5t60 113.5l129 602h407l-229 -1067h-407l16 70q-125 -105 -301 -105q-158 0 -234.5 78.5t-76.5 216.5zM537 1196l307 305h305l176 -305h-258l-98 133l-154 -133h-278z " />
<glyph unicode="&#xfc;" horiz-adv-x="1343" d="M195 260q0 60 16 135l141 672h416l-131 -608q-8 -50 -8 -66q0 -41 22 -62.5t76 -21.5q59 0 104 42.5t60 113.5l129 602h407l-229 -1067h-407l16 70q-125 -105 -301 -105q-158 0 -234.5 78.5t-76.5 216.5zM543 1380q0 66 49.5 113t118.5 47t118.5 -47t49.5 -113 t-49.5 -112.5t-118.5 -46.5t-118.5 46.5t-49.5 112.5zM1038 1380q0 66 49.5 113t118.5 47t118.5 -47t49.5 -113t-49.5 -112.5t-118.5 -46.5t-118.5 46.5t-49.5 112.5z" />
<glyph unicode="&#xfd;" horiz-adv-x="1357" d="M127 -367l127 277q57 -35 106 -35q48 0 78.5 32t30.5 99q0 23 -2 37l-121 1024h408l2 -705l317 705h455l-758 -1288q-61 -102 -163 -154.5t-222 -52.5q-133 0 -258 61zM766 1182l217 303h426l-391 -303h-252z" />
<glyph unicode="&#xfe;" horiz-adv-x="1323" d="M78 -408l389 1846h414l-90 -428q117 86 256 86q161 0 247 -101t86 -282q0 -100 -21 -202t-66 -200t-108 -173.5t-156 -122t-202 -46.5q-145 0 -237 92l-101 -469h-411zM668 428q0 -60 25.5 -100.5t78.5 -40.5q49 0 89 39.5t63 98.5t35 120t12 112q0 119 -92 119 q-39 0 -82.5 -18.5t-73.5 -63.5z" />
<glyph unicode="&#xff;" horiz-adv-x="1523" d="M61 -367l127 277q57 -35 107 -35q48 0 78 32t30 99q0 23 -2 37l-122 1024h407l4 -705l318 705h454l-757 -1288q-61 -102 -163.5 -154.5t-222.5 -52.5q-133 0 -258 61zM498 1380q0 66 50 113t120 47q69 0 118.5 -47t49.5 -113t-49.5 -112.5t-118.5 -46.5 q-71 0 -120.5 46.5t-49.5 112.5zM993 1380q0 66 50 113t120 47q69 0 118.5 -47t49.5 -113t-49.5 -112.5t-118.5 -46.5q-71 0 -120.5 46.5t-49.5 112.5z" />
<glyph unicode="&#x152;" horiz-adv-x="2299" d="M201 571q0 191 67 359.5t185 291.5t288 194t367 71q156 0 268 -47h1110l-67 -326h-690l-43 -203h526l-68 -321h-526l-57 -266h727l-70 -324h-1151q-141 -27 -287 -27q-118 0 -215.5 32.5t-164 88t-112 132t-66.5 163t-21 182.5zM643 575q0 -119 55.5 -182t163.5 -63 q103 0 172 32.5t119 110.5l123 559q-62 98 -221 98q-99 0 -180 -52.5t-130 -135.5t-75.5 -178.5t-26.5 -188.5z" />
<glyph unicode="&#x153;" horiz-adv-x="1990" d="M199 408q0 148 53 277t145.5 221t224.5 144.5t285 51.5q205 0 326 -98q155 96 356 96q225 0 332 -114t107 -312q0 -126 -37 -238h-676q0 -6 -1 -17.5t-1 -17.5q0 -129 133 -129q67 0 125 25t131 82l229 -213q-124 -103 -257 -151t-292 -48q-201 0 -327 113 q-174 -111 -398 -111q-220 0 -339 123t-119 316zM610 422q0 -143 117 -143q58 0 104.5 37.5t72 96t39 120.5t13.5 120q0 68 -25.5 103t-92.5 35q-58 0 -103.5 -37t-71.5 -94.5t-39.5 -119t-13.5 -118.5zM1370 676h283v20q0 59 -25 90t-88 31q-113 0 -170 -141z" />
<glyph unicode="&#x178;" horiz-adv-x="1609" d="M336 1440h450l166 -533l389 531h543l-770 -879l-119 -559h-436l125 590zM713 1722q0 66 49.5 113t118.5 47t118.5 -47t49.5 -113t-49.5 -112.5t-118.5 -46.5t-118.5 46.5t-49.5 112.5zM1208 1722q0 66 49.5 113t118.5 47t118.5 -47t49.5 -113t-49.5 -112.5t-118.5 -46.5 t-118.5 46.5t-49.5 112.5z" />
<glyph unicode="&#x2c6;" horiz-adv-x="1075" d="M401 1196l308 305h305l174 -305h-256l-98 133l-156 -133h-277z" />
<glyph unicode="&#x2dc;" horiz-adv-x="1097" d="M401 1210q16 59 40.5 110t61 96t88 71t111.5 26q55 0 117 -22t109 -44t65 -22q59 0 84 82h199q-21 -131 -101 -217t-198 -86q-55 0 -116 21.5t-110 43t-73 21.5q-32 0 -50 -20.5t-30 -59.5h-197z" />
<glyph unicode="&#x2000;" horiz-adv-x="1003" />
<glyph unicode="&#x2001;" horiz-adv-x="2007" />
<glyph unicode="&#x2002;" horiz-adv-x="1003" />
<glyph unicode="&#x2003;" horiz-adv-x="2007" />
<glyph unicode="&#x2004;" horiz-adv-x="669" />
<glyph unicode="&#x2005;" horiz-adv-x="501" />
<glyph unicode="&#x2006;" horiz-adv-x="334" />
<glyph unicode="&#x2007;" horiz-adv-x="334" />
<glyph unicode="&#x2008;" horiz-adv-x="250" />
<glyph unicode="&#x2009;" horiz-adv-x="401" />
<glyph unicode="&#x200a;" horiz-adv-x="111" />
<glyph unicode="&#x2010;" horiz-adv-x="823" d="M211 506l78 368h618l-78 -368h-618z" />
<glyph unicode="&#x2011;" horiz-adv-x="823" d="M211 506l78 368h618l-78 -368h-618z" />
<glyph unicode="&#x2012;" horiz-adv-x="823" d="M211 506l78 368h618l-78 -368h-618z" />
<glyph unicode="&#x2013;" horiz-adv-x="1026" d="M190 510l76 360h862l-75 -360h-863z" />
<glyph unicode="&#x2014;" horiz-adv-x="1320" d="M190 510l76 360h1159l-77 -360h-1158z" />
<glyph unicode="&#x2018;" horiz-adv-x="684" d="M279 922l364 561l275 -45l-252 -516h-387z" />
<glyph unicode="&#x2019;" horiz-adv-x="684" d="M268 922l252 516h387l-364 -561z" />
<glyph unicode="&#x201a;" horiz-adv-x="704" d="M39 -229l264 534h387l-377 -579z" />
<glyph unicode="&#x201c;" horiz-adv-x="1185" d="M279 922l364 561l275 -45l-252 -516h-387zM780 922l365 561l274 -45l-252 -516h-387z" />
<glyph unicode="&#x201d;" horiz-adv-x="1185" d="M268 922l252 516h387l-364 -561zM770 922l254 516h387l-367 -561z" />
<glyph unicode="&#x201e;" horiz-adv-x="1196" d="M33 -229l264 534h387l-377 -579zM535 -229l264 534h387l-375 -579z" />
<glyph unicode="&#x2022;" horiz-adv-x="1034" d="M281 715q0 165 114 280t279 115t279 -115t114 -280q0 -166 -113.5 -279.5t-279.5 -113.5t-279.5 113.5t-113.5 279.5z" />
<glyph unicode="&#x2026;" horiz-adv-x="1626" d="M115 174q0 85 59.5 144t144.5 59t145 -59t60 -144q0 -83 -60 -142t-145 -59t-144.5 59t-59.5 142zM645 174q0 85 60 144t145 59t145 -59t60 -144q0 -83 -60 -142t-145 -59t-145 59t-60 142zM1176 174q0 85 59.5 144t144.5 59t145 -59t60 -144q0 -83 -60 -142t-145 -59 t-144.5 59t-59.5 142z" />
<glyph unicode="&#x202f;" horiz-adv-x="401" />
<glyph unicode="&#x2039;" horiz-adv-x="817" d="M217 649l424 459l287 -47l-412 -438l248 -469h-289z" />
<glyph unicode="&#x203a;" horiz-adv-x="825" d="M119 154l454 485l-221 418l266 51l259 -492l-426 -462h-332z" />
<glyph unicode="&#x205f;" horiz-adv-x="501" />
<glyph unicode="&#x20ac;" horiz-adv-x="1591" d="M113 506l26 133h176q6 43 15 90q2 8 6 24.5t6 24.5h-172l29 131h186q106 260 326 409.5t510 149.5q232 0 366.5 -98t177.5 -276l-417 -140q-20 77 -73 117.5t-132 40.5q-196 0 -303 -203h368l-26 -131h-396l-7 -28t-7 -33q-9 -41 -12 -78h391l-29 -133h-364 q12 -91 62.5 -137.5t135.5 -46.5q76 0 151 38.5t128 104.5l319 -227q-116 -140 -272 -206.5t-369 -66.5q-149 0 -264.5 41.5t-187.5 116t-110 171t-42 212.5h-196z" />
<glyph unicode="&#x2122;" horiz-adv-x="1695" d="M373 1274l35 166h630l-34 -166h-216l-122 -576h-199l123 576h-217zM971 698l157 742h205q5 -28 25.5 -136t34.5 -194.5t18 -144.5q33 72 77 149.5t108 182.5t87 143h218l-158 -742h-189q10 45 31.5 141.5t39.5 170.5t36 141l-262 -453h-94l-64 451q-25 -166 -84 -451 h-186z" />
<glyph unicode="&#xe000;" horiz-adv-x="1064" d="M0 0v1065h1065v-1065h-1065z" />
</font>
</defs>
</svg>
