<?xml version="1.0" standalone="no"?>
<!DOCTYPE svg PUBLIC "-//W3C//DTD SVG 1.1//EN" "http://www.w3.org/Graphics/SVG/1.1/DTD/svg11.dtd" >
<svg xmlns="http://www.w3.org/2000/svg">
<metadata></metadata>
<defs>
<font id="district_demi_italicdemiIt" horiz-adv-x="1538" >
<font-face units-per-em="2048" ascent="1638" descent="-410" />
<missing-glyph horiz-adv-x="598" />
<glyph unicode="&#xfb01;" horiz-adv-x="1273" d="M231 0l181 848h-160l41 199h160l24 124q28 143 131 220t242 77q57 0 122 -15t97 -36l-37 -178q-45 53 -131 53q-51 0 -92 -35.5t-53 -95.5l-25 -114h621l-222 -1047h-278l180 848h-342l-180 -848h-279z" />
<glyph unicode="&#xfb02;" horiz-adv-x="1357" d="M231 0l177 848h-160l43 199h158l26 124q32 145 124 221t226 76q55 0 110.5 -14.5t88.5 -36.5l-39 -180q-34 55 -108 55q-96 0 -125 -131l-27 -114h223l-41 -199h-223l-178 -848h-275zM928 0l303 1440h289l-303 -1440h-289z" />
<glyph unicode="&#xd;" horiz-adv-x="2048" />
<glyph unicode=" "  horiz-adv-x="598" />
<glyph unicode="&#x09;" horiz-adv-x="598" />
<glyph unicode="&#xa0;" horiz-adv-x="598" />
<glyph unicode="!" horiz-adv-x="573" d="M168 127q0 63 45.5 107.5t108.5 44.5t108 -44.5t45 -107.5q0 -62 -45 -106t-108 -44t-108.5 44.5t-45.5 105.5zM285 446l28 396l127 600h275l-129 -600l-137 -396h-164z" />
<glyph unicode="&#x22;" horiz-adv-x="933" d="M350 819q7 103 56 606q5 27 57.5 42.5t93.5 15.5h2h2h2q37 0 77 -13.5t40 -37.5v-5l-203 -608h-127zM805 819q6 103 55 606q5 25 58 41.5t94 16.5h2h2q37 0 78 -13.5t41 -37.5v-5q-74 -225 -125 -377t-66 -192l-14 -39h-125z" />
<glyph unicode="#" horiz-adv-x="1505" d="M223 381l45 205h244l59 280h-243l43 207h247l82 367h234l-82 -367h256l82 367h231l-80 -367h250l-45 -207h-250l-61 -280h252l-43 -205h-254l-82 -381h-236l84 381h-256l-86 -381h-231l84 381h-244zM743 578h254l66 296h-254z" />
<glyph unicode="$" horiz-adv-x="1363" d="M160 270l209 158q50 -92 153 -140t221 -48q132 0 226 55t94 149q0 60 -70 107.5t-237 93.5q-195 56 -288 152.5t-93 212.5q0 92 40.5 167.5t109 125.5t148 81t169.5 46l24 118h228l-23 -112q263 -24 428 -203l-207 -172q-55 71 -157.5 111t-210.5 40q-43 0 -84 -8 t-81 -25.5t-64.5 -52.5t-24.5 -82q0 -60 50.5 -94.5t172.5 -70.5q230 -67 349.5 -165t119.5 -237q0 -99 -43.5 -180.5t-117.5 -134.5t-159.5 -87t-183.5 -50l-31 -144h-227l27 131q-324 15 -467 258z" />
<glyph unicode="%" horiz-adv-x="2084" d="M299 860q0 85 17.5 169t56.5 163t94.5 139t138 96.5t180.5 36.5q141 0 214 -83.5t73 -229.5q0 -84 -19 -169t-58.5 -163t-94.5 -138.5t-132.5 -97t-166.5 -36.5q-141 0 -222 86t-81 227zM508 864q0 -155 115 -155q62 0 111.5 47t76.5 118.5t41 142t14 130.5 q0 160 -114 160q-47 0 -88 -32.5t-69 -82.5t-48 -110.5t-29.5 -116.5t-9.5 -101zM555 -10l1090 1472l200 -10l-1089 -1472zM1319 287q0 84 19 168t59 162.5t96.5 138.5t137.5 96.5t175 36.5q142 0 214.5 -83t72.5 -231q0 -83 -19 -167.5t-58.5 -162.5t-94.5 -138.5 t-132.5 -97t-166.5 -36.5q-141 0 -222 85.5t-81 228.5zM1526 289q0 -156 116 -156q62 0 111.5 47.5t77 119t41.5 142t14 129.5q0 160 -114 160q-59 0 -108 -48t-78 -119t-44.5 -144t-15.5 -131z" />
<glyph unicode="&#x26;" horiz-adv-x="1445" d="M178 344q0 126 84 245t246 195v4q-72 109 -72 224q0 187 157.5 319.5t393.5 132.5q163 0 295 -48.5t252 -168.5l-197 -176q-135 158 -327 158q-125 0 -199 -63t-74 -150q0 -50 31 -98l336 -517q42 57 45 109h258q-5 -65 -53 -161.5t-113 -158.5l125 -190h-346l-31 45 q-97 -47 -182.5 -63.5t-181.5 -16.5q-104 0 -189.5 31t-141 83.5t-86 120.5t-30.5 144zM467 371q0 -75 58 -126.5t155 -51.5q82 0 186 43l-231 356q-84 -42 -126 -101t-42 -120z" />
<glyph unicode="'" horiz-adv-x="479" d="M350 819q7 103 56 606q5 27 57.5 42.5t93.5 15.5h2h2h2q37 0 77 -13.5t40 -37.5v-5l-203 -608h-127z" />
<glyph unicode="(" horiz-adv-x="712" d="M205 377q0 185 50.5 366.5t141.5 341t214 299.5t272 254l94 -129q-261 -264 -392.5 -560.5t-131.5 -649.5q0 -328 137 -555l-127 -96q-258 321 -258 729z" />
<glyph unicode=")" horiz-adv-x="727" d="M14 -225q263 264 395 560.5t132 651.5q0 321 -138 555l125 96q258 -324 258 -729q0 -366 -184.5 -697t-490.5 -564z" />
<glyph unicode="*" horiz-adv-x="923" d="M309 975l279 92l-240 88l88 160l211 -150l35 277h172l-80 -264l246 135l49 -150l-276 -100l235 -98l-92 -158l-209 154l-33 -275h-172l80 268l-246 -133z" />
<glyph unicode="+" horiz-adv-x="1314" d="M217 541l47 219h443l96 448h225l-96 -448h442l-47 -219h-440l-96 -449h-226l94 449h-442z" />
<glyph unicode="," horiz-adv-x="567" d="M2 -229l244 483h295l-334 -516z" />
<glyph unicode="-" horiz-adv-x="770" d="M223 571l56 254h563l-54 -254h-565z" />
<glyph unicode="." horiz-adv-x="462" d="M106 127q0 63 44.5 107.5t107.5 44.5q64 0 109 -44.5t45 -107.5q0 -62 -45 -106t-109 -44q-63 0 -107.5 44t-44.5 106z" />
<glyph unicode="/" horiz-adv-x="1054" d="M20 -92l1033 1624h286l-1028 -1624h-291z" />
<glyph unicode="0" horiz-adv-x="1366" d="M227 520q0 135 30 268.5t92.5 255t150 214.5t212.5 148.5t271 55.5q114 0 203.5 -41t145 -113t84 -165.5t28.5 -202.5q0 -135 -29.5 -269.5t-92 -259.5t-149.5 -220.5t-211.5 -153t-269.5 -57.5q-213 0 -339 150.5t-126 389.5zM508 481q0 -280 215 -280q89 0 164.5 53.5 t124.5 136t84 184.5t50 197.5t15 177.5q0 133 -50 213t-159 80q-88 0 -163.5 -55t-126 -139.5t-86.5 -188.5t-52 -201t-16 -178z" />
<glyph unicode="1" horiz-adv-x="905" d="M365 1036l14 70l27 129q54 0 90 8q209 36 258 197h254l-308 -1440h-290l225 1061q-22 -12 -108 -18.5t-162 -6.5z" />
<glyph unicode="2" horiz-adv-x="1267" d="M102 0q13 55 32.5 106t40.5 92t54 83t59 71.5t70.5 66t73 58.5t82 56.5t82.5 52t89.5 53.5t88.5 53q136 82 186 121q150 119 150 250q0 78 -55.5 126t-157.5 48q-101 0 -191.5 -56.5t-158.5 -148.5l-187 127q97 141 241 223t333 82q215 0 328.5 -100.5t113.5 -257.5 q0 -81 -25 -155t-63.5 -131t-98 -112.5t-116 -95.5t-129.5 -84q-252 -145 -309 -184q-88 -60 -133 -117h698l-49 -227h-1049z" />
<glyph unicode="3" horiz-adv-x="1306" d="M145 307l220 111q65 -223 301 -223q90 0 166.5 33t124 99t47.5 152q0 158 -250 158h-195l45 209h178q59 0 113.5 13.5t102 40.5t76 75t28.5 110q0 74 -53.5 123t-163.5 49q-98 0 -191.5 -66t-142.5 -151l-207 119q95 146 230.5 228.5t332.5 82.5q91 0 172.5 -20.5 t147 -60t104.5 -104.5t39 -146q0 -149 -81.5 -250t-227.5 -148q98 -16 159.5 -84.5t61.5 -181.5q0 -103 -38.5 -187.5t-102 -141.5t-148.5 -96.5t-176 -57t-186 -17.5q-202 0 -326 91q-118 82 -160 241z" />
<glyph unicode="4" horiz-adv-x="1370" d="M168 313l49 226l774 798l99 103h323l-194 -916h159l-45 -213h-159l-66 -311h-287l66 313h-719zM485 524h447l127 592z" />
<glyph unicode="5" horiz-adv-x="1323" d="M160 274l215 123q72 -207 311 -207q162 0 264.5 104t102.5 265q0 91 -54 142t-161 51q-78 0 -157.5 -38t-141.5 -98l-230 58l213 766h922l-55 -221h-693l-98 -353q149 99 326 99q192 0 301.5 -102.5t109.5 -274.5q0 -145 -56.5 -263t-153 -194t-222.5 -117t-268 -41 q-178 0 -302.5 74t-172.5 227z" />
<glyph unicode="6" horiz-adv-x="1312" d="M211 455q0 113 26.5 231.5t74.5 230.5t121.5 210.5t162.5 172.5t202.5 117t235.5 43q109 0 202.5 -31t145.5 -83l-153 -162q-69 63 -203 63h-6q-149 1 -281.5 -131t-197.5 -321q159 137 377 137q191 0 314.5 -106t123.5 -277q0 -110 -38.5 -204t-104.5 -161t-153.5 -115 t-186.5 -71t-203 -23q-95 0 -172 24.5t-130 67.5t-88.5 104t-52 132t-16.5 152zM473 414q0 -42 13 -80.5t40.5 -72.5t77 -54.5t115.5 -20.5q151 0 254.5 96.5t103.5 245.5q0 95 -63 148t-174 53q-93 0 -175.5 -36.5t-137 -110.5t-54.5 -168z" />
<glyph unicode="7" horiz-adv-x="1259" d="M340 0q96 332 283.5 643t449.5 567h-723l49 230h1045l-45 -207q-307 -279 -484 -568t-282 -665h-293z" />
<glyph unicode="8" horiz-adv-x="1361" d="M180 348q0 149 91.5 263t238.5 165q-60 37 -93.5 98t-33.5 136q0 115 52.5 205.5t140.5 144.5t195 82t224 28q193 0 319 -91.5t126 -248.5q0 -127 -67 -220.5t-189 -147.5q81 -37 127.5 -110.5t46.5 -168.5q0 -105 -37.5 -191t-101 -144t-151.5 -97.5t-186 -57.5 t-206 -18q-141 0 -252.5 43t-177.5 128.5t-66 201.5zM459 377q0 -83 64.5 -139t195.5 -56q89 0 170 31t137.5 98.5t56.5 157.5q0 86 -69.5 138t-194.5 52q-64 0 -126.5 -18t-115.5 -51.5t-85.5 -89t-32.5 -123.5zM645 1020q0 -70 57 -116t166 -46q54 0 106.5 15.5t96.5 44.5 t71 76.5t27 105.5q0 74 -57 121t-160 47q-73 0 -142 -28t-117 -86.5t-48 -133.5z" />
<glyph unicode="9" horiz-adv-x="1312" d="M236 94l153 162q71 -63 203 -66h6q149 0 282.5 133t196.5 322q-159 -137 -377 -137q-191 0 -314.5 106t-123.5 277q0 110 36.5 204t99.5 161t148 114.5t182.5 70.5t201.5 23q117 0 209.5 -37.5t150 -103.5t87.5 -151.5t30 -186.5q0 -136 -36.5 -278t-108.5 -271.5 t-169.5 -231.5t-229.5 -163t-277 -61q-110 0 -203.5 30.5t-146.5 83.5zM541 911q0 -95 63 -147.5t174 -52.5q93 0 175.5 36.5t137 110.5t54.5 168q0 42 -13 80t-40.5 72t-77 54.5t-115.5 20.5q-150 0 -254 -96.5t-104 -245.5z" />
<glyph unicode=":" horiz-adv-x="503" d="M127 127q0 63 44.5 107.5t107.5 44.5q64 0 108.5 -44.5t44.5 -107.5q0 -62 -44.5 -106t-108.5 -44q-63 0 -107.5 44t-44.5 106zM291 901q0 63 45 107.5t108 44.5t108.5 -44.5t45.5 -107.5q0 -62 -45.5 -106.5t-108.5 -44.5t-108 44.5t-45 106.5z" />
<glyph unicode=";" horiz-adv-x="567" d="M2 -229l244 483h295l-334 -516zM354 901q0 63 45 107.5t109 44.5q63 0 107 -44.5t44 -107.5q0 -62 -44 -106.5t-107 -44.5q-64 0 -109 44.5t-45 106.5z" />
<glyph unicode="&#x3c;" horiz-adv-x="1183" d="M213 616l43 201l1145 594l-62 -297l-850 -416l670 -424l-53 -251z" />
<glyph unicode="=" horiz-adv-x="1349" d="M170 313l47 224h1145l-47 -224h-1145zM264 762l47 225h1147l-49 -225h-1145z" />
<glyph unicode="&#x3e;" horiz-adv-x="1183" d="M86 23l64 296l847 416l-669 424l53 252l895 -594l-45 -201z" />
<glyph unicode="?" horiz-adv-x="1183" d="M334 1155q206 315 569 315q197 0 317.5 -90t120.5 -256q0 -62 -15.5 -116t-40.5 -94.5t-66 -79.5t-81.5 -67.5t-97.5 -61.5q-13 -8 -40.5 -23.5t-39 -22.5t-33.5 -21t-31.5 -23t-26.5 -24t-26 -29t-20.5 -32.5t-19.5 -40t-15 -47.5h-251q38 158 94 234.5t198 163.5 q8 5 40.5 23.5t48.5 29t45.5 30.5t46 36.5t34.5 39t26.5 46.5t8.5 49q0 68 -51.5 113.5t-144.5 45.5q-99 0 -200 -65.5t-148 -147.5zM451 127q0 63 44 107.5t107 44.5q64 0 109 -44.5t45 -107.5t-45 -107.5t-109 -44.5q-63 0 -107 44.5t-44 107.5z" />
<glyph unicode="@" horiz-adv-x="1681" d="M231 600q0 174 64.5 331.5t175.5 273t267.5 183.5t332.5 68q146 0 272.5 -50t215 -136.5t138.5 -207.5t50 -259q0 -251 -113 -413.5t-276 -162.5q-76 0 -125.5 32t-75.5 101q-69 -67 -130 -94.5t-153 -27.5q-114 0 -188 98.5t-74 238.5q0 114 53 222.5t148.5 179 t204.5 70.5q79 0 136 -23.5t106 -95.5l28 90h156q0 -5 -35.5 -147t-71 -281.5t-34.5 -140.5q-3 -6 -3 -23q0 -31 22 -52.5t54 -21.5q60 0 108.5 52t75.5 127.5t41.5 147t14.5 122.5q0 162 -73.5 284t-198 185t-279.5 63q-146 0 -276.5 -57.5t-224.5 -155t-149 -233.5 t-55 -287q0 -120 35 -221.5t95 -173t141 -121.5t172.5 -74t189.5 -24q247 0 475 178l62 -103q-263 -198 -533 -198q-115 0 -225 29t-208.5 90t-172 147t-117 207.5t-43.5 263.5zM784 582q0 -94 45 -144.5t105 -50.5q72 0 147.5 79t98.5 163q14 61 14 108q0 158 -156 158 q-62 0 -122 -50t-96 -123t-36 -140z" />
<glyph unicode="A" horiz-adv-x="1492" d="M61 0l854 1440h293l224 -1440h-293l-35 313h-541l-172 -313h-330zM680 528h397l-69 602z" />
<glyph unicode="B" horiz-adv-x="1433" d="M143 0l306 1440h673q97 0 173 -25.5t122.5 -69.5t70 -98.5t23.5 -116.5q0 -118 -76.5 -220.5t-209.5 -143.5q94 -26 148 -107.5t54 -185.5q0 -67 -22.5 -132.5t-73.5 -127.5t-124.5 -109t-184.5 -75.5t-244 -28.5h-635zM483 223h330q139 0 228 64t89 198q0 45 -18.5 78 t-51 51t-70.5 26.5t-83 8.5h-332zM621 866h321q118 0 194 56.5t76 169.5q0 127 -182 127h-334z" />
<glyph unicode="C" horiz-adv-x="1413" d="M231 514q0 143 36 282t108 261t171 215t233 147t286 54q215 0 347.5 -101t172.5 -272l-270 -90q-26 96 -95 157.5t-186 61.5q-96 0 -179.5 -43.5t-142 -114.5t-100.5 -161t-62 -183.5t-20 -181.5q0 -152 68.5 -242t202.5 -90q196 0 340 182l225 -157 q-103 -131 -254.5 -201t-337.5 -70q-142 0 -248.5 42.5t-169.5 118.5t-94 173t-31 213z" />
<glyph unicode="D" horiz-adv-x="1456" d="M143 0l306 1440h481q162 0 281.5 -41t189 -115.5t102.5 -169t33 -211.5q0 -420 -237.5 -661.5t-663.5 -241.5h-492zM489 236h179q115 0 209.5 36t159.5 98.5t110 147.5t65.5 182t20.5 203q0 151 -82 225t-260 74h-195z" />
<glyph unicode="E" horiz-adv-x="1257" d="M143 0l306 1440h1013l-49 -232h-719l-73 -342h544l-47 -229h-547l-86 -408h760l-49 -229h-1053z" />
<glyph unicode="F" horiz-adv-x="1200" d="M143 0l306 1440h1017l-49 -232h-725l-76 -356h547l-47 -227h-547l-133 -625h-293z" />
<glyph unicode="G" horiz-adv-x="1507" d="M233 514q0 143 36 282t108 261t170.5 215t232.5 147t285 54q214 0 348 -100t180 -271l-278 -92q-26 96 -94.5 157.5t-184.5 61.5q-80 0 -152.5 -30.5t-126.5 -83t-98 -121t-72 -145t-42.5 -154t-14.5 -150.5q0 -152 69.5 -242t203.5 -90q158 0 270.5 91t161.5 245h-317 l49 217h604l-31 -156q-29 -136 -95.5 -252.5t-163 -204t-227.5 -137t-280 -49.5q-142 0 -248 42.5t-169 118.5t-93.5 172.5t-30.5 213.5z" />
<glyph unicode="H" horiz-adv-x="1478" d="M143 0l306 1440h292l-123 -578h609l123 578h292l-307 -1440h-293l134 618h-611l-131 -618h-291z" />
<glyph unicode="I" horiz-adv-x="579" d="M143 0l306 1440h292l-305 -1440h-293z" />
<glyph unicode="J" horiz-adv-x="1148" d="M90 344l45 14l184 62q0 -20 3 -35q17 -172 198 -172q118 0 197 80t110 223l197 924h289l-185 -862q-65 -309 -221.5 -455t-406.5 -146q-84 0 -156 22t-130 65t-91 115t-33 165z" />
<glyph unicode="K" horiz-adv-x="1478" d="M143 0l306 1440h292l-139 -658l690 658h389l-626 -559l334 -881h-308l-250 682l-309 -279l-86 -403h-293z" />
<glyph unicode="L" horiz-adv-x="1146" d="M143 0l308 1440h292l-254 -1194h670l-53 -246h-963z" />
<glyph unicode="M" horiz-adv-x="1755" d="M143 0l306 1440h344l161 -1018l596 1018h367l-305 -1440h-293l215 1018l-600 -1018h-115l-168 1018l-215 -1018h-293z" />
<glyph unicode="N" horiz-adv-x="1519" d="M143 0l306 1440h294l424 -1043l224 1043h290l-305 -1440h-293l-426 1042l-221 -1042h-293z" />
<glyph unicode="O" d="M231 518q0 198 59.5 372t167.5 303.5t270 204.5t357 75q108 0 196 -27.5t149 -77t103 -118t61.5 -149.5t19.5 -173q0 -154 -34.5 -295t-105 -262.5t-171 -211.5t-240 -141t-303.5 -51q-135 0 -238.5 43t-166 119.5t-93.5 174t-31 214.5zM532 547q0 -154 71 -244t212 -90 q78 0 148.5 31t123.5 83t96.5 120t71 144t42 152.5t14.5 147.5q0 72 -15.5 131t-47.5 106.5t-88 74t-130 26.5q-95 0 -177.5 -43.5t-140 -115t-99 -161.5t-61.5 -182.5t-20 -179.5z" />
<glyph unicode="P" horiz-adv-x="1349" d="M143 0l306 1440h636q220 0 335.5 -101.5t115.5 -265.5q0 -76 -25 -151.5t-76.5 -145t-124 -123t-175 -85t-220.5 -31.5h-364l-115 -537h-293zM598 760h307q157 0 243.5 80.5t86.5 203.5q0 75 -52.5 124t-150.5 49h-338z" />
<glyph unicode="Q" d="M231 518q0 192 58 364.5t164.5 304t270 209t361.5 77.5q108 0 196 -27.5t149 -77t103 -118t61.5 -149.5t19.5 -173q0 -228 -102.5 -449t-278.5 -354l74 -152l-256 -125l-74 150q-105 -31 -217 -31q-135 0 -238.5 43t-166 119.5t-93.5 174t-31 214.5zM532 547 q0 -154 71 -244t212 -90q21 0 53 4l-84 170l258 125l76 -154q89 99 141 246t52 287q0 72 -15.5 131t-47.5 106.5t-88 74t-130 26.5q-95 0 -177.5 -43.5t-140 -115t-99 -161.5t-61.5 -182.5t-20 -179.5z" />
<glyph unicode="R" horiz-adv-x="1380" d="M143 0l306 1440h636q111 0 198.5 -29.5t140 -81t79.5 -115.5t27 -137q0 -106 -50.5 -206t-153.5 -179t-239 -106l222 -586h-303l-199 559h-252l-119 -559h-293zM602 778h307q150 0 239 82.5t89 183.5q0 74 -53 123.5t-152 49.5h-338z" />
<glyph unicode="S" horiz-adv-x="1269" d="M152 213l204 168q54 -92 129 -131t197 -39q51 0 104 12t102.5 36t81 68t31.5 101q0 64 -69.5 114t-237.5 103q-192 58 -283.5 159.5t-91.5 223.5q0 89 33.5 163.5t90 126t133 87t161.5 52t176 16.5q327 0 519 -228l-199 -170q-119 162 -350 162q-45 0 -90 -9.5t-88 -28.5 t-70 -55.5t-27 -84.5q0 -64 51.5 -102t171.5 -78q228 -73 344.5 -175t116.5 -247q0 -97 -34.5 -178t-95.5 -137.5t-143.5 -96t-177.5 -58t-200 -18.5q-174 0 -292 58t-197 186z" />
<glyph unicode="T" horiz-adv-x="1198" d="M299 1208l47 232h1118l-49 -232h-411l-259 -1208h-292l256 1208h-410z" />
<glyph unicode="U" horiz-adv-x="1400" d="M219 397q0 100 29 242l170 801h293l-183 -858q-18 -95 -18 -146q0 -106 55.5 -164.5t182.5 -58.5q86 0 150.5 26.5t106.5 78t68 112t43 141.5l184 869h293l-163 -774q-27 -128 -67 -230.5t-101 -191.5t-140.5 -148.5t-188 -93t-241.5 -33.5q-249 0 -361 111.5t-112 316.5 z" />
<glyph unicode="V" horiz-adv-x="1492" d="M367 1440h292l134 -1131l614 1131h332l-856 -1440h-293z" />
<glyph unicode="W" horiz-adv-x="1931" d="M367 1440h282l2 -1082l486 1082h254l26 -1080l451 1080h307l-668 -1440h-286l-29 1075l-481 -1075h-285z" />
<glyph unicode="X" horiz-adv-x="1515" d="M61 0l676 766l-301 674h316l192 -492l397 492h363l-623 -715l328 -725h-311l-219 545l-443 -545h-375z" />
<glyph unicode="Y" horiz-adv-x="1435" d="M336 1440h307l219 -637l492 637h356l-756 -895l-114 -545h-293l125 590z" />
<glyph unicode="Z" horiz-adv-x="1294" d="M72 0l43 201l981 1007h-723l49 232h1108l-45 -207l-971 -1000h756l-49 -233h-1149z" />
<glyph unicode="[" horiz-adv-x="720" d="M72 -336l420 1974h495l-41 -190h-250l-338 -1591h250l-41 -193h-495z" />
<glyph unicode="\" horiz-adv-x="1003" d="M356 1532h258l338 -1622h-256z" />
<glyph unicode="]" horiz-adv-x="720" d="M10 -336l41 193h250l338 1589h-250l41 192h496l-420 -1974h-496z" />
<glyph unicode="^" horiz-adv-x="1286" d="M297 719l557 721h197l245 -721h-235l-148 473l-354 -473h-262z" />
<glyph unicode="_" horiz-adv-x="1024" d="M-76 -307l33 153h1044l-32 -153h-1045z" />
<glyph unicode="`" horiz-adv-x="772" d="M463 1487h299l121 -305h-158z" />
<glyph unicode="a" horiz-adv-x="1204" d="M160 242q0 76 36.5 150.5t105 138t180 102.5t247.5 39q83 0 174 -15l12 62q9 30 9 57q0 101 -146 101q-158 0 -278 -123l-166 106q101 117 217.5 165t275.5 48q187 0 280 -74t93 -192q0 -37 -8 -70l-125 -594q-2 -4 -2 -12q0 -33 39 -33h31l-23 -98h-225 q-46 0 -73.5 26.5t-27.5 67.5v10q-144 -127 -333 -127q-140 0 -216.5 75.5t-76.5 189.5zM428 279q0 -43 32 -72t93 -29q78 0 162 44.5t116 103.5l31 145q-7 5 -24 8q-45 13 -107 13q-138 0 -220.5 -68t-82.5 -145z" />
<glyph unicode="b" horiz-adv-x="1214" d="M143 0l306 1440h278l-104 -490q136 123 305 123q150 0 234.5 -101t84.5 -282q0 -100 -21 -199.5t-66 -192.5t-108.5 -164t-156.5 -114t-203 -43q-158 0 -250 123l-20 -100h-279zM494 338q19 -71 69 -105t109 -34q72 0 129.5 46.5t90 119t49.5 148.5t17 146 q0 89 -36.5 141t-112.5 52q-82 0 -150 -60t-102 -149z" />
<glyph unicode="c" horiz-adv-x="1044" d="M135 395q0 133 45 256t124.5 217t198 150.5t255.5 56.5q147 0 243.5 -64t141.5 -165l-217 -127q-58 137 -187 137q-75 0 -138.5 -45t-103 -114.5t-61.5 -148t-22 -149.5q0 -94 39.5 -150t124.5 -56q75 0 134.5 39.5t121.5 119.5l184 -137q-78 -111 -195.5 -176.5 t-259.5 -65.5q-195 0 -311.5 115t-116.5 307z" />
<glyph unicode="d" horiz-adv-x="1212" d="M195 356q0 96 20.5 194t64.5 192.5t105.5 167.5t152 118t195.5 45q177 0 258 -125l105 492h280l-305 -1440h-280l20 98q-143 -121 -293 -121q-158 0 -240.5 101.5t-82.5 277.5zM473 381q0 -182 148 -182q61 0 126 34.5t115 106.5l66 307q0 90 -39 147.5t-123 57.5 q-72 0 -130.5 -48t-92.5 -122t-52 -152.5t-18 -148.5z" />
<glyph unicode="e" horiz-adv-x="1173" d="M197 391q0 132 43.5 255t121 218.5t194.5 153t255 57.5q196 0 296.5 -107.5t100.5 -285.5q0 -130 -34 -223h-699q-6 -37 -6 -72q0 -91 44.5 -145t139.5 -54q78 0 148.5 30t146.5 99l156 -143q-206 -203 -496 -203q-192 0 -301.5 115t-109.5 305zM516 639h432q2 14 2 45 q0 184 -168 184q-85 0 -158.5 -63t-107.5 -166z" />
<glyph unicode="f" horiz-adv-x="800" d="M231 0l177 848h-160l43 199h158l26 124q32 145 124 221t226 76q55 0 110.5 -14.5t88.5 -36.5l-39 -180q-34 55 -108 55q-96 0 -125 -131l-27 -114h223l-41 -199h-223l-178 -848h-275z" />
<glyph unicode="g" horiz-adv-x="1251" d="M119 -199l213 123q50 -151 207 -151q117 0 194 71t101 172q4 18 8 37.5t6 30t4 16.5q-71 -65 -144 -95t-163 -30q-154 0 -239 102t-85 279q0 100 22 200t68.5 193t111.5 164.5t159 114.5t204 43q171 0 242 -129l23 105h278q-29 -135 -207 -969q-59 -270 -202 -399.5 t-396 -129.5q-148 0 -260 78t-145 174zM502 385q0 -190 162 -190q62 0 107.5 23t88.5 71q15 15 39 43q8 16 68 323q1 87 -49 142t-121 55q-59 0 -109.5 -31.5t-84 -81.5t-57 -113t-34 -124t-10.5 -117z" />
<glyph unicode="h" horiz-adv-x="1216" d="M143 0l306 1440h278l-104 -490q124 127 315 127q157 0 229 -76t72 -210q0 -73 -18 -152l-136 -639h-282l127 596q14 72 14 117q0 62 -30.5 95.5t-108.5 33.5q-96 0 -166.5 -78t-97.5 -205l-119 -559h-279z" />
<glyph unicode="i" horiz-adv-x="589" d="M158 0l223 1047h281l-224 -1047h-280zM422 1317q0 63 45 108t108 45t107.5 -45t44.5 -108t-44.5 -108.5t-107.5 -45.5t-108 45.5t-45 108.5z" />
<glyph unicode="j" horiz-adv-x="589" d="M-133 -406l67 189q32 -19 60 -19q58 0 110.5 47t71.5 136l232 1100h280l-244 -1141q-32 -155 -147 -250.5t-268 -95.5q-87 0 -162 34zM424 1317q0 63 44 108t107 45t108.5 -45t45.5 -108t-45.5 -108.5t-108.5 -45.5t-107 45.5t-44 108.5z" />
<glyph unicode="k" horiz-adv-x="1198" d="M143 0l306 1440h280l-168 -789l422 396h358l-438 -383l223 -664h-284l-158 473l-197 -172l-65 -301h-279z" />
<glyph unicode="l" horiz-adv-x="573" d="M143 0l303 1440h289l-303 -1440h-289z" />
<glyph unicode="m" horiz-adv-x="1841" d="M143 0l224 1047h280l-24 -117q52 67 131.5 103t169.5 36q106 0 181.5 -43.5t100.5 -132.5q67 83 150 129.5t203 46.5q292 0 292 -289q0 -71 -20 -166l-131 -614h-283l125 582q17 91 17 125q0 60 -29 93.5t-100 33.5q-86 0 -154.5 -80t-95.5 -203l-117 -551h-283l125 588 q15 73 15 114q0 132 -125 132q-82 0 -153.5 -77t-100.5 -206l-117 -551h-281z" />
<glyph unicode="n" horiz-adv-x="1228" d="M143 0l226 1049h276l-22 -103q126 129 315 129q157 0 229 -76.5t72 -210.5q0 -72 -18 -151l-136 -637h-282l127 594q14 72 14 117q0 62 -30.5 95.5t-108.5 33.5q-96 0 -166.5 -77.5t-97.5 -203.5l-119 -559h-279z" />
<glyph unicode="o" horiz-adv-x="1226" d="M195 395q0 137 42.5 259t122 216.5t202.5 149.5t274 55q197 0 308 -114.5t111 -305.5q0 -110 -24.5 -210t-75.5 -186.5t-125 -150t-178 -99.5t-229 -36q-200 0 -314 116t-114 306zM477 397q0 -99 44.5 -153t129.5 -54q79 0 143 44.5t101.5 114.5t57.5 148t20 154 q0 207 -176 207q-78 -1 -141.5 -46t-101 -115t-57.5 -148t-20 -152z" />
<glyph unicode="p" horiz-adv-x="1212" d="M57 -410l310 1457h278l-20 -99q145 123 295 123q158 0 240.5 -102.5t82.5 -278.5q0 -96 -20.5 -194t-65 -192.5t-107 -168t-153 -118t-195.5 -44.5q-174 0 -258 125l-108 -508h-279zM508 401q0 -57 15 -101t53 -74.5t96 -30.5t107.5 32t82.5 83t56.5 114.5t34 125 t10.5 116.5q0 182 -148 182q-61 0 -126.5 -34.5t-115.5 -106.5z" />
<glyph unicode="q" horiz-adv-x="1214" d="M190 356q0 101 21 200.5t65.5 193t108.5 164.5t156.5 114t201.5 43q159 0 252 -125l21 101h278l-309 -1457h-278l108 506q-136 -123 -305 -123q-150 0 -235 101t-85 282zM479 389q0 -194 148 -194q84 0 151.5 60t100.5 148l65 306q-19 72 -69 105.5t-111 33.5 q-71 0 -128.5 -47t-90 -119t-49.5 -148t-17 -145z" />
<glyph unicode="r" horiz-adv-x="876" d="M143 0l224 1047h280l-22 -93q124 127 315 127q66 0 131 -18l-168 -260q-40 43 -104 43q-91 0 -160 -78.5t-96 -206.5l-119 -561h-281z" />
<glyph unicode="s" horiz-adv-x="976" d="M133 137l164 166q96 -117 235 -117q170 0 170 103q0 78 -182 139q-144 49 -222.5 140.5t-78.5 195.5q0 147 117 231t323 84q263 0 422 -147l-172 -168q-129 100 -258 100q-54 0 -101.5 -23t-47.5 -71q0 -67 186 -135q154 -58 226.5 -147t72.5 -189q0 -330 -477 -330 q-120 0 -216 44.5t-161 123.5z" />
<glyph unicode="t" horiz-adv-x="839" d="M272 848l41 199h158l84 393h276l-83 -393h223l-41 -199h-223l-113 -535q-6 -24 -6 -45q0 -32 17 -46.5t57 -14.5q59 0 139 41l-47 -217q-49 -22 -118 -35.5t-126 -13.5q-109 0 -161 46.5t-52 141.5q0 39 14 111l119 567h-158z" />
<glyph unicode="u" horiz-adv-x="1210" d="M195 262q0 66 16 148l137 637h281l-127 -594q-15 -73 -15 -113q0 -63 32 -97t112 -34q96 0 165 76t97 204l117 558h278l-223 -1047h-279l23 100q-120 -127 -311 -127q-158 0 -230.5 76.5t-72.5 212.5z" />
<glyph unicode="v" horiz-adv-x="1126" d="M285 1047h276l49 -734l373 734h305l-602 -1047h-268z" />
<glyph unicode="w" horiz-adv-x="1581" d="M285 1047h264l14 -715l326 715h233l23 -715l309 715h289l-526 -1047h-252l-17 739l-334 -739h-243z" />
<glyph unicode="x" horiz-adv-x="1167" d="M61 0l478 553l-213 494h278l117 -336l256 336h319l-450 -529l221 -518h-281l-124 350l-277 -350h-324z" />
<glyph unicode="y" horiz-adv-x="1187" d="M106 -387l72 186q53 -16 84 -16q89 0 133 86l60 117l-146 1061h275l59 -781l397 781h310l-777 -1311q-48 -81 -134 -121.5t-179 -40.5q-95 0 -154 39z" />
<glyph unicode="z" horiz-adv-x="970" d="M51 0l37 176l631 651h-449l47 220h822l-37 -177l-629 -649h494l-47 -221h-869z" />
<glyph unicode="{" horiz-adv-x="876" d="M272 610l37 168q92 22 143 82.5t72 159.5l45 203q22 104 58 176.5t81.5 118t114 72t142.5 36.5t180 12l-33 -147q-76 -12 -127.5 -36.5t-84.5 -66.5t-52 -90.5t-35 -123.5l-29 -138q-27 -129 -57 -195t-76 -101.5t-131 -59.5q139 -45 139 -193q0 -44 -28 -182l-39 -186 q-19 -78 -19 -127q0 -66 41.5 -104.5t145.5 -59.5l-33 -147q-215 6 -314.5 67t-99.5 211q0 60 19 147l57 275q8 31 8 61q0 115 -125 168z" />
<glyph unicode="|" horiz-adv-x="516" d="M49 -444l432 2031h230l-432 -2031h-230z" />
<glyph unicode="}" horiz-adv-x="874" d="M14 -319l31 147q77 13 128.5 37.5t85 66t52 90.5t33.5 123l41 205q26 128 56.5 195t77 101.5t132.5 58.5q-139 47 -139 194q0 49 27 182l28 121q19 89 19 125q0 67 -41.5 105t-145.5 59l31 147q215 -5 314.5 -65.5t99.5 -212.5q0 -73 -19 -148l-45 -206q-6 -34 -6 -62 q0 -118 123 -168l-35 -168q-92 -22 -144 -82.5t-73 -158.5l-55 -271q-21 -103 -57 -176t-81.5 -118.5t-114.5 -72t-143 -36.5t-180 -12z" />
<glyph unicode="~" horiz-adv-x="1286" d="M274 625q78 113 163 175t190 62q44 0 97 -22.5t94 -49t89 -49t82 -22.5q48 0 92.5 31.5t110.5 109.5q11 -12 108 -129q-169 -229 -352 -229q-43 0 -94.5 22.5t-91.5 49t-88 49t-86 22.5q-50 0 -87.5 -28.5t-113.5 -118.5z" />
<glyph unicode="&#xa1;" horiz-adv-x="581" d="M78 -410l129 603l137 393h166l-31 -396l-127 -600h-274zM332 930q0 63 44.5 107t108.5 44q63 0 107.5 -44t44.5 -107q0 -62 -44.5 -107t-107.5 -45q-64 0 -108.5 45t-44.5 107z" />
<glyph unicode="&#xa2;" horiz-adv-x="1085" d="M219 528q0 122 34 235.5t98 207t165.5 157t226.5 80.5l50 232h206l-47 -230q101 -18 165 -70t110 -145l-213 -123q-31 60 -81 99t-116 39q-78 0 -142.5 -46.5t-103 -118t-59 -150.5t-20.5 -152q0 -211 180 -211q41 0 80 13t63 27t51.5 40.5t35 35.5t24.5 31l176 -129 q-56 -81 -154.5 -148t-226.5 -75l-51 -238h-207l51 240q-148 25 -221.5 133.5t-73.5 265.5z" />
<glyph unicode="&#xa3;" horiz-adv-x="1275" d="M143 0l232 1085q41 195 174.5 290t335.5 95q309 0 428 -194l-211 -115q-41 48 -89.5 71t-117.5 23q-105 0 -176 -54t-90 -146l-33 -156h377l-47 -215h-375l-92 -426h393q61 0 101 29t40 86q0 68 -53 112l217 146q115 -115 115 -260q0 -72 -30.5 -138.5t-84.5 -118.5 t-137 -83t-180 -31h-697z" />
<glyph unicode="&#xa4;" horiz-adv-x="1488" d="M111 506l26 133h172q6 43 15 92q10 40 12 47h-168l29 133h180q98 258 295 410t461 152q215 0 348.5 -101t173.5 -272l-273 -90q-26 97 -94 158t-184 61q-134 0 -244.5 -85t-177.5 -233h457l-29 -133h-477q-2 -8 -7.5 -27t-7.5 -30q-7 -32 -14 -82h475l-28 -133h-451 q8 -135 76.5 -214t193.5 -79q194 0 338 182l226 -157q-103 -131 -254.5 -201t-337.5 -70q-140 0 -246 42t-169 117t-94 170t-32 210h-190z" />
<glyph unicode="&#xa5;" horiz-adv-x="1488" d="M332 326l28 133h318l27 131l-15 39h-293l29 133h211l-268 678h307l219 -637l491 637h357l-572 -678h195l-29 -133h-278l-72 -84l-18 -86h334l-29 -133h-332l-70 -326h-292l69 326h-317z" />
<glyph unicode="&#xa6;" horiz-adv-x="643" d="M205 0l119 561h233l-119 -561h-233zM391 877l119 563h233l-118 -563h-234z" />
<glyph unicode="&#xa7;" horiz-adv-x="1302" d="M154 -80l165 176q156 -133 334 -133q71 0 129 34.5t58 100.5q0 45 -46.5 85t-154.5 81q-226 84 -319 158t-93 190q0 297 305 404q-53 68 -53 141q0 178 125 278.5t322 100.5q120 0 241.5 -41t210.5 -115l-164 -174q-153 121 -317 121q-37 0 -70.5 -8.5t-60.5 -34 t-27 -63.5q0 -49 42 -84.5t159 -85.5q90 -38 145 -64t108 -58.5t80 -63t43.5 -69t16.5 -85.5q0 -87 -22.5 -155t-66.5 -117t-93.5 -83t-120.5 -67q57 -64 57 -148q0 -185 -125 -286t-325 -101q-291 0 -483 166zM481 674q0 -46 42.5 -81t144.5 -77q98 -40 227 -108 q184 101 184 219q0 27 -14.5 51.5t-33.5 41.5t-51 35t-55 28t-57.5 24.5t-46.5 19.5q-85 38 -151 72q-75 -37 -132 -96.5t-57 -128.5z" />
<glyph unicode="&#xa8;" horiz-adv-x="886" d="M387 1356q0 54 38.5 92.5t92.5 38.5t92.5 -38.5t38.5 -92.5t-38.5 -92.5t-92.5 -38.5t-92.5 38.5t-38.5 92.5zM815 1356q0 54 37.5 92.5t91.5 38.5q55 0 93 -38.5t38 -92.5t-38 -92.5t-93 -38.5q-54 0 -91.5 38.5t-37.5 92.5z" />
<glyph unicode="&#xa9;" horiz-adv-x="1677" d="M258 719q0 207 97.5 376t265.5 264t372 95q206 0 374 -96.5t263.5 -265.5t95.5 -375q-1 -204 -96.5 -371t-263.5 -263.5t-375 -96.5q-199 0 -366.5 93t-267 262t-99.5 378zM354 717q0 -133 48.5 -251.5t133 -203.5t203.5 -134.5t254 -49.5q180 0 326 84t228.5 230 t82.5 325q0 135 -48.5 254.5t-132 205t-202.5 135.5t-254 50q-133 0 -251 -49t-203 -133.5t-135 -205t-50 -257.5zM578 723q0 197 118 327t305 130q231 0 347 -187l-138 -98q-41 56 -89 88.5t-120 32.5q-109 0 -177 -82.5t-68 -208.5q0 -129 69 -211t179 -82q126 0 213 117 l133 -103q-51 -71 -125 -118q-101 -62 -226 -62q-190 0 -305.5 129t-115.5 328z" />
<glyph unicode="&#xaa;" horiz-adv-x="972" d="M291 881q0 55 28 108.5t81 99t140.5 73.5t194.5 28q65 0 142 -12q2 6 10 49q6 21 6 41q0 80 -123 80q-131 0 -219 -91l-121 70q57 60 111 92q108 64 266 64q150 0 222.5 -54.5t72.5 -140.5q0 -31 -4 -45l-92 -436q-2 -4 -2 -10q0 -24 26 -27l-14 -65h-29h-119 q-37 0 -57 20q-18 18 -18 47q0 11 2 19q-118 -103 -273 -103q-110 0 -170.5 56t-60.5 137zM496 907q0 -35 26.5 -57.5t77.5 -22.5q63 0 131 33.5t94 77.5l23 109q-20 10 -25 10q-41 8 -84 8q-112 0 -177.5 -49.5t-65.5 -108.5z" />
<glyph unicode="&#xab;" horiz-adv-x="1142" d="M215 588l438 475l178 -74l-391 -420l228 -428h-219zM649 588l438 475l179 -74l-392 -420l226 -428h-217z" />
<glyph unicode="&#xac;" horiz-adv-x="1343" d="M197 571l55 254h1149l-123 -579h-258l67 325h-890z" />
<glyph unicode="&#xad;" horiz-adv-x="770" d="M223 571l56 254h563l-54 -254h-565z" />
<glyph unicode="&#xae;" horiz-adv-x="1679" d="M258 719q0 157 57.5 294t156 233.5t234 152t285.5 55.5q208 0 377 -97t264 -265.5t94 -372.5q0 -206 -96.5 -374t-265 -263.5t-373.5 -95.5q-199 0 -366 92.5t-267 261.5t-100 379zM354 719q0 -137 49.5 -256.5t135 -203.5t203 -132.5t249.5 -48.5q134 0 252.5 48.5 t203.5 133t134.5 204t50.5 255.5q0 136 -49 255t-133.5 204.5t-203 134.5t-253.5 49q-134 0 -252.5 -49t-203 -134.5t-134 -205t-49.5 -254.5zM690 297v866h326q131 0 205 -35q125 -56 125 -208q0 -89 -49.5 -145.5t-127.5 -80.5q37 -18 72 -95t66.5 -174t48.5 -128h-197 q-12 24 -32 90.5t-37.5 121t-53.5 99.5t-82 45h-92v-356h-172zM862 795h148q34 0 60.5 4.5t51.5 16.5t38.5 36t13.5 59q0 50 -31 78q-37 37 -146 37h-135v-231z" />
<glyph unicode="&#xaf;" horiz-adv-x="901" d="M406 1237l36 174h617l-37 -174h-616z" />
<glyph unicode="&#xb0;" horiz-adv-x="946" d="M332 1044q0 118 58.5 221.5t159.5 165.5t218 62q137 0 230.5 -85t93.5 -212q0 -119 -60 -223t-163 -166t-222 -62q-134 0 -224.5 85.5t-90.5 213.5zM524 1073q0 -65 40.5 -104t107.5 -39q93 0 159 70.5t66 164.5q0 65 -39 104.5t-106 39.5q-93 0 -160.5 -71.5 t-67.5 -164.5z" />
<glyph unicode="&#xb2;" horiz-adv-x="1030" d="M209 391l10 51q16 72 48.5 133.5t72.5 107t95 89t107 76.5t117 72q21 12 31 18q4 3 27.5 16.5t34 20t33.5 22t35 25.5t29 26.5t26 30.5t15.5 31.5t6.5 34.5q0 37 -27.5 58.5t-76.5 21.5q-113 0 -205 -127l-193 131q157 231 422 231q145 0 241.5 -71.5t96.5 -208.5 q0 -74 -24.5 -138t-71 -115.5t-97 -90.5t-118.5 -78q-44 -27 -127 -74t-96 -55h426l-50 -238h-788z" />
<glyph unicode="&#xb3;" horiz-adv-x="1032" d="M227 621l213 104q21 -65 62 -92t110 -27q78 0 131.5 34.5t53.5 104.5q0 22 -12.5 38t-33 23t-39.5 10t-40 3h-154l47 223h127q67 0 119.5 29t52.5 90q0 74 -104 74q-53 0 -110 -37t-85 -84l-203 121q74 111 182 169t242 58q64 0 123.5 -16t108.5 -47t78.5 -83.5 t29.5 -119.5q0 -83 -37.5 -152.5t-107.5 -111.5q86 -63 86 -178q0 -94 -41.5 -168t-111 -118.5t-152.5 -67.5t-172 -23q-143 0 -237 63t-126 181z" />
<glyph unicode="&#xb4;" horiz-adv-x="735" d="M356 1180l252 305h344l-391 -305h-205z" />
<glyph unicode="&#xb6;" horiz-adv-x="1308" d="M328 920q0 38 10 90q37 176 190 303t332 127h610l-32 -158h-37l-361 -1696h-180l361 1696h-217l-361 -1696h-180l211 992q-6 0 -18 1t-17 1q-139 12 -225 107.5t-86 232.5z" />
<glyph unicode="&#xb7;" horiz-adv-x="544" d="M272 715q0 63 45 107t109 44q63 0 107.5 -44t44.5 -107t-44.5 -107.5t-107.5 -44.5q-64 0 -109 44.5t-45 107.5z" />
<glyph unicode="&#xb8;" horiz-adv-x="716" d="M63 -379l37 82q66 -29 121 -29q45 0 85 19.5t40 60.5q0 43 -55 43q-36 0 -70 -18l-61 20l141 221h105l-87 -135q43 15 80 15q57 0 92 -30t35 -81q0 -68 -44 -117.5t-105 -70.5t-129 -21q-92 0 -185 41z" />
<glyph unicode="&#xb9;" horiz-adv-x="727" d="M330 1087l47 216q43 1 67 2.5t54.5 9t48.5 22t35.5 40t29.5 63.5h250l-221 -1049h-281l150 703q-57 -7 -150 -7h-2h-2h-2h-2h-22z" />
<glyph unicode="&#xba;" horiz-adv-x="1011" d="M317 993q0 211 138.5 348.5t357.5 137.5q157 0 246.5 -85.5t89.5 -226.5q0 -214 -131.5 -350.5t-358.5 -136.5q-159 0 -250.5 86.5t-91.5 226.5zM532 991q0 -76 38 -118t110 -42q71 0 131 53t91.5 129.5t31.5 153.5q0 160 -148 160q-75 0 -135 -53.5t-89.5 -129 t-29.5 -153.5z" />
<glyph unicode="&#xbb;" horiz-adv-x="1142" d="M123 195l391 417l-176 332l-51 96h217l235 -446l-438 -473zM555 195l391 417l-174 332l-51 96h217l236 -446l-441 -473z" />
<glyph unicode="&#xbc;" horiz-adv-x="2101" d="M330 1087l47 216q43 1 68 3t54.5 9.5t47.5 22t35.5 40t29.5 62.5h250l-221 -1049h-281l150 703q-57 -7 -148 -7h-2h-2h-2h-2h-2h-22zM498 -10l1089 1472l201 -10l-1092 -1470zM1188 211l47 213l520 537l84 88h287l-131 -613h108l-51 -225h-104l-45 -211h-277l43 211h-481 zM1532 436h186l54 246z" />
<glyph unicode="&#xbd;" horiz-adv-x="2195" d="M330 1087l47 216q43 1 67 2.5t54.5 9t48.5 22t35.5 40t29.5 63.5h250l-221 -1049h-281l150 703q-57 -7 -150 -7h-2h-2h-2h-2h-22zM498 -10l1089 1472l201 -10l-1092 -1470zM1296 0l13 51q20 89 60 159.5t111.5 131.5t119.5 94t150 94q6 4 9.5 6t9 5t9.5 6t32 19t40 24 l37.5 25t38.5 30.5t29 32t23 37.5t7 39q0 37 -28 58.5t-75 21.5q-115 0 -207 -127l-192 131q162 231 424 231q143 0 239.5 -73t96.5 -210q0 -73 -24.5 -136.5t-71 -115t-96.5 -90.5t-118 -79q-14 -8 -97.5 -55t-127.5 -72h426l-49 -238h-789z" />
<glyph unicode="&#xbe;" horiz-adv-x="2347" d="M227 621l213 104q21 -65 62 -92t110 -27q78 0 131.5 34.5t53.5 104.5q0 22 -12.5 38t-33 23t-39.5 10t-40 3h-154l47 223h127q67 0 119.5 29t52.5 90q0 74 -104 74q-53 0 -110 -37t-85 -84l-203 121q74 111 182 169t242 58q64 0 123.5 -16t108.5 -47t78.5 -83.5 t29.5 -119.5q0 -83 -37.5 -152.5t-107.5 -111.5q86 -63 86 -178q0 -94 -41.5 -168t-111 -118.5t-152.5 -67.5t-172 -23q-143 0 -237 63t-126 181zM743 -10l1090 1472l201 -10l-1090 -1470zM1436 211l45 213l520 537l86 88h285l-131 -613h108l-49 -225h-107l-45 -211h-276 l45 211h-481zM1778 436h186l53 246z" />
<glyph unicode="&#xbf;" horiz-adv-x="1183" d="M63 -92q0 63 16 117t41 94.5t66 80t81.5 68t97.5 62.5q14 8 40.5 23.5t39 22.5t33.5 20.5t31.5 23t27 24t25.5 28.5t20 32.5t19 40t15 47.5h252q-27 -109 -57.5 -172t-83.5 -114t-152 -111l-47.5 -28.5t-57 -35t-51.5 -37.5t-49 -45.5t-30.5 -49.5t-13.5 -58 q0 -68 52.5 -115t143.5 -47q99 0 199.5 66.5t148.5 148.5l201 -117q-207 -313 -569 -313q-197 0 -318 90t-121 254zM649 930q0 63 45.5 107t108.5 44t108 -44t45 -107q0 -62 -45 -107t-108 -45t-108.5 45t-45.5 107z" />
<glyph unicode="&#xc0;" horiz-adv-x="1492" d="M61 0l854 1440h293l224 -1440h-293l-35 313h-541l-172 -313h-330zM670 1864h299l121 -305h-156zM680 528h397l-69 602z" />
<glyph unicode="&#xc1;" horiz-adv-x="1533" d="M61 0l854 1440h293l224 -1440h-293l-35 313h-541l-172 -313h-330zM680 528h397l-69 602zM938 1565l252 305h344l-391 -305h-205z" />
<glyph unicode="&#xc2;" horiz-adv-x="1490" d="M61 0l854 1440h293l224 -1440h-293l-35 313h-541l-172 -313h-330zM680 528h397l-69 602zM713 1565l315 305h209l186 -305h-176l-131 151l-192 -151h-211z" />
<glyph unicode="&#xc3;" horiz-adv-x="1474" d="M61 0l854 1440h293l224 -1440h-293l-35 313h-541l-172 -313h-330zM680 528h397l-69 602zM696 1608q30 109 103 185.5t172 76.5q57 0 112.5 -26t97.5 -51.5t68 -25.5q61 0 99 97l149 -4q-35 -116 -106 -190.5t-168 -74.5q-55 0 -110 26.5t-99 52.5t-72 26q-32 0 -53.5 -24 t-40.5 -72z" />
<glyph unicode="&#xc4;" horiz-adv-x="1470" d="M61 0l428 719l426 721h293l224 -1440h-293l-35 313h-541l-172 -313h-330zM680 528h397l-22 201l-25 201l-22 200zM733 1696q0 54 38.5 91.5t92.5 37.5t92.5 -37.5t38.5 -91.5t-38.5 -92.5t-92.5 -38.5t-92.5 38.5t-38.5 92.5zM1161 1696q0 54 38.5 91.5t92.5 37.5 t91.5 -37.5t37.5 -91.5t-37.5 -92.5t-91.5 -38.5t-92.5 38.5t-38.5 92.5z" />
<glyph unicode="&#xc5;" horiz-adv-x="1492" d="M61 0l854 1440h293l224 -1440h-293l-35 313h-541l-172 -313h-330zM680 528h397l-69 602zM877 1729q0 95 67 161t164 66t163 -66t66 -161t-66.5 -161.5t-162.5 -66.5q-97 0 -164 66.5t-67 161.5zM1004 1729q0 -46 28.5 -76.5t73.5 -30.5t74.5 30.5t29.5 76.5t-29 76 t-75 30q-45 0 -73.5 -30t-28.5 -76z" />
<glyph unicode="&#xc6;" horiz-adv-x="2252" d="M61 0l1270 1440h1116l-49 -232h-719l-73 -342h546l-49 -229h-544l-89 -408h760l-49 -229h-1053l62 287h-533l-237 -287h-359zM842 508h395l137 645z" />
<glyph unicode="&#xc7;" horiz-adv-x="1433" d="M231 514q0 143 35 282t105.5 261t168.5 215t233.5 147t291.5 54q214 0 347 -101t173 -272l-270 -90q-26 96 -95 157.5t-186 61.5q-96 0 -179.5 -43.5t-142 -114.5t-100.5 -161t-62 -183.5t-20 -181.5q0 -152 68.5 -242t202.5 -90q196 0 340 182l225 -157 q-206 -260 -561 -269q-8 -2 -23 -2l-4 -6l-45 -74q35 15 80 15q59 0 93 -29t34 -80q0 -68 -44 -117.5t-105 -70.5t-129 -21q-92 0 -185 41l37 82q59 -29 121 -29q45 0 85 19.5t40 60.5q0 43 -55 43q-32 0 -68 -18l-64 20l109 170q-117 13 -205.5 60t-141.5 120.5t-78.5 164 t-25.5 196.5z" />
<glyph unicode="&#xc8;" horiz-adv-x="1257" d="M143 0l306 1440h1013l-49 -232h-719l-73 -342h544l-47 -229h-547l-86 -408h760l-49 -229h-1053zM754 1864h299l121 -305h-158z" />
<glyph unicode="&#xc9;" horiz-adv-x="1253" d="M143 0l306 1440h1013l-49 -232h-719l-73 -342h544l-47 -229h-547l-86 -408h760l-49 -229h-1053zM879 1565l249 305h345l-392 -305h-202z" />
<glyph unicode="&#xca;" horiz-adv-x="1257" d="M143 0l306 1440h1013l-49 -232h-719l-73 -342h544l-47 -229h-547l-86 -408h760l-49 -229h-1053zM653 1565l314 305h209l188 -305h-176l-133 151l-193 -151h-209z" />
<glyph unicode="&#xcb;" horiz-adv-x="1257" d="M143 0l306 1440h1013l-49 -232h-719l-73 -342h544l-47 -229h-547l-86 -408h760l-49 -229h-1053zM694 1696q0 54 37.5 91.5t91.5 37.5q55 0 93 -37.5t38 -91.5t-38 -92.5t-93 -38.5q-54 0 -91.5 38.5t-37.5 92.5zM1120 1696q0 54 38.5 91.5t92.5 37.5t92.5 -37.5 t38.5 -91.5t-38.5 -92.5t-92.5 -38.5t-92.5 38.5t-38.5 92.5z" />
<glyph unicode="&#xcc;" horiz-adv-x="579" d="M147 0l306 1440h292l-305 -1440h-293zM326 1864h299l120 -305h-157z" />
<glyph unicode="&#xcd;" horiz-adv-x="579" d="M147 0l306 1440h292l-305 -1440h-293zM449 1565l251 305h344l-393 -305h-202z" />
<glyph unicode="&#xce;" horiz-adv-x="579" d="M147 0l306 1440h292l-305 -1440h-293zM248 1565l313 305h209l188 -305h-176l-133 151l-192 -151h-209z" />
<glyph unicode="&#xcf;" horiz-adv-x="579" d="M147 0l306 1440h292l-305 -1440h-293zM291 1696q0 54 37.5 91.5t91.5 37.5q55 0 93 -37.5t38 -91.5t-38 -92.5t-93 -38.5q-54 0 -91.5 38.5t-37.5 92.5zM717 1696q0 54 38.5 91.5t92.5 37.5t92.5 -37.5t38.5 -91.5t-38.5 -92.5t-92.5 -38.5t-92.5 38.5t-38.5 92.5z" />
<glyph unicode="&#xd0;" horiz-adv-x="1501" d="M168 649l45 207h141l125 584h482q130 0 232.5 -27t172 -75t115 -116t66 -147t20.5 -172q0 -204 -58 -370.5t-169 -285t-278.5 -183t-379.5 -64.5h-510l139 649h-143zM520 236h187q114 0 207.5 36.5t157 99t107 148t63.5 181.5t20 202q0 151 -82 225t-258 74h-197 l-74 -346h299l-45 -207h-297z" />
<glyph unicode="&#xd1;" horiz-adv-x="1519" d="M143 0l306 1440h294l424 -1043l224 1043h290l-305 -1440h-293l-426 1042l-221 -1042h-293zM696 1608q30 109 103 185.5t172 76.5q58 0 113.5 -26t97 -51.5t67.5 -25.5q65 0 99 97l151 -4q-37 -117 -107 -191t-167 -74q-55 0 -111 26.5t-100 52.5t-72 26q-32 0 -53.5 -24 t-40.5 -72z" />
<glyph unicode="&#xd2;" d="M231 518q0 198 59.5 372t167.5 303.5t270 204.5t357 75q108 0 196 -27.5t149 -77t103 -118t61.5 -149.5t19.5 -173q0 -154 -34.5 -295t-105 -262.5t-171 -211.5t-240 -141t-303.5 -51q-135 0 -238.5 43t-166 119.5t-93.5 174t-31 214.5zM532 547q0 -129 50.5 -214.5 t150.5 -109.5q42 -10 82 -10q78 0 148.5 31t123.5 83t96.5 120t71 144t42 152.5t14.5 147.5q0 81 -19.5 146.5t-64.5 114.5t-113 67q-31 10 -84 10q-95 0 -177.5 -43.5t-140 -115t-99 -161.5t-61.5 -182.5t-20 -179.5zM829 1864h299l121 -305h-155z" />
<glyph unicode="&#xd3;" d="M231 518q0 198 59.5 372t167.5 303.5t270 204.5t357 75q108 0 196 -27.5t149 -77t103 -118t61.5 -149.5t19.5 -173q0 -154 -34.5 -295t-105 -262.5t-171 -211.5t-240 -141t-303.5 -51q-135 0 -238.5 43t-166 119.5t-93.5 174t-31 214.5zM532 547q0 -129 50.5 -214.5 t150.5 -109.5q42 -10 82 -10q78 0 148.5 31t123.5 83t96.5 120t71 144t42 152.5t14.5 147.5q0 81 -19.5 146.5t-64.5 114.5t-113 67q-31 10 -84 10q-95 0 -177.5 -43.5t-140 -115t-99 -161.5t-61.5 -182.5t-20 -179.5zM954 1565l252 305h344l-391 -305h-205z" />
<glyph unicode="&#xd4;" d="M231 518q0 324 151.5 570t416.5 339q136 46 286 46q108 0 196 -27.5t149 -77t103 -118t61.5 -149.5t19.5 -173q0 -116 -23 -244q-58 -290 -241 -479q-231 -238 -590 -238q-135 0 -238.5 43t-166 119.5t-93.5 174t-31 214.5zM532 547q0 -129 50.5 -214.5t150.5 -109.5 q42 -10 82 -10q78 0 148.5 31t123.5 83t96.5 120t71 144t42 152.5t14.5 147.5q0 81 -19.5 146.5t-64.5 114.5t-113 67q-31 10 -84 10q-95 0 -177.5 -43.5t-140 -115t-99 -161.5t-61.5 -182.5t-20 -179.5zM729 1565l315 305h209l189 -305h-176l-133 151l-193 -151h-211z" />
<glyph unicode="&#xd5;" d="M231 518q0 198 59.5 372t167.5 303.5t270 204.5t357 75q266 0 404 -160q78 -89 110 -230q15 -73 15 -155q0 -154 -34.5 -295t-105 -262.5t-171 -211.5t-240 -141t-303.5 -51q-265 0 -406 164q-78 93 -106 227q-17 87 -17 160zM532 547q0 -129 50.5 -214.5t150.5 -109.5 q42 -10 82 -10q78 0 148.5 31t123.5 83t96.5 120t71 144t42 152.5t14.5 147.5q0 81 -19.5 146.5t-64.5 114.5t-113 67q-31 10 -84 10q-95 0 -177.5 -43.5t-140 -115t-99 -161.5t-61.5 -182.5t-20 -179.5zM733 1608q30 109 103 185.5t172 76.5q57 0 112.5 -26t97.5 -51.5 t68 -25.5q60 0 98 97l150 -4q-35 -116 -105.5 -190.5t-166.5 -74.5q-55 0 -111 26.5t-100 52.5t-72 26q-32 0 -53.5 -24t-40.5 -72z" />
<glyph unicode="&#xd6;" d="M231 518q0 198 59.5 372t167.5 303.5t270 204.5t357 75q108 0 196 -27.5t149 -77t103 -118t61.5 -149.5t19.5 -173q0 -154 -34.5 -295t-105 -262.5t-171 -211.5t-240 -141t-303.5 -51q-135 0 -238.5 43t-166 119.5t-93.5 174t-31 214.5zM532 547q0 -114 39.5 -194.5 t118.5 -114.5q55 -25 125 -25q78 0 148.5 31t123.5 83t96.5 120t71 144t42 152.5t14.5 147.5q0 111 -37.5 194t-116.5 119q-55 25 -127 25q-95 0 -177.5 -43.5t-140 -115t-99 -161.5t-61.5 -182.5t-20 -179.5zM793 1696q0 54 37.5 91.5t91.5 37.5t92.5 -37.5t38.5 -91.5 q0 -55 -38.5 -93t-92.5 -38t-91.5 38.5t-37.5 92.5zM1219 1696q0 54 38.5 91.5t92.5 37.5t91.5 -37.5t37.5 -91.5t-37.5 -92.5t-91.5 -38.5t-92.5 38.5t-38.5 92.5z" />
<glyph unicode="&#xd7;" horiz-adv-x="1294" d="M182 211l443 362l-287 365l172 135l285 -362l454 372l137 -168l-456 -374l284 -363l-172 -137l-282 360l-438 -358z" />
<glyph unicode="&#xd8;" horiz-adv-x="1560" d="M209 -39l151 184q-112 141 -112 373q0 144 36 283t109 260.5t173.5 213.5t239 145t296.5 53q178 0 301 -74l94 112l162 -36l-143 -175q114 -140 114 -374q0 -144 -35 -282.5t-106.5 -261t-171.5 -215t-239.5 -146.5t-301.5 -54q-181 0 -305 78l-102 -121zM549 547 q0 -88 20 -152l650 781q-65 53 -172 53q-76 0 -146 -31t-123.5 -83t-97.5 -120.5t-72 -145t-43.5 -154t-15.5 -148.5zM655 268q71 -55 176 -55q110 0 206.5 66.5t158 168.5t96.5 219t35 224q0 93 -22 158z" />
<glyph unicode="&#xd9;" horiz-adv-x="1400" d="M219 397q0 100 29 242l170 801h293l-183 -858q-18 -95 -18 -146q0 -106 55.5 -164.5t182.5 -58.5q86 0 150.5 26.5t106.5 78t68 112t43 141.5l184 869h293l-163 -774q-27 -128 -67 -230.5t-101 -191.5t-140.5 -148.5t-188 -93t-241.5 -33.5q-249 0 -361 111.5t-112 316.5 zM688 1864h299l121 -305h-158z" />
<glyph unicode="&#xda;" horiz-adv-x="1400" d="M219 397q0 100 29 242l170 801h293l-183 -858q-18 -95 -18 -146q0 -106 55.5 -164.5t182.5 -58.5q86 0 150.5 26.5t106.5 78t68 112t43 141.5l184 869h293l-163 -774q-27 -128 -67 -230.5t-101 -191.5t-140.5 -148.5t-188 -93t-241.5 -33.5q-249 0 -361 111.5t-112 316.5 zM895 1565l250 305h344l-391 -305h-203z" />
<glyph unicode="&#xdb;" horiz-adv-x="1400" d="M219 397q0 100 29 242l170 801h293l-183 -858q-18 -95 -18 -146q0 -106 55.5 -164.5t182.5 -58.5q86 0 150.5 26.5t106.5 78t68 112t43 141.5l184 869h293l-163 -774q-27 -128 -67 -230.5t-101 -191.5t-140.5 -148.5t-188 -93t-241.5 -33.5q-249 0 -361 111.5t-112 316.5 zM670 1565l313 305h209l188 -305h-176l-133 151l-192 -151h-209z" />
<glyph unicode="&#xdc;" horiz-adv-x="1400" d="M219 397q0 100 29 242l170 801h293l-183 -858q-18 -95 -18 -146q0 -106 55.5 -164.5t182.5 -58.5q86 0 150.5 26.5t106.5 78t68 112t43 141.5l184 869h293l-163 -774q-27 -128 -67 -230.5t-101 -191.5t-140.5 -148.5t-188 -93t-241.5 -33.5q-249 0 -361 111.5t-112 316.5 zM670 1696q0 54 38 91.5t93 37.5q54 0 91.5 -37.5t37.5 -91.5t-37.5 -92.5t-91.5 -38.5q-55 0 -93 38.5t-38 92.5zM1096 1696q0 54 38.5 91.5t92.5 37.5t92.5 -37.5t38.5 -91.5t-38.5 -92.5t-92.5 -38.5t-92.5 38.5t-38.5 92.5z" />
<glyph unicode="&#xdd;" horiz-adv-x="1435" d="M336 1440h307l219 -637l492 637h356l-756 -895l-114 -545h-293l125 590zM879 1565l251 305h345l-392 -305h-204z" />
<glyph unicode="&#xde;" horiz-adv-x="1374" d="M162 0l305 1440h293l-47 -226h340q220 0 335 -100.5t115 -263.5q0 -96 -40.5 -190t-115.5 -172t-196 -126.5t-268 -48.5h-363l-65 -313h-293zM567 537h305q157 0 244.5 80.5t87.5 203.5q0 74 -53 123t-150 49h-335z" />
<glyph unicode="&#xdf;" horiz-adv-x="1239" d="M100 -209l250 1178q57 268 187.5 383.5t373.5 115.5q178 0 274.5 -89.5t96.5 -219.5q0 -103 -60 -196.5t-169 -147.5q93 -25 143.5 -108t50.5 -193q0 -75 -22 -150t-69 -145t-112.5 -124.5t-159.5 -87t-204 -32.5q-79 0 -139 29l47 223q42 -26 96 -26q128 0 201 88 t73 219q0 83 -62 131t-204 63l43 199q116 0 192.5 60t76.5 174q0 122 -134 122q-45 0 -80.5 -16t-58.5 -40t-41 -62t-28 -72t-19 -80l-242 -1134z" />
<glyph unicode="&#xe0;" horiz-adv-x="1204" d="M160 242q0 76 36.5 150.5t105 138t180 102.5t247.5 39q83 0 174 -15l12 62q9 30 9 57q0 101 -146 101q-158 0 -278 -123l-166 106q101 117 217.5 165t275.5 48q187 0 280 -74t93 -192q0 -37 -8 -70l-125 -594q-2 -4 -2 -12q0 -33 39 -33h31l-23 -98h-225 q-46 0 -73.5 26.5t-27.5 67.5v10q-144 -127 -333 -127q-140 0 -216.5 75.5t-76.5 189.5zM428 279q0 -43 32 -72t93 -29q78 0 162 44.5t116 103.5l31 145q-7 5 -24 8q-45 13 -107 13q-138 0 -220.5 -68t-82.5 -145zM528 1487h299l121 -305h-157z" />
<glyph unicode="&#xe1;" horiz-adv-x="1204" d="M160 242q0 76 36.5 150.5t105 138t180 102.5t247.5 39q83 0 174 -15l12 62q9 30 9 57q0 101 -146 101q-158 0 -278 -123l-166 106q101 117 217.5 165t275.5 48q187 0 280 -74t93 -192q0 -37 -8 -70l-125 -594q-2 -4 -2 -12q0 -33 39 -33h31l-23 -98h-225 q-46 0 -73.5 26.5t-27.5 67.5v10q-144 -127 -333 -127q-140 0 -216.5 75.5t-76.5 189.5zM428 279q0 -43 32 -72t93 -29q78 0 162 44.5t116 103.5l31 145q-7 5 -24 8q-45 13 -107 13q-138 0 -220.5 -68t-82.5 -145zM721 1180l252 305h344l-391 -305h-205z" />
<glyph unicode="&#xe2;" horiz-adv-x="1196" d="M160 242q0 76 36.5 150.5t105 138t180 102.5t247.5 39q83 0 174 -15l12 62q9 30 9 57q0 101 -146 101q-158 0 -278 -123l-166 106q101 117 217.5 165t275.5 48q187 0 280 -74t93 -192q0 -37 -8 -70l-125 -594q-2 -4 -2 -12q0 -33 39 -33h31l-23 -98h-225 q-46 0 -73.5 26.5t-27.5 67.5v10q-144 -127 -333 -127q-140 0 -216.5 75.5t-76.5 189.5zM428 279q0 -43 32 -72t93 -29q78 0 162 44.5t116 103.5l31 145q-7 5 -24 8q-45 13 -107 13q-138 0 -220.5 -68t-82.5 -145zM498 1194l315 305h209l186 -305h-176l-131 154l-192 -154 h-211z" />
<glyph unicode="&#xe3;" horiz-adv-x="1177" d="M160 242q0 76 36.5 150.5t105 138t180 102.5t247.5 39q83 0 174 -15l12 62q9 30 9 57q0 101 -146 101q-158 0 -278 -123l-166 106q101 117 217.5 165t275.5 48q187 0 280 -74t93 -192q0 -37 -8 -70l-125 -594q-2 -4 -2 -12q0 -33 39 -33h31l-23 -98h-225 q-46 0 -73.5 26.5t-27.5 67.5v10q-144 -127 -333 -127q-140 0 -216.5 75.5t-76.5 189.5zM428 279q0 -43 32 -72t93 -29q78 0 162 44.5t116 103.5l31 145q-7 5 -24 8q-45 13 -107 13q-138 0 -220.5 -68t-82.5 -145zM463 1214q31 111 102.5 188t171.5 77q56 0 111.5 -26.5 t98.5 -52.5t67 -26q64 0 98 99l152 -7q-35 -114 -106.5 -189t-168.5 -75q-42 0 -86.5 16.5t-75 36t-64 36t-56.5 16.5q-32 0 -54 -24.5t-41 -72.5z" />
<glyph unicode="&#xe4;" horiz-adv-x="1220" d="M160 242q0 76 36.5 150.5t105 138t180 102.5t247.5 39q83 0 174 -15l12 62q9 30 9 57q0 101 -146 101q-158 0 -278 -123l-166 106q101 117 217.5 165t275.5 48q187 0 280 -74t93 -192q0 -37 -8 -70l-125 -594q-2 -4 -2 -12q0 -33 39 -33h31l-23 -98h-225 q-46 0 -73.5 26.5t-27.5 67.5v10q-144 -127 -333 -127q-140 0 -216.5 75.5t-76.5 189.5zM428 279q0 -43 32 -72t93 -29q78 0 162 44.5t116 103.5l31 145q-7 5 -24 8q-45 13 -107 13q-138 0 -220.5 -68t-82.5 -145zM543 1356q0 54 38.5 92.5t92.5 38.5t92.5 -38.5t38.5 -92.5 t-38.5 -92.5t-92.5 -38.5t-92.5 38.5t-38.5 92.5zM971 1356q0 54 37.5 92.5t91.5 38.5q55 0 93 -38.5t38 -92.5t-38 -92.5t-93 -38.5q-54 0 -91.5 38.5t-37.5 92.5z" />
<glyph unicode="&#xe5;" horiz-adv-x="1204" d="M160 242q0 76 36.5 150.5t105 138t180 102.5t247.5 39q83 0 174 -15l12 62q9 30 9 57q0 101 -146 101q-158 0 -278 -123l-166 106q101 117 217.5 165t275.5 48q187 0 280 -74t93 -192q0 -37 -8 -70l-125 -594q-2 -4 -2 -12q0 -33 39 -33h31l-23 -98h-225 q-46 0 -73.5 26.5t-27.5 67.5v10q-144 -127 -333 -127q-140 0 -216.5 75.5t-76.5 189.5zM428 279q0 -43 32 -72t93 -29q78 0 162 44.5t116 103.5l31 145q-7 5 -24 8q-45 13 -107 13q-138 0 -220.5 -68t-82.5 -145zM659 1419q0 95 66.5 161.5t163.5 66.5t163 -66.5t66 -161.5 q0 -97 -66 -163t-163 -66t-163.5 66t-66.5 163zM784 1419q0 -47 29.5 -77.5t75.5 -30.5q45 0 73.5 30t28.5 78q0 46 -28.5 76.5t-73.5 30.5q-46 0 -75.5 -30.5t-29.5 -76.5z" />
<glyph unicode="&#xe6;" horiz-adv-x="1851" d="M160 242q0 76 36.5 150.5t105 138t180.5 102.5t249 39q83 0 174 -15l15 62q6 30 6 57q0 101 -146 101q-158 0 -278 -123l-160 100q103 118 217 168.5t270 50.5q224 0 316 -106q153 108 344 108q186 0 286.5 -101.5t100.5 -291.5q0 -127 -35 -223h-702q-6 -37 -6 -72 q0 -91 45 -145t141 -54q78 0 148.5 30t146.5 99l158 -143q-206 -203 -498 -203q-120 0 -209 45.5t-141 128.5q-97 -93 -201.5 -130.5t-269.5 -37.5q-140 0 -216.5 75.5t-76.5 189.5zM430 279q0 -43 32 -72t93 -29q97 0 176 46.5t129 140.5v26q0 51 4 80q-3 1 -10 4t-10 4 q-46 13 -109 13q-139 0 -222 -68t-83 -145zM1180 639h434q4 28 4 45q0 184 -170 184q-94 0 -163 -61.5t-105 -167.5z" />
<glyph unicode="&#xe7;" horiz-adv-x="1105" d="M197 395q0 133 45 256t124 217t197.5 150.5t255.5 56.5q147 0 243.5 -64t141.5 -165l-217 -127q-58 137 -186 137q-75 0 -138.5 -45t-103.5 -114.5t-62 -148t-22 -149.5q0 -94 39.5 -150t124.5 -56q75 0 134.5 39.5t121.5 119.5l184 -137q-77 -109 -190 -174t-248 -68 l-53 -86q35 15 80 15q59 0 93 -29t34 -80q0 -53 -25.5 -94.5t-66.5 -65.5t-88.5 -36.5t-96.5 -12.5q-93 0 -186 41l39 82q57 -29 118 -29q46 0 85.5 19.5t39.5 60.5q0 43 -55 43q-37 0 -67 -18l-64 20l113 177q-159 23 -251.5 134t-92.5 281z" />
<glyph unicode="&#xe8;" horiz-adv-x="1173" d="M197 391q0 132 43.5 255t121 218.5t194.5 153t255 57.5q196 0 296.5 -107.5t100.5 -285.5q0 -130 -34 -223h-699q-6 -37 -6 -72q0 -91 44.5 -145t139.5 -54q78 0 148.5 30t146.5 99l156 -143q-206 -203 -496 -203q-192 0 -301.5 115t-109.5 305zM504 1487h299l121 -305 h-158zM516 639h432q2 14 2 45q0 184 -168 184q-85 0 -158.5 -63t-107.5 -166z" />
<glyph unicode="&#xe9;" horiz-adv-x="1173" d="M197 391q0 132 43.5 255t121 218.5t194.5 153t255 57.5q196 0 296.5 -107.5t100.5 -285.5q0 -130 -34 -223h-699q-6 -37 -6 -72q0 -91 44.5 -145t139.5 -54q78 0 148.5 30t146.5 99l156 -143q-206 -203 -496 -203q-192 0 -301.5 115t-109.5 305zM516 639h432q2 14 2 45 q0 184 -168 184q-85 0 -158.5 -63t-107.5 -166zM698 1180l250 305h346l-393 -305h-203z" />
<glyph unicode="&#xea;" horiz-adv-x="1173" d="M197 391q0 132 43.5 255t121 218.5t194.5 153t255 57.5q196 0 296.5 -107.5t100.5 -285.5q0 -130 -34 -223h-699q-6 -37 -6 -72q0 -91 44.5 -145t139.5 -54q78 0 148.5 30t146.5 99l156 -143q-206 -203 -496 -203q-192 0 -301.5 115t-109.5 305zM475 1194l313 305h209 l189 -305h-176l-133 154l-193 -154h-209zM516 639h432q2 14 2 45q0 184 -168 184q-85 0 -158.5 -63t-107.5 -166z" />
<glyph unicode="&#xeb;" horiz-adv-x="1173" d="M197 391q0 132 43.5 255t121 218.5t194.5 153t255 57.5q196 0 296.5 -107.5t100.5 -285.5q0 -130 -34 -223h-699q-6 -37 -6 -72q0 -91 44.5 -145t139.5 -54q78 0 148.5 30t146.5 99l156 -143q-206 -203 -496 -203q-192 0 -301.5 115t-109.5 305zM516 639h432q2 14 2 45 q0 184 -168 184q-85 0 -158.5 -63t-107.5 -166zM518 1356q0 54 38.5 92.5t92.5 38.5t92.5 -38.5t38.5 -92.5t-38.5 -92.5t-92.5 -38.5t-92.5 38.5t-38.5 92.5zM946 1356q0 54 38 92.5t93 38.5q54 0 91.5 -38.5t37.5 -92.5t-37.5 -92.5t-91.5 -38.5q-55 0 -93 38.5t-38 92.5z " />
<glyph unicode="&#xec;" horiz-adv-x="589" d="M123 0l223 1047h281l-221 -1047h-283zM225 1487h299l121 -305h-158z" />
<glyph unicode="&#xed;" horiz-adv-x="589" d="M137 0l223 1047h281l-223 -1047h-281zM362 1180l252 305h344l-393 -305h-203z" />
<glyph unicode="&#xee;" horiz-adv-x="589" d="M123 0l223 1047h281l-221 -1047h-283zM129 1194l313 305h209l189 -305h-176l-134 154l-192 -154h-209z" />
<glyph unicode="&#xef;" horiz-adv-x="589" d="M123 0l223 1047h281l-221 -1047h-283zM166 1356q0 54 38.5 92.5t92.5 38.5t91.5 -38.5t37.5 -92.5t-37.5 -92.5t-91.5 -38.5t-92.5 38.5t-38.5 92.5zM594 1356q0 54 37.5 92.5t91.5 38.5t92.5 -38.5t38.5 -92.5t-38.5 -92.5t-92.5 -38.5t-91.5 38.5t-37.5 92.5z" />
<glyph unicode="&#xf0;" horiz-adv-x="1265" d="M213 389q0 164 75 306.5t211.5 230.5t301.5 88q175 0 260 -101q-27 139 -111 232l-196 -92l-74 102l162 74q-63 37 -152 57l98 174q159 -38 271 -129l170 80l71 -102l-151 -72q71 -93 105 -221.5t34 -261.5q0 -123 -25.5 -236t-79.5 -213t-131 -173.5t-188 -116 t-243 -42.5q-188 0 -298 116t-110 300zM492 383q0 -83 44 -136.5t126 -53.5q74 0 136.5 36.5t101 95.5t60 129.5t21.5 141.5q0 89 -41.5 146t-140.5 57q-91 0 -163.5 -66.5t-108 -160t-35.5 -189.5z" />
<glyph unicode="&#xf1;" horiz-adv-x="1212" d="M143 0l226 1049h276l-22 -103q126 129 315 129q157 0 229 -76.5t72 -210.5q0 -72 -18 -151l-136 -637h-282l127 594q14 72 14 117q0 62 -30.5 95.5t-108.5 33.5q-96 0 -166.5 -77.5t-97.5 -203.5l-119 -559h-279zM487 1214q31 110 103.5 187.5t171.5 77.5 q56 0 111.5 -26.5t99 -52.5t67.5 -26q65 0 99 99l151 -7q-37 -115 -107 -189.5t-167 -74.5q-43 0 -88 16.5t-75.5 36t-63.5 36t-56 16.5q-32 0 -53.5 -24.5t-40.5 -72.5z" />
<glyph unicode="&#xf2;" horiz-adv-x="1226" d="M195 395q0 137 42.5 259t122 216.5t202.5 149.5t274 55q197 0 308 -114.5t111 -305.5q0 -110 -24.5 -210t-75.5 -186.5t-125 -150t-178 -99.5t-229 -36q-200 0 -314 116t-114 306zM477 397q0 -99 44.5 -153t129.5 -54q79 0 143 44.5t101.5 114.5t57.5 148t20 154 q0 207 -176 207q-78 -1 -141.5 -46t-101 -115t-57.5 -148t-20 -152zM506 1487h299l121 -305h-156z" />
<glyph unicode="&#xf3;" horiz-adv-x="1247" d="M195 395q0 137 42.5 259t122 216.5t202.5 149.5t274 55q197 0 308 -114.5t111 -305.5q0 -110 -24.5 -210t-75.5 -186.5t-125 -150t-178 -99.5t-229 -36q-200 0 -314 116t-114 306zM477 397q0 -99 44.5 -153t129.5 -54q79 0 143 44.5t101.5 114.5t57.5 148t20 154 q0 207 -176 207q-78 -1 -141.5 -46t-101 -115t-57.5 -148t-20 -152zM741 1180l252 305h344l-393 -305h-203z" />
<glyph unicode="&#xf4;" horiz-adv-x="1226" d="M195 395q0 137 42.5 259t122 216.5t202.5 149.5t274 55q197 0 308 -114.5t111 -305.5q0 -110 -24.5 -210t-75.5 -186.5t-125 -150t-178 -99.5t-229 -36q-200 0 -314 116t-114 306zM477 397q0 -99 44.5 -153t129.5 -54q79 0 143 44.5t101.5 114.5t57.5 148t20 154 q0 207 -176 207q-78 -1 -141.5 -46t-101 -115t-57.5 -148t-20 -152zM477 1194l314 305h208l189 -305h-176l-133 154l-193 -154h-209z" />
<glyph unicode="&#xf5;" horiz-adv-x="1208" d="M195 395q0 137 42.5 259t122 216.5t202.5 149.5t274 55q197 0 308 -114.5t111 -305.5q0 -110 -24.5 -210t-75.5 -186.5t-125 -150t-178 -99.5t-229 -36q-200 0 -314 116t-114 306zM477 397q0 -99 44.5 -153t129.5 -54q79 0 143 44.5t101.5 114.5t57.5 148t20 154 q0 207 -176 207q-78 -1 -141.5 -46t-101 -115t-57.5 -148t-20 -152zM481 1214q31 110 103.5 187.5t171.5 77.5q56 0 111.5 -26.5t99 -52.5t67.5 -26q62 0 99 99l149 -7q-35 -114 -105.5 -189t-166.5 -75q-43 0 -88 16.5t-75.5 36t-63.5 36t-56 16.5q-32 0 -53.5 -24.5 t-40.5 -72.5z" />
<glyph unicode="&#xf6;" horiz-adv-x="1226" d="M195 395q0 137 42.5 259t122 216.5t202.5 149.5t274 55q197 0 308 -114.5t111 -305.5q0 -110 -24.5 -210t-75.5 -186.5t-125 -150t-178 -99.5t-229 -36q-200 0 -314 116t-114 306zM477 397q0 -99 44.5 -153t129.5 -54q79 0 143 44.5t101.5 114.5t57.5 148t20 154 q0 207 -176 207q-78 -1 -141.5 -46t-101 -115t-57.5 -148t-20 -152zM543 1356q0 54 37.5 92.5t91.5 38.5q55 0 93 -38.5t38 -92.5t-38 -92.5t-93 -38.5q-54 0 -91.5 38.5t-37.5 92.5zM969 1356q0 54 38.5 92.5t92.5 38.5t92.5 -38.5t38.5 -92.5t-38.5 -92.5t-92.5 -38.5 t-92.5 38.5t-38.5 92.5z" />
<glyph unicode="&#xf7;" horiz-adv-x="1325" d="M197 541l47 219h1161l-45 -219h-1163zM567 156q0 63 45 107t109 44q63 0 107 -44t44 -107t-44 -107.5t-107 -44.5q-64 0 -109 44.5t-45 107.5zM717 1145q0 62 44.5 106.5t108.5 44.5q63 0 107.5 -44.5t44.5 -106.5q0 -63 -44.5 -107.5t-107.5 -44.5q-64 0 -108.5 44.5 t-44.5 107.5z" />
<glyph unicode="&#xf8;" horiz-adv-x="1228" d="M197 395q0 137 42.5 259t121 216.5t201.5 149.5t274 55q106 0 190 -35l49 68l144 -27l-82 -112q118 -115 118 -314q0 -110 -24.5 -210t-75.5 -186.5t-125 -150t-178 -99.5t-229 -36q-111 0 -187 33l-61 -84l-144 27l93 127q-127 115 -127 319zM477 397q0 -51 12 -92 l392 537q-37 16 -80 16h-2h-2q-78 -1 -141.5 -46t-101 -115t-57.5 -148t-20 -152zM580 203q32 -13 71 -13q79 0 143 44.5t101.5 114.5t57.5 148t20 154q0 47 -8 80z" />
<glyph unicode="&#xf9;" horiz-adv-x="1210" d="M195 262q0 66 16 148l137 637h281l-127 -594q-15 -73 -15 -113q0 -63 32 -97t112 -34q96 0 165 76t97 204l117 558h278l-223 -1047h-279l23 100q-120 -127 -311 -127q-158 0 -230.5 76.5t-72.5 212.5zM514 1487h299l121 -305h-158z" />
<glyph unicode="&#xfa;" horiz-adv-x="1210" d="M195 262q0 66 16 148l137 637h281l-127 -594q-15 -73 -15 -113q0 -63 32 -97t112 -34q96 0 165 76t97 204l117 558h278l-223 -1047h-279l23 100q-120 -127 -311 -127q-158 0 -230.5 76.5t-72.5 212.5zM707 1180l251 305h345l-392 -305h-204z" />
<glyph unicode="&#xfb;" horiz-adv-x="1210" d="M195 262q0 66 16 148l137 637h281l-127 -594q-15 -73 -15 -113q0 -63 32 -97t112 -34q96 0 165 76t97 204l117 558h278l-223 -1047h-279l23 100q-120 -127 -311 -127q-158 0 -230.5 76.5t-72.5 212.5zM483 1194l316 305h209l186 -305h-176l-131 154l-195 -154h-209z" />
<glyph unicode="&#xfc;" horiz-adv-x="1210" d="M195 262q0 66 16 148l137 637h281l-127 -594q-15 -73 -15 -113q0 -63 32 -97t112 -34q96 0 165 76t97 204l117 558h278l-223 -1047h-279l23 100q-120 -127 -311 -127q-158 0 -230.5 76.5t-72.5 212.5zM549 1356q0 54 38.5 92.5t92.5 38.5t91.5 -38.5t37.5 -92.5 t-37.5 -92.5t-91.5 -38.5t-92.5 38.5t-38.5 92.5zM977 1356q0 54 37.5 92.5t91.5 38.5q55 0 93 -38.5t38 -92.5t-38 -92.5t-93 -38.5q-54 0 -91.5 38.5t-37.5 92.5z" />
<glyph unicode="&#xfd;" horiz-adv-x="1179" d="M102 -387l72 186q53 -16 84 -16q89 0 133 86l60 117l-146 1061h275l59 -781l397 781h310l-777 -1311q-48 -81 -134 -121.5t-179 -40.5q-95 0 -154 39zM719 1180l252 305h344l-393 -305h-203z" />
<glyph unicode="&#xfe;" horiz-adv-x="1204" d="M74 -410l393 1848h278l-104 -488q141 123 295 123q158 0 241 -102.5t83 -278.5q0 -96 -20.5 -194.5t-65 -193t-107 -168t-153 -118.5t-195.5 -45q-174 0 -258 125l-109 -508h-278zM524 401q0 -89 40 -146.5t124 -57.5q58 0 107.5 32t82.5 83t56.5 114.5t34 125 t10.5 116.5q0 182 -148 182q-60 0 -125.5 -34.5t-115.5 -106.5z" />
<glyph unicode="&#xff;" horiz-adv-x="1187" d="M106 -387l72 186q53 -16 84 -16q89 0 133 86l60 117l-146 1061h275l59 -781l397 781h310l-777 -1311q-48 -81 -134 -121.5t-179 -40.5q-95 0 -154 39zM565 1356q0 54 37.5 92.5t91.5 38.5q55 0 93 -38.5t38 -92.5t-38 -92.5t-93 -38.5q-54 0 -91.5 38.5t-37.5 92.5z M991 1356q0 54 38.5 92.5t92.5 38.5t92.5 -38.5t38.5 -92.5t-38.5 -92.5t-92.5 -38.5t-92.5 38.5t-38.5 92.5z" />
<glyph unicode="&#x152;" horiz-adv-x="2226" d="M236 522q0 102 14 187q27 155 95 292.5t170.5 244t245.5 169t306 62.5q208 0 344 -37h999l-49 -232h-719l-73 -342h547l-50 -229h-544l-88 -408h759l-49 -229h-1038q-164 -29 -342 -29q-109 0 -197.5 28.5t-149.5 78t-102 119.5t-60 151t-19 174zM535 551 q0 -154 71.5 -244t212.5 -90q190 0 340 98l180 844q-69 42 -130 58t-146 16q-108 0 -200 -47t-155 -126t-103.5 -175t-57.5 -201q-12 -67 -12 -133z" />
<glyph unicode="&#x153;" horiz-adv-x="1929" d="M195 395q0 109 26 209.5t79 186.5t128 149t180.5 99t229.5 36q226 0 336 -145q171 145 393 145q195 0 291 -106.5t96 -286.5q0 -127 -35 -223h-702q-7 -44 -7 -72q0 -91 45.5 -145t141.5 -54q78 0 148.5 30t146.5 99l157 -143q-206 -203 -497 -203q-216 0 -328 144 q-164 -142 -399 -142q-200 0 -315 116t-115 306zM477 397q0 -99 44.5 -153t131.5 -54q80 0 144 44.5t102 114.5t58 148t20 154q0 207 -176 207q-64 -1 -119 -30.5t-92 -77.5t-63 -109t-38 -123t-12 -121zM1257 639h435q4 28 4 45q0 184 -172 184q-93 0 -162.5 -62 t-104.5 -167z" />
<glyph unicode="&#x178;" horiz-adv-x="1435" d="M336 1440h307l219 -637l492 637h356l-756 -895l-114 -545h-293l125 590zM694 1696q0 54 38.5 91.5t92.5 37.5t92.5 -37.5t38.5 -91.5t-38.5 -92.5t-92.5 -38.5t-92.5 38.5t-38.5 92.5zM1122 1696q0 54 38 91.5t93 37.5q54 0 91.5 -37.5t37.5 -91.5t-37.5 -92.5 t-91.5 -38.5q-55 0 -93 38.5t-38 92.5z" />
<glyph unicode="&#x2c6;" horiz-adv-x="997" d="M397 1194l316 305h209l186 -305h-176l-133 154l-193 -154h-209z" />
<glyph unicode="&#x2dc;" horiz-adv-x="1034" d="M401 1214q31 110 103.5 187.5t171.5 77.5q56 0 111.5 -26.5t99 -52.5t67.5 -26q62 0 99 99l149 -7q-35 -114 -105.5 -189t-166.5 -75q-43 0 -88 16.5t-75.5 36t-63.5 36t-56 16.5q-32 0 -53.5 -24.5t-40.5 -72.5z" />
<glyph unicode="&#x2000;" horiz-adv-x="978" />
<glyph unicode="&#x2001;" horiz-adv-x="1956" />
<glyph unicode="&#x2002;" horiz-adv-x="978" />
<glyph unicode="&#x2003;" horiz-adv-x="1956" />
<glyph unicode="&#x2004;" horiz-adv-x="652" />
<glyph unicode="&#x2005;" horiz-adv-x="489" />
<glyph unicode="&#x2006;" horiz-adv-x="326" />
<glyph unicode="&#x2007;" horiz-adv-x="326" />
<glyph unicode="&#x2008;" horiz-adv-x="244" />
<glyph unicode="&#x2009;" horiz-adv-x="391" />
<glyph unicode="&#x200a;" horiz-adv-x="108" />
<glyph unicode="&#x2010;" horiz-adv-x="770" d="M223 571l56 254h563l-54 -254h-565z" />
<glyph unicode="&#x2011;" horiz-adv-x="770" d="M223 571l56 254h563l-54 -254h-565z" />
<glyph unicode="&#x2012;" horiz-adv-x="770" d="M223 571l56 254h563l-54 -254h-565z" />
<glyph unicode="&#x2013;" horiz-adv-x="1007" d="M205 571l53 254h842l-53 -254h-842z" />
<glyph unicode="&#x2014;" horiz-adv-x="1282" d="M205 571l53 254h1118l-55 -254h-1116z" />
<glyph unicode="&#x2018;" horiz-adv-x="600" d="M285 956l348 521l203 -37l-256 -484h-295z" />
<glyph unicode="&#x2019;" horiz-adv-x="600" d="M274 956l256 484h295l-348 -520z" />
<glyph unicode="&#x201a;" horiz-adv-x="610" d="M33 -227l256 483h293l-346 -520z" />
<glyph unicode="&#x201c;" horiz-adv-x="1036" d="M285 956l348 521l203 -37l-256 -484h-295zM721 956l348 521l203 -37l-256 -484h-295z" />
<glyph unicode="&#x201d;" horiz-adv-x="1036" d="M274 956l256 484h295l-348 -520zM711 956l256 484h295l-349 -520z" />
<glyph unicode="&#x201e;" horiz-adv-x="1046" d="M33 -227l256 483h293l-346 -520zM469 -227l256 483h293l-346 -520z" />
<glyph unicode="&#x2022;" horiz-adv-x="876" d="M283 713q0 131 90.5 222t220.5 91q132 0 222.5 -91t90.5 -222t-90.5 -222.5t-222.5 -91.5q-130 0 -220.5 91.5t-90.5 222.5z" />
<glyph unicode="&#x2026;" horiz-adv-x="1368" d="M106 127q0 63 44.5 107.5t107.5 44.5q64 0 109 -44.5t45 -107.5q0 -62 -45 -106t-109 -44q-63 0 -107.5 44t-44.5 106zM557 127q0 63 45.5 107.5t108.5 44.5t108 -44.5t45 -107.5q0 -62 -45 -106t-108 -44t-108.5 44.5t-45.5 105.5zM1010 127q0 63 45 107.5t108 44.5 t108.5 -44.5t45.5 -107.5q0 -61 -45.5 -105.5t-108.5 -44.5t-108 44t-45 106z" />
<glyph unicode="&#x202f;" horiz-adv-x="391" />
<glyph unicode="&#x2039;" horiz-adv-x="688" d="M205 588l438 475l178 -74l-391 -420l227 -428h-219z" />
<glyph unicode="&#x203a;" horiz-adv-x="688" d="M113 195l391 417l-176 332l-52 96h218l235 -446l-438 -473z" />
<glyph unicode="&#x205f;" horiz-adv-x="489" />
<glyph unicode="&#x20ac;" horiz-adv-x="1488" d="M111 506l26 133h172q6 43 15 92q10 40 12 47h-168l29 133h180q98 258 295 410t461 152q215 0 348.5 -101t173.5 -272l-273 -90q-26 97 -94 158t-184 61q-134 0 -244.5 -85t-177.5 -233h457l-29 -133h-477q-2 -8 -7.5 -27t-7.5 -30q-7 -32 -14 -82h475l-28 -133h-451 q8 -135 76.5 -214t193.5 -79q194 0 338 182l226 -157q-103 -131 -254.5 -201t-337.5 -70q-140 0 -246 42t-169 117t-94 170t-32 210h-190z" />
<glyph unicode="&#x2122;" horiz-adv-x="1611" d="M381 1315l27 125h593l-26 -125h-221l-133 -621h-148l133 621h-225zM938 694l158 746h157l82 -537l305 537h175l-158 -746h-141l83 387q27 120 37 144q-50 -81 -82 -144l-225 -387h-76q-1 5 -15 109t-28.5 210t-15.5 111q-3 10 -7.5 50.5t-4.5 50.5q-9 -72 -25 -144 l-80 -387h-139z" />
<glyph unicode="&#xe000;" horiz-adv-x="1044" d="M0 0v1044h1044v-1044h-1044z" />
</font>
</defs>
</svg>
